%TF.GenerationSoftware,KiCad,Pcbnew,10.0.3*%
%TF.CreationDate,2026-07-20T23:28:53+02:00*%
%TF.ProjectId,GPU12864,47505531-3238-4363-942e-6b696361645f,rev?*%
%TF.SameCoordinates,Original*%
%TF.FileFunction,Copper,L1,Top*%
%TF.FilePolarity,Positive*%
%FSLAX46Y46*%
G04 Gerber Fmt 4.6, Leading zero omitted, Abs format (unit mm)*
G04 Created by KiCad (PCBNEW 10.0.3) date 2026-07-20 23:28:53*
%MOMM*%
%LPD*%
G01*
G04 APERTURE LIST*
%TA.AperFunction,ComponentPad*%
%ADD10C,5.000000*%
%TD*%
%TA.AperFunction,ComponentPad*%
%ADD11O,1.727200X1.727200*%
%TD*%
%TA.AperFunction,ComponentPad*%
%ADD12R,1.727200X1.727200*%
%TD*%
%TA.AperFunction,ComponentPad*%
%ADD13R,1.700000X1.700000*%
%TD*%
%TA.AperFunction,ComponentPad*%
%ADD14C,1.700000*%
%TD*%
%TA.AperFunction,ComponentPad*%
%ADD15R,1.560000X1.560000*%
%TD*%
%TA.AperFunction,ComponentPad*%
%ADD16C,1.560000*%
%TD*%
%TA.AperFunction,ViaPad*%
%ADD17C,0.600000*%
%TD*%
%TA.AperFunction,Conductor*%
%ADD18C,0.200000*%
%TD*%
G04 APERTURE END LIST*
D10*
%TO.P,REF\u002A\u002A,1*%
%TO.N,N/C*%
X162000000Y-143500000D03*
%TD*%
%TO.P,REF\u002A\u002A,1*%
%TO.N,N/C*%
X74000000Y-78500000D03*
%TD*%
%TO.P,REF\u002A\u002A,1*%
%TO.N,N/C*%
X74000000Y-143500000D03*
%TD*%
D11*
%TO.P,A1,3V3,3.3V_3V3*%
%TO.N,unconnected-(A1-3.3V-Pad3V3)*%
X119379881Y-133130000D03*
%TO.P,A1,5V1,5V_5V1*%
%TO.N,+5V*%
X121919881Y-133130000D03*
%TO.P,A1,5V2,SPI_5V_5V2*%
%TO.N,unconnected-(A1-SPI_5V-Pad5V2)*%
X149986881Y-105190000D03*
%TO.P,A1,A0,A0_A0*%
%TO.N,/RES*%
X134619881Y-133130000D03*
%TO.P,A1,A1,A1_A1*%
%TO.N,unconnected-(A1-PadA1)*%
X137159881Y-133130000D03*
%TO.P,A1,A2,A2_A2*%
%TO.N,unconnected-(A1-PadA2)*%
X139699881Y-133130000D03*
%TO.P,A1,A3,A3_A3*%
%TO.N,unconnected-(A1-PadA3)*%
X142239881Y-133130000D03*
%TO.P,A1,A4,A4_A4*%
%TO.N,unconnected-(A1-PadA4)*%
X144779881Y-133130000D03*
%TO.P,A1,A5,A5_A5*%
%TO.N,unconnected-(A1-PadA5)*%
X147319881Y-133130000D03*
%TO.P,A1,AREF,AREF_AREF*%
%TO.N,unconnected-(A1-PadAREF)*%
X107695881Y-84870000D03*
%TO.P,A1,BOOT,BOOT_BOOT*%
%TO.N,unconnected-(A1-PadBOOT)*%
X111759881Y-133130000D03*
%TO.P,A1,D0,D0/RX_D0*%
%TO.N,unconnected-(A1-D0{slash}RX-PadD0)*%
X147319881Y-84870000D03*
%TO.P,A1,D1,D1/TX_D1*%
%TO.N,unconnected-(A1-D1{slash}TX-PadD1)*%
X144779881Y-84870000D03*
%TO.P,A1,D2,D2_D2*%
%TO.N,Net-(J1-Pin_7)*%
X142239881Y-84870000D03*
%TO.P,A1,D3,D3_D3*%
%TO.N,Net-(J1-Pin_8)*%
X139699881Y-84870000D03*
%TO.P,A1,D4,D4_D4*%
%TO.N,Net-(J1-Pin_9)*%
X137159881Y-84870000D03*
%TO.P,A1,D5,D5_D5*%
%TO.N,Net-(J1-Pin_10)*%
X134619881Y-84870000D03*
%TO.P,A1,D6,D6_D6*%
%TO.N,Net-(J1-Pin_11)*%
X132079881Y-84870000D03*
%TO.P,A1,D7,D7_D7*%
%TO.N,Net-(J1-Pin_12)*%
X129539881Y-84870000D03*
%TO.P,A1,D8,D8_D8*%
%TO.N,Net-(J1-Pin_13)*%
X125475881Y-84870000D03*
%TO.P,A1,D9,D9_D9*%
%TO.N,Net-(J1-Pin_14)*%
X122935881Y-84870000D03*
%TO.P,A1,D10,D10_D10*%
%TO.N,/DI*%
X120395881Y-84870000D03*
%TO.P,A1,D11,D11_D11*%
%TO.N,/EN*%
X117855881Y-84870000D03*
%TO.P,A1,D12,D12_D12*%
%TO.N,/CS1*%
X115315881Y-84870000D03*
%TO.P,A1,D13,D13_D13*%
%TO.N,/CS2*%
X112775881Y-84870000D03*
%TO.P,A1,ESP1,ESP_42_ESP1*%
%TO.N,unconnected-(A1-ESP_42-PadESP1)*%
X105155881Y-92490000D03*
%TO.P,A1,ESP2,ESP_41_ESP2*%
%TO.N,unconnected-(A1-ESP_41-PadESP2)*%
X105155881Y-94976010D03*
%TO.P,A1,ESP3,ESP_TX_ESP3*%
%TO.N,unconnected-(A1-ESP_TX-PadESP3)*%
X102615881Y-92490000D03*
%TO.P,A1,ESP4,DWNLD_ESP4*%
%TO.N,unconnected-(A1-DWNLD-PadESP4)*%
X102615881Y-94976010D03*
%TO.P,A1,ESP5,ESP_RX_ESP5*%
%TO.N,unconnected-(A1-ESP_RX-PadESP5)*%
X100075881Y-92436010D03*
D12*
%TO.P,A1,GND1,GND_GND1*%
%TO.N,GND*%
X110235881Y-84870000D03*
%TO.P,A1,GND2,GND_GND2*%
X124459881Y-133130000D03*
%TO.P,A1,GND3,GND_GND3*%
X126999881Y-133130000D03*
%TO.P,A1,GND4,GND_GND4*%
X100075881Y-94976010D03*
X149986881Y-110270000D03*
%TO.P,A1,GND5,GND_GND5*%
%TO.N,unconnected-(A1-GND-PadGND5)*%
X104139881Y-133130000D03*
D11*
%TO.P,A1,IORF,IOREF_IORF*%
%TO.N,unconnected-(A1-IOREF-PadIORF)*%
X114299881Y-133130000D03*
%TO.P,A1,MISO,SPI_MISO_MISO*%
%TO.N,unconnected-(A1-SPI_MISO-PadMISO)*%
X147446881Y-105190000D03*
%TO.P,A1,MOSI,SPI_MOSI_MOSI*%
%TO.N,unconnected-(A1-SPI_MOSI-PadMOSI)*%
X149986881Y-107730000D03*
%TO.P,A1,OFF,OFF_OFF*%
%TO.N,unconnected-(A1-PadOFF)*%
X101599881Y-133130000D03*
%TO.P,A1,RST1,RESET_RST1*%
%TO.N,unconnected-(A1-RESET-PadRST1)*%
X116839881Y-133130000D03*
%TO.P,A1,RST2,SPI_RESET_RST2*%
%TO.N,unconnected-(A1-SPI_RESET-PadRST2)*%
X147446881Y-110270000D03*
%TO.P,A1,SCK,SPI_SCK_SCK*%
%TO.N,unconnected-(A1-SPI_SCK-PadSCK)*%
X147446881Y-107730000D03*
%TO.P,A1,SCL,SCL_SCL*%
%TO.N,Net-(J2-Pin_3)*%
X102615881Y-84870000D03*
%TO.P,A1,SDA,SDA_SDA*%
%TO.N,Net-(J2-Pin_4)*%
X105155881Y-84870000D03*
%TO.P,A1,VBAT,VRTC_VBAT*%
%TO.N,unconnected-(A1-VRTC-PadVBAT)*%
X106679881Y-133130000D03*
%TO.P,A1,VIN,VIN_VIN*%
%TO.N,unconnected-(A1-PadVIN)*%
X129539881Y-133130000D03*
%TD*%
D13*
%TO.P,J1,1,Pin_1_1*%
%TO.N,GND*%
X133760000Y-143500000D03*
D14*
%TO.P,J1,2,Pin_2_2*%
%TO.N,+5V*%
X131220000Y-143500000D03*
%TO.P,J1,3,Pin_3_3*%
%TO.N,/VO*%
X128680000Y-143500000D03*
%TO.P,J1,4,Pin_4_4*%
%TO.N,/DI*%
X126140000Y-143500000D03*
%TO.P,J1,5,Pin_5_5*%
%TO.N,GND*%
X123600000Y-143500000D03*
%TO.P,J1,6,Pin_6_6*%
%TO.N,/EN*%
X121060000Y-143500000D03*
%TO.P,J1,7,Pin_7_7*%
%TO.N,Net-(J1-Pin_7)*%
X118520000Y-143500000D03*
%TO.P,J1,8,Pin_8_8*%
%TO.N,Net-(J1-Pin_8)*%
X115980000Y-143500000D03*
%TO.P,J1,9,Pin_9_9*%
%TO.N,Net-(J1-Pin_9)*%
X113440000Y-143500000D03*
%TO.P,J1,10,Pin_10_10*%
%TO.N,Net-(J1-Pin_10)*%
X110900000Y-143500000D03*
%TO.P,J1,11,Pin_11_11*%
%TO.N,Net-(J1-Pin_11)*%
X108360000Y-143500000D03*
%TO.P,J1,12,Pin_12_12*%
%TO.N,Net-(J1-Pin_12)*%
X105820000Y-143500000D03*
%TO.P,J1,13,Pin_13_13*%
%TO.N,Net-(J1-Pin_13)*%
X103280000Y-143500000D03*
%TO.P,J1,14,Pin_14_14*%
%TO.N,Net-(J1-Pin_14)*%
X100740000Y-143500000D03*
%TO.P,J1,15,Pin_15_15*%
%TO.N,/CS1*%
X98200000Y-143500000D03*
%TO.P,J1,16,Pin_16_16*%
%TO.N,/CS2*%
X95660000Y-143500000D03*
%TO.P,J1,17,Pin_17_17*%
%TO.N,/RES*%
X93120000Y-143500000D03*
%TO.P,J1,18,Pin_18_18*%
%TO.N,/VOUT*%
X90580000Y-143500000D03*
%TO.P,J1,19,Pin_19_19*%
%TO.N,+5V*%
X88040000Y-143500000D03*
%TO.P,J1,20,Pin_20_20*%
%TO.N,GND*%
X85500000Y-143500000D03*
%TD*%
D10*
%TO.P,REF\u002A\u002A,1*%
%TO.N,N/C*%
X162000000Y-78500000D03*
%TD*%
D15*
%TO.P,RV1,1,1_1*%
%TO.N,/VOUT*%
X160000000Y-86400000D03*
D16*
%TO.P,RV1,2,2_2*%
%TO.N,/VO*%
X157500000Y-91400000D03*
%TO.P,RV1,3,3_3*%
%TO.N,+5V*%
X155000000Y-86400000D03*
%TD*%
D13*
%TO.P,J2,1,Pin_1_1*%
%TO.N,GND*%
X160800000Y-124790000D03*
D14*
%TO.P,J2,2,Pin_2_2*%
%TO.N,+5V*%
X160800000Y-127330000D03*
%TO.P,J2,3,Pin_3_3*%
%TO.N,Net-(J2-Pin_3)*%
X160800000Y-129870000D03*
%TO.P,J2,4,Pin_4_4*%
%TO.N,Net-(J2-Pin_4)*%
X160800000Y-132410000D03*
%TD*%
D17*
%TO.N,Net-(J2-Pin_3)*%
X111400000Y-82200000D03*
%TO.N,+5V*%
X127000000Y-135200000D03*
%TO.N,/VOUT*%
X128500000Y-109700000D03*
X90600000Y-134600000D03*
X126400000Y-123000000D03*
%TD*%
%TO.N,Net-(J1-Pin_8)*%
D18*
X132800000Y-131234315D02*
X132800000Y-134800000D01*
X128600000Y-139000000D02*
X120480000Y-139000000D01*
X139699881Y-124334433D02*
X132800000Y-131234315D01*
X120480000Y-139000000D02*
X115980000Y-143500000D01*
X132800000Y-134800000D02*
X128600000Y-139000000D01*
X139699881Y-84870000D02*
X139699881Y-124334433D01*
%TO.N,Net-(J1-Pin_10)*%
X132000000Y-134468628D02*
X128268628Y-138200000D01*
X116200000Y-138200000D02*
X110900000Y-143500000D01*
X134619881Y-128283062D02*
X132000000Y-130902945D01*
X128268628Y-138200000D02*
X116200000Y-138200000D01*
X132000000Y-130902945D02*
X132000000Y-134468628D01*
X134619881Y-84870000D02*
X134619881Y-128283062D01*
%TO.N,GND*%
X124459881Y-133130000D02*
X126999881Y-133130000D01*
X105400000Y-89600000D02*
X110130000Y-84870000D01*
X98376010Y-94976010D02*
X97600000Y-94200000D01*
X98400000Y-89600000D02*
X105400000Y-89600000D01*
X100075881Y-123124119D02*
X85600000Y-137600000D01*
X85600000Y-143400000D02*
X85500000Y-143500000D01*
X97600000Y-90400000D02*
X98400000Y-89600000D01*
X97600000Y-94200000D02*
X97600000Y-90400000D01*
X100075881Y-94976010D02*
X100075881Y-123124119D01*
X85600000Y-137600000D02*
X85600000Y-143400000D01*
X100075881Y-94976010D02*
X98376010Y-94976010D01*
X110130000Y-84870000D02*
X110235881Y-84870000D01*
%TO.N,Net-(J1-Pin_9)*%
X137200000Y-126268628D02*
X132400000Y-131068630D01*
X128434314Y-138600000D02*
X118340000Y-138600000D01*
X137159881Y-105959881D02*
X137200000Y-106000000D01*
X132400000Y-134634314D02*
X128434314Y-138600000D01*
X118340000Y-138600000D02*
X113440000Y-143500000D01*
X137159881Y-84870000D02*
X137159881Y-105959881D01*
X137200000Y-106000000D02*
X137200000Y-126268628D01*
X132400000Y-131068630D02*
X132400000Y-134634314D01*
%TO.N,Net-(J1-Pin_11)*%
X128102942Y-137800000D02*
X114060000Y-137800000D01*
X132079881Y-130257378D02*
X131600000Y-130737260D01*
X132079881Y-84870000D02*
X132079881Y-130257378D01*
X131600000Y-134302942D02*
X128102942Y-137800000D01*
X131600000Y-130737260D02*
X131600000Y-134302942D01*
X114060000Y-137800000D02*
X108360000Y-143500000D01*
%TO.N,/EN*%
X143600000Y-84200000D02*
X142600000Y-83200000D01*
X135600000Y-134800000D02*
X135800000Y-134600000D01*
X142600000Y-83200000D02*
X119525881Y-83200000D01*
X135800000Y-129365686D02*
X143600000Y-121565686D01*
X119525881Y-83200000D02*
X117855881Y-84870000D01*
X124760000Y-139800000D02*
X128965686Y-139800000D01*
X143600000Y-121565686D02*
X143600000Y-84200000D01*
X133965686Y-134800000D02*
X135600000Y-134800000D01*
X135800000Y-134600000D02*
X135800000Y-129365686D01*
X121060000Y-143500000D02*
X124760000Y-139800000D01*
X128965686Y-139800000D02*
X133965686Y-134800000D01*
%TO.N,Net-(J2-Pin_3)*%
X105285881Y-82200000D02*
X102615881Y-84870000D01*
X111400000Y-82200000D02*
X105285881Y-82200000D01*
%TO.N,/CS1*%
X109800000Y-135365686D02*
X108965685Y-136200000D01*
X109800000Y-131000000D02*
X109800000Y-135365686D01*
X115315881Y-84870000D02*
X115315881Y-125484119D01*
X105500000Y-136200000D02*
X98200000Y-143500000D01*
X115315881Y-125484119D02*
X109800000Y-131000000D01*
X108965685Y-136200000D02*
X105500000Y-136200000D01*
%TO.N,Net-(J1-Pin_13)*%
X109780000Y-137000000D02*
X103280000Y-143500000D01*
X130800000Y-133971570D02*
X127771570Y-137000000D01*
X127771570Y-137000000D02*
X109780000Y-137000000D01*
X130800000Y-129200000D02*
X130800000Y-133971570D01*
X125475881Y-84870000D02*
X125475881Y-123875881D01*
X125475881Y-123875881D02*
X130800000Y-129200000D01*
%TO.N,Net-(J1-Pin_7)*%
X122620000Y-139400000D02*
X118520000Y-143500000D01*
X142239881Y-84870000D02*
X142239881Y-122360119D01*
X142239881Y-122360119D02*
X133200000Y-131400000D01*
X133200000Y-135000000D02*
X128800000Y-139400000D01*
X133200000Y-131400000D02*
X133200000Y-135000000D01*
X128800000Y-139400000D02*
X122620000Y-139400000D01*
%TO.N,+5V*%
X147130000Y-141000000D02*
X133800000Y-141000000D01*
X127000000Y-135200000D02*
X124000000Y-135200000D01*
X124000000Y-135200000D02*
X121930000Y-133130000D01*
X131300000Y-143500000D02*
X131220000Y-143500000D01*
X162400000Y-93800000D02*
X155000000Y-86400000D01*
X160800000Y-127330000D02*
X162400000Y-125730000D01*
X162400000Y-125730000D02*
X162400000Y-93800000D01*
X121930000Y-133130000D02*
X121919881Y-133130000D01*
X160800000Y-127330000D02*
X147130000Y-141000000D01*
X133800000Y-141000000D02*
X131300000Y-143500000D01*
%TO.N,Net-(J1-Pin_14)*%
X122935881Y-121901567D02*
X128376281Y-127341967D01*
X122935881Y-84870000D02*
X122935881Y-121901567D01*
X128376281Y-135823719D02*
X127600000Y-136600000D01*
X107640000Y-136600000D02*
X100740000Y-143500000D01*
X127600000Y-136600000D02*
X107640000Y-136600000D01*
X128376281Y-127341967D02*
X128376281Y-135823719D01*
%TO.N,/CS2*%
X109400000Y-135200000D02*
X108800000Y-135800000D01*
X112775881Y-84870000D02*
X112775881Y-127458433D01*
X103360000Y-135800000D02*
X95660000Y-143500000D01*
X112775881Y-127458433D02*
X109400000Y-130834314D01*
X109400000Y-130834314D02*
X109400000Y-135200000D01*
X108800000Y-135800000D02*
X103360000Y-135800000D01*
%TO.N,Net-(J1-Pin_12)*%
X129539881Y-84870000D02*
X129539881Y-127339881D01*
X127937256Y-137400000D02*
X115868628Y-137400001D01*
X115868628Y-137400001D02*
X115868627Y-137400000D01*
X131200000Y-134137256D02*
X127937256Y-137400000D01*
X131200000Y-129000000D02*
X131200000Y-134137256D01*
X129539881Y-127339881D02*
X131200000Y-129000000D01*
X115868627Y-137400000D02*
X111920000Y-137400000D01*
X111920000Y-137400000D02*
X105820000Y-143500000D01*
%TO.N,/VO*%
X145000000Y-125800000D02*
X145000000Y-98200000D01*
X154100000Y-94800000D02*
X157500000Y-91400000D01*
X138400000Y-132400000D02*
X145000000Y-125800000D01*
X128680000Y-143500000D02*
X130000000Y-142180000D01*
X148400000Y-94800000D02*
X154100000Y-94800000D01*
X130020000Y-142180000D02*
X138400000Y-133800000D01*
X130000000Y-142180000D02*
X130020000Y-142180000D01*
X145000000Y-98200000D02*
X148400000Y-94800000D01*
X138400000Y-133800000D02*
X138400000Y-132400000D01*
%TO.N,/VOUT*%
X90600000Y-135600000D02*
X90580000Y-135620000D01*
X90600000Y-134600000D02*
X90600000Y-135600000D01*
X126400000Y-111800000D02*
X126400000Y-123000000D01*
X90580000Y-135620000D02*
X90580000Y-143500000D01*
X128500000Y-109700000D02*
X126400000Y-111800000D01*
%TD*%
M02*
