M48
; DRILL file KiCad 10.0.3 date 2026-07-20T23:28:55
; FORMAT={-:-/ absolute / metric / decimal}
; #@! TF.CreationDate,2026-07-20T23:28:55+02:00
; #@! TF.GenerationSoftware,Kicad,Pcbnew,10.0.3
; #@! TF.FileFunction,Plated,1,2,PTH
FMAT,2
METRIC
; #@! TA.AperFunction,Plated,PTH,ViaDrill
T1C0.300
; #@! TA.AperFunction,Plated,PTH,ComponentDrill
T2C1.000
; #@! TA.AperFunction,Plated,PTH,ComponentDrill
T3C1.016
; #@! TA.AperFunction,Plated,PTH,ComponentDrill
T4C2.500
%
G90
G05
T1
X90.6Y-134.6
X111.4Y-82.2
X126.4Y-123.0
X127.0Y-135.2
X128.5Y-109.7
T2
X85.5Y-143.5
X88.04Y-143.5
X90.58Y-143.5
X93.12Y-143.5
X95.66Y-143.5
X98.2Y-143.5
X100.74Y-143.5
X103.28Y-143.5
X105.82Y-143.5
X108.36Y-143.5
X110.9Y-143.5
X113.44Y-143.5
X115.98Y-143.5
X118.52Y-143.5
X121.06Y-143.5
X123.6Y-143.5
X126.14Y-143.5
X128.68Y-143.5
X131.22Y-143.5
X133.76Y-143.5
X155.0Y-86.4
X157.5Y-91.4
X160.0Y-86.4
X160.8Y-124.79
X160.8Y-127.33
X160.8Y-129.87
X160.8Y-132.41
T3
X100.076Y-92.436
X100.076Y-94.976
X101.6Y-133.13
X102.616Y-84.87
X102.616Y-92.49
X102.616Y-94.976
X104.14Y-133.13
X105.156Y-84.87
X105.156Y-92.49
X105.156Y-94.976
X106.68Y-133.13
X107.696Y-84.87
X110.236Y-84.87
X111.76Y-133.13
X112.776Y-84.87
X114.3Y-133.13
X115.316Y-84.87
X116.84Y-133.13
X117.856Y-84.87
X119.38Y-133.13
X120.396Y-84.87
X121.92Y-133.13
X122.936Y-84.87
X124.46Y-133.13
X125.476Y-84.87
X127.0Y-133.13
X129.54Y-84.87
X129.54Y-133.13
X132.08Y-84.87
X134.62Y-84.87
X134.62Y-133.13
X137.16Y-84.87
X137.16Y-133.13
X139.7Y-84.87
X139.7Y-133.13
X142.24Y-84.87
X142.24Y-133.13
X144.78Y-84.87
X144.78Y-133.13
X147.32Y-84.87
X147.32Y-133.13
X147.447Y-105.19
X147.447Y-107.73
X147.447Y-110.27
X149.987Y-105.19
X149.987Y-107.73
X149.987Y-110.27
T4
X74.0Y-78.5
X74.0Y-143.5
X162.0Y-78.5
X162.0Y-143.5
M30
