%TF.GenerationSoftware,KiCad,Pcbnew,10.0.3*%
%TF.CreationDate,2026-08-20T19:37:45+02:00*%
%TF.ProjectId,GPU12864,47505531-3238-4363-942e-6b696361645f,rev?*%
%TF.SameCoordinates,Original*%
%TF.FileFunction,Copper,L2,Bot*%
%TF.FilePolarity,Positive*%
%FSLAX46Y46*%
G04 Gerber Fmt 4.6, Leading zero omitted, Abs format (unit mm)*
G04 Created by KiCad (PCBNEW 10.0.3) date 2026-08-20 19:37:45*
%MOMM*%
%LPD*%
G01*
G04 APERTURE LIST*
%TA.AperFunction,ComponentPad*%
%ADD10C,5.000000*%
%TD*%
%TA.AperFunction,ComponentPad*%
%ADD11O,1.727200X1.727200*%
%TD*%
%TA.AperFunction,ComponentPad*%
%ADD12R,1.727200X1.727200*%
%TD*%
%TA.AperFunction,ComponentPad*%
%ADD13R,1.700000X1.700000*%
%TD*%
%TA.AperFunction,ComponentPad*%
%ADD14C,1.700000*%
%TD*%
%TA.AperFunction,ComponentPad*%
%ADD15R,1.560000X1.560000*%
%TD*%
%TA.AperFunction,ComponentPad*%
%ADD16C,1.560000*%
%TD*%
%TA.AperFunction,ViaPad*%
%ADD17C,0.600000*%
%TD*%
%TA.AperFunction,Conductor*%
%ADD18C,0.200000*%
%TD*%
G04 APERTURE END LIST*
D10*
%TO.P,REF\u002A\u002A,1*%
%TO.N,N/C*%
X162000000Y-143500000D03*
%TD*%
%TO.P,REF\u002A\u002A,1*%
%TO.N,N/C*%
X74000000Y-78500000D03*
%TD*%
%TO.P,REF\u002A\u002A,1*%
%TO.N,N/C*%
X74000000Y-143500000D03*
%TD*%
D11*
%TO.P,A1,3V3,3.3V_3V3*%
%TO.N,unconnected-(A1-3.3V-Pad3V3)*%
X119379881Y-133130000D03*
%TO.P,A1,5V1,5V_5V1*%
%TO.N,+5V*%
X121919881Y-133130000D03*
%TO.P,A1,5V2,SPI_5V_5V2*%
%TO.N,unconnected-(A1-SPI_5V-Pad5V2)*%
X149986881Y-105190000D03*
%TO.P,A1,A0,A0_A0*%
%TO.N,/RES*%
X134619881Y-133130000D03*
%TO.P,A1,A1,A1_A1*%
%TO.N,unconnected-(A1-PadA1)*%
X137159881Y-133130000D03*
%TO.P,A1,A2,A2_A2*%
%TO.N,unconnected-(A1-PadA2)*%
X139699881Y-133130000D03*
%TO.P,A1,A3,A3_A3*%
%TO.N,unconnected-(A1-PadA3)*%
X142239881Y-133130000D03*
%TO.P,A1,A4,A4_A4*%
%TO.N,unconnected-(A1-PadA4)*%
X144779881Y-133130000D03*
%TO.P,A1,A5,A5_A5*%
%TO.N,unconnected-(A1-PadA5)*%
X147319881Y-133130000D03*
%TO.P,A1,AREF,AREF_AREF*%
%TO.N,unconnected-(A1-PadAREF)*%
X107695881Y-84870000D03*
%TO.P,A1,BOOT,BOOT_BOOT*%
%TO.N,unconnected-(A1-PadBOOT)*%
X111759881Y-133130000D03*
%TO.P,A1,D0,D0/RX_D0*%
%TO.N,unconnected-(A1-D0{slash}RX-PadD0)*%
X147319881Y-84870000D03*
%TO.P,A1,D1,D1/TX_D1*%
%TO.N,unconnected-(A1-D1{slash}TX-PadD1)*%
X144779881Y-84870000D03*
%TO.P,A1,D2,D2_D2*%
%TO.N,Net-(J1-Pin_7)*%
X142239881Y-84870000D03*
%TO.P,A1,D3,D3_D3*%
%TO.N,Net-(J1-Pin_8)*%
X139699881Y-84870000D03*
%TO.P,A1,D4,D4_D4*%
%TO.N,Net-(J1-Pin_9)*%
X137159881Y-84870000D03*
%TO.P,A1,D5,D5_D5*%
%TO.N,Net-(J1-Pin_10)*%
X134619881Y-84870000D03*
%TO.P,A1,D6,D6_D6*%
%TO.N,Net-(J1-Pin_11)*%
X132079881Y-84870000D03*
%TO.P,A1,D7,D7_D7*%
%TO.N,Net-(J1-Pin_12)*%
X129539881Y-84870000D03*
%TO.P,A1,D8,D8_D8*%
%TO.N,Net-(J1-Pin_13)*%
X125475881Y-84870000D03*
%TO.P,A1,D9,D9_D9*%
%TO.N,Net-(J1-Pin_14)*%
X122935881Y-84870000D03*
%TO.P,A1,D10,D10_D10*%
%TO.N,/DI*%
X120395881Y-84870000D03*
%TO.P,A1,D11,D11_D11*%
%TO.N,/EN*%
X117855881Y-84870000D03*
%TO.P,A1,D12,D12_D12*%
%TO.N,/CS1*%
X115315881Y-84870000D03*
%TO.P,A1,D13,D13_D13*%
%TO.N,/CS2*%
X112775881Y-84870000D03*
%TO.P,A1,ESP1,ESP_42_ESP1*%
%TO.N,unconnected-(A1-ESP_42-PadESP1)*%
X105155881Y-92490000D03*
%TO.P,A1,ESP2,ESP_41_ESP2*%
%TO.N,unconnected-(A1-ESP_41-PadESP2)*%
X105155881Y-94976010D03*
%TO.P,A1,ESP3,ESP_TX_ESP3*%
%TO.N,unconnected-(A1-ESP_TX-PadESP3)*%
X102615881Y-92490000D03*
%TO.P,A1,ESP4,DWNLD_ESP4*%
%TO.N,unconnected-(A1-DWNLD-PadESP4)*%
X102615881Y-94976010D03*
%TO.P,A1,ESP5,ESP_RX_ESP5*%
%TO.N,unconnected-(A1-ESP_RX-PadESP5)*%
X100075881Y-92436010D03*
D12*
%TO.P,A1,GND1,GND_GND1*%
%TO.N,GND*%
X110235881Y-84870000D03*
%TO.P,A1,GND2,GND_GND2*%
X124459881Y-133130000D03*
%TO.P,A1,GND3,GND_GND3*%
X126999881Y-133130000D03*
%TO.P,A1,GND4,GND_GND4*%
X100075881Y-94976010D03*
X149986881Y-110270000D03*
%TO.P,A1,GND5,GND_GND5*%
%TO.N,unconnected-(A1-GND-PadGND5)*%
X104139881Y-133130000D03*
D11*
%TO.P,A1,IORF,IOREF_IORF*%
%TO.N,unconnected-(A1-IOREF-PadIORF)*%
X114299881Y-133130000D03*
%TO.P,A1,MISO,SPI_MISO_MISO*%
%TO.N,unconnected-(A1-SPI_MISO-PadMISO)*%
X147446881Y-105190000D03*
%TO.P,A1,MOSI,SPI_MOSI_MOSI*%
%TO.N,unconnected-(A1-SPI_MOSI-PadMOSI)*%
X149986881Y-107730000D03*
%TO.P,A1,OFF,OFF_OFF*%
%TO.N,unconnected-(A1-PadOFF)*%
X101599881Y-133130000D03*
%TO.P,A1,RST1,RESET_RST1*%
%TO.N,unconnected-(A1-RESET-PadRST1)*%
X116839881Y-133130000D03*
%TO.P,A1,RST2,SPI_RESET_RST2*%
%TO.N,unconnected-(A1-SPI_RESET-PadRST2)*%
X147446881Y-110270000D03*
%TO.P,A1,SCK,SPI_SCK_SCK*%
%TO.N,unconnected-(A1-SPI_SCK-PadSCK)*%
X147446881Y-107730000D03*
%TO.P,A1,SCL,SCL_SCL*%
%TO.N,Net-(J2-Pin_3)*%
X102615881Y-84870000D03*
%TO.P,A1,SDA,SDA_SDA*%
%TO.N,Net-(J2-Pin_4)*%
X105155881Y-84870000D03*
%TO.P,A1,VBAT,VRTC_VBAT*%
%TO.N,unconnected-(A1-VRTC-PadVBAT)*%
X106679881Y-133130000D03*
%TO.P,A1,VIN,VIN_VIN*%
%TO.N,unconnected-(A1-PadVIN)*%
X129539881Y-133130000D03*
%TD*%
D13*
%TO.P,J1,1,Pin_1_1*%
%TO.N,GND*%
X133760000Y-143500000D03*
D14*
%TO.P,J1,2,Pin_2_2*%
%TO.N,+5V*%
X131220000Y-143500000D03*
%TO.P,J1,3,Pin_3_3*%
%TO.N,/VO*%
X128680000Y-143500000D03*
%TO.P,J1,4,Pin_4_4*%
%TO.N,/DI*%
X126140000Y-143500000D03*
%TO.P,J1,5,Pin_5_5*%
%TO.N,GND*%
X123600000Y-143500000D03*
%TO.P,J1,6,Pin_6_6*%
%TO.N,/EN*%
X121060000Y-143500000D03*
%TO.P,J1,7,Pin_7_7*%
%TO.N,Net-(J1-Pin_7)*%
X118520000Y-143500000D03*
%TO.P,J1,8,Pin_8_8*%
%TO.N,Net-(J1-Pin_8)*%
X115980000Y-143500000D03*
%TO.P,J1,9,Pin_9_9*%
%TO.N,Net-(J1-Pin_9)*%
X113440000Y-143500000D03*
%TO.P,J1,10,Pin_10_10*%
%TO.N,Net-(J1-Pin_10)*%
X110900000Y-143500000D03*
%TO.P,J1,11,Pin_11_11*%
%TO.N,Net-(J1-Pin_11)*%
X108360000Y-143500000D03*
%TO.P,J1,12,Pin_12_12*%
%TO.N,Net-(J1-Pin_12)*%
X105820000Y-143500000D03*
%TO.P,J1,13,Pin_13_13*%
%TO.N,Net-(J1-Pin_13)*%
X103280000Y-143500000D03*
%TO.P,J1,14,Pin_14_14*%
%TO.N,Net-(J1-Pin_14)*%
X100740000Y-143500000D03*
%TO.P,J1,15,Pin_15_15*%
%TO.N,/CS1*%
X98200000Y-143500000D03*
%TO.P,J1,16,Pin_16_16*%
%TO.N,/CS2*%
X95660000Y-143500000D03*
%TO.P,J1,17,Pin_17_17*%
%TO.N,/RES*%
X93120000Y-143500000D03*
%TO.P,J1,18,Pin_18_18*%
%TO.N,/VOUT*%
X90580000Y-143500000D03*
%TO.P,J1,19,Pin_19_19*%
%TO.N,+5V*%
X88040000Y-143500000D03*
%TO.P,J1,20,Pin_20_20*%
%TO.N,GND*%
X85500000Y-143500000D03*
%TD*%
D10*
%TO.P,REF\u002A\u002A,1*%
%TO.N,N/C*%
X162000000Y-78500000D03*
%TD*%
D15*
%TO.P,RV1,1,1_1*%
%TO.N,/VOUT*%
X160000000Y-86400000D03*
D16*
%TO.P,RV1,2,2_2*%
%TO.N,/VO*%
X157500000Y-91400000D03*
%TO.P,RV1,3,3_3*%
%TO.N,+5V*%
X155000000Y-86400000D03*
%TD*%
D13*
%TO.P,J2,1,Pin_1_1*%
%TO.N,GND*%
X160800000Y-124790000D03*
D14*
%TO.P,J2,2,Pin_2_2*%
%TO.N,+5V*%
X160800000Y-127330000D03*
%TO.P,J2,3,Pin_3_3*%
%TO.N,Net-(J2-Pin_3)*%
X160800000Y-129870000D03*
%TO.P,J2,4,Pin_4_4*%
%TO.N,Net-(J2-Pin_4)*%
X160800000Y-132410000D03*
%TD*%
D17*
%TO.N,/RES*%
X127450000Y-130650000D03*
X125750000Y-128950000D03*
X108450000Y-134850000D03*
%TO.N,+5V*%
X127000000Y-135200000D03*
%TO.N,Net-(J2-Pin_3)*%
X111400000Y-82200000D03*
%TO.N,/VOUT*%
X128500000Y-109700000D03*
X90600000Y-134600000D03*
X126400000Y-123000000D03*
%TD*%
%TO.N,/RES*%
D18*
X127450000Y-130650000D02*
X132139881Y-130650000D01*
X132139881Y-130650000D02*
X134619881Y-133130000D01*
X120756281Y-132648021D02*
X124454302Y-128950000D01*
X120756281Y-133611979D02*
X120756281Y-132648021D01*
X119518260Y-134850000D02*
X120756281Y-133611979D01*
X124454302Y-128950000D02*
X125750000Y-128950000D01*
X108450000Y-134850000D02*
X119518260Y-134850000D01*
%TO.N,+5V*%
X121200000Y-138600000D02*
X121919881Y-137880119D01*
X88040000Y-143500000D02*
X86140000Y-145400000D01*
X84000000Y-144800000D02*
X84000000Y-140600000D01*
X131220000Y-143500000D02*
X127000000Y-139280000D01*
X86140000Y-145400000D02*
X84600000Y-145400000D01*
X121919881Y-137880119D02*
X121919881Y-133130000D01*
X84000000Y-140600000D02*
X86000000Y-138600000D01*
X84600000Y-145400000D02*
X84000000Y-144800000D01*
X86000000Y-138600000D02*
X121200000Y-138600000D01*
X127000000Y-139280000D02*
X127000000Y-135200000D01*
%TO.N,/DI*%
X120395881Y-92795881D02*
X120395881Y-84870000D01*
X127400000Y-129200000D02*
X127400000Y-99800000D01*
X126140000Y-143500000D02*
X126600000Y-143040000D01*
X126600000Y-143040000D02*
X126600000Y-135648529D01*
X125800000Y-130800000D02*
X127400000Y-129200000D01*
X127400000Y-99800000D02*
X120395881Y-92795881D01*
X125800000Y-134848529D02*
X125800000Y-130800000D01*
X126600000Y-135648529D02*
X125800000Y-134848529D01*
%TO.N,GND*%
X160800000Y-121083119D02*
X149986881Y-110270000D01*
X124459881Y-142640119D02*
X124459881Y-139000000D01*
X90000000Y-139000000D02*
X124459881Y-139000000D01*
X124459881Y-139000000D02*
X124459881Y-133130000D01*
X157010000Y-124790000D02*
X154800000Y-127000000D01*
X160800000Y-124790000D02*
X160800000Y-121083119D01*
X160800000Y-124790000D02*
X157010000Y-124790000D01*
X85500000Y-143500000D02*
X90000000Y-139000000D01*
X123600000Y-143500000D02*
X124459881Y-142640119D01*
X154800000Y-139000000D02*
X150300000Y-143500000D01*
X133760000Y-139890119D02*
X126999881Y-133130000D01*
X133760000Y-143500000D02*
X133760000Y-139890119D01*
X150300000Y-143500000D02*
X133760000Y-143500000D01*
X154800000Y-127000000D02*
X154800000Y-139000000D01*
%TO.N,Net-(J2-Pin_3)*%
X160800000Y-129870000D02*
X163000000Y-127670000D01*
X162134314Y-82800000D02*
X152400000Y-82800000D01*
X163000000Y-127670000D02*
X163000000Y-83665686D01*
X152400000Y-82800000D02*
X150200000Y-80600000D01*
X113000000Y-80600000D02*
X111400000Y-82200000D01*
X163000000Y-83665686D02*
X162134314Y-82800000D01*
X150200000Y-80600000D02*
X113000000Y-80600000D01*
%TO.N,Net-(J2-Pin_4)*%
X163400000Y-129810000D02*
X163400000Y-83500000D01*
X162300000Y-82400000D02*
X152600000Y-82400000D01*
X160800000Y-132410000D02*
X163400000Y-129810000D01*
X163400000Y-83500000D02*
X162300000Y-82400000D01*
X152600000Y-82400000D02*
X150400000Y-80200000D01*
X150400000Y-80200000D02*
X109825881Y-80200000D01*
X109825881Y-80200000D02*
X105155881Y-84870000D01*
%TO.N,/VOUT*%
X153600000Y-84600000D02*
X158200000Y-84600000D01*
X96400000Y-128800000D02*
X120600000Y-128800000D01*
X128500000Y-109700000D02*
X153600000Y-84600000D01*
X120600000Y-128800000D02*
X126400000Y-123000000D01*
X158200000Y-84600000D02*
X160000000Y-86400000D01*
X90600000Y-134600000D02*
X96400000Y-128800000D01*
%TD*%
%TA.AperFunction,NonConductor*%
G36*
X148795923Y-105878125D02*
G01*
X148816359Y-105901709D01*
X148817334Y-105901002D01*
X148820197Y-105904943D01*
X148820198Y-105904944D01*
X148946404Y-106078651D01*
X149098230Y-106230477D01*
X149271937Y-106356683D01*
X149275879Y-106359547D01*
X149274505Y-106361437D01*
X149314911Y-106406152D01*
X149326292Y-106475089D01*
X149298596Y-106539235D01*
X149275195Y-106559511D01*
X149275879Y-106560453D01*
X149271937Y-106563316D01*
X149271937Y-106563317D01*
X149098230Y-106689523D01*
X149098228Y-106689525D01*
X149098227Y-106689525D01*
X148946406Y-106841346D01*
X148946406Y-106841347D01*
X148946404Y-106841349D01*
X148820199Y-107015055D01*
X148817334Y-107018998D01*
X148815443Y-107017624D01*
X148770729Y-107058030D01*
X148701792Y-107069411D01*
X148637646Y-107041715D01*
X148617369Y-107018314D01*
X148616428Y-107018998D01*
X148613563Y-107015055D01*
X148487358Y-106841349D01*
X148335532Y-106689523D01*
X148161825Y-106563317D01*
X148161824Y-106563316D01*
X148157883Y-106560453D01*
X148159286Y-106558521D01*
X148118959Y-106514073D01*
X148107439Y-106445160D01*
X148135006Y-106380958D01*
X148158590Y-106360521D01*
X148157883Y-106359547D01*
X148161825Y-106356683D01*
X148335532Y-106230477D01*
X148487358Y-106078651D01*
X148613564Y-105904944D01*
X148613564Y-105904943D01*
X148616428Y-105901002D01*
X148618359Y-105902405D01*
X148662808Y-105862078D01*
X148731721Y-105850558D01*
X148795923Y-105878125D01*
G37*
%TD.AperFunction*%
%TA.AperFunction,NonConductor*%
G36*
X148734415Y-108391714D02*
G01*
X148737326Y-108391364D01*
X148766326Y-108405417D01*
X148795923Y-108418125D01*
X148798362Y-108420940D01*
X148800202Y-108421832D01*
X148816538Y-108441579D01*
X148817334Y-108441002D01*
X148820197Y-108444943D01*
X148820198Y-108444944D01*
X148946404Y-108618651D01*
X148946406Y-108618653D01*
X149042704Y-108714951D01*
X149076189Y-108776274D01*
X149071205Y-108845966D01*
X149029333Y-108901899D01*
X148998356Y-108918814D01*
X148880952Y-108962602D01*
X148880945Y-108962606D01*
X148765736Y-109048852D01*
X148765733Y-109048855D01*
X148679487Y-109164064D01*
X148679483Y-109164071D01*
X148635695Y-109281475D01*
X148593824Y-109337409D01*
X148528360Y-109361826D01*
X148460087Y-109346974D01*
X148431832Y-109325823D01*
X148335534Y-109229525D01*
X148335532Y-109229523D01*
X148161825Y-109103317D01*
X148161824Y-109103316D01*
X148157883Y-109100453D01*
X148159286Y-109098521D01*
X148118959Y-109054073D01*
X148107439Y-108985160D01*
X148135006Y-108920958D01*
X148158590Y-108900521D01*
X148157883Y-108899547D01*
X148161825Y-108896683D01*
X148335532Y-108770477D01*
X148487358Y-108618651D01*
X148613564Y-108444944D01*
X148613564Y-108444943D01*
X148616428Y-108441002D01*
X148617299Y-108441635D01*
X148638954Y-108423720D01*
X148662808Y-108402078D01*
X148665699Y-108401594D01*
X148667958Y-108399726D01*
X148699940Y-108395870D01*
X148731721Y-108390558D01*
X148734415Y-108391714D01*
G37*
%TD.AperFunction*%
%TA.AperFunction,NonConductor*%
G36*
X162718834Y-128902914D02*
G01*
X162774767Y-128944786D01*
X162799184Y-129010250D01*
X162799500Y-129019096D01*
X162799500Y-129509902D01*
X162779815Y-129576941D01*
X162763181Y-129597583D01*
X162362181Y-129998583D01*
X162300858Y-130032068D01*
X162231166Y-130027084D01*
X162175233Y-129985212D01*
X162150816Y-129919748D01*
X162150500Y-129910902D01*
X162150500Y-129763713D01*
X162145018Y-129729104D01*
X162117246Y-129553757D01*
X162103506Y-129511473D01*
X162101512Y-129441635D01*
X162133755Y-129385478D01*
X162587820Y-128931414D01*
X162649142Y-128897930D01*
X162718834Y-128902914D01*
G37*
%TD.AperFunction*%
%TA.AperFunction,NonConductor*%
G36*
X125188377Y-129555827D02*
G01*
X125207287Y-129556165D01*
X125235504Y-129569665D01*
X125237273Y-129570185D01*
X125239125Y-129571398D01*
X125370814Y-129659390D01*
X125370827Y-129659397D01*
X125500774Y-129713222D01*
X125516503Y-129719737D01*
X125617884Y-129739903D01*
X125671153Y-129750499D01*
X125671156Y-129750500D01*
X125700902Y-129750500D01*
X125767941Y-129770185D01*
X125813696Y-129822989D01*
X125823640Y-129892147D01*
X125794615Y-129955703D01*
X125788583Y-129962181D01*
X125319481Y-130431282D01*
X125319475Y-130431290D01*
X125275314Y-130507781D01*
X125275314Y-130507782D01*
X125240423Y-130568215D01*
X125199499Y-130720943D01*
X125199499Y-130720945D01*
X125199499Y-130889046D01*
X125199500Y-130889059D01*
X125199500Y-131641900D01*
X125179815Y-131708939D01*
X125127011Y-131754694D01*
X125075500Y-131765900D01*
X123548410Y-131765900D01*
X123548404Y-131765901D01*
X123488797Y-131772308D01*
X123353952Y-131822602D01*
X123353945Y-131822606D01*
X123238736Y-131908852D01*
X123238733Y-131908855D01*
X123152487Y-132024064D01*
X123152483Y-132024071D01*
X123108695Y-132141475D01*
X123066824Y-132197409D01*
X123001360Y-132221826D01*
X122933087Y-132206974D01*
X122904832Y-132185823D01*
X122808534Y-132089525D01*
X122808532Y-132089523D01*
X122718436Y-132024064D01*
X122634823Y-131963315D01*
X122558605Y-131924480D01*
X122507810Y-131876506D01*
X122491015Y-131808685D01*
X122513553Y-131742550D01*
X122527214Y-131726321D01*
X124666718Y-129586819D01*
X124728041Y-129553334D01*
X124754399Y-129550500D01*
X125170234Y-129550500D01*
X125188377Y-129555827D01*
G37*
%TD.AperFunction*%
%TA.AperFunction,NonConductor*%
G36*
X118188923Y-133818125D02*
G01*
X118209359Y-133841709D01*
X118210334Y-133841002D01*
X118213197Y-133844943D01*
X118213198Y-133844944D01*
X118339404Y-134018651D01*
X118339406Y-134018653D01*
X118358572Y-134037819D01*
X118392057Y-134099142D01*
X118387073Y-134168834D01*
X118345201Y-134224767D01*
X118279737Y-134249184D01*
X118270891Y-134249500D01*
X117948871Y-134249500D01*
X117881832Y-134229815D01*
X117836077Y-134177011D01*
X117826133Y-134107853D01*
X117855158Y-134044297D01*
X117861190Y-134037819D01*
X117880358Y-134018651D01*
X118006564Y-133844944D01*
X118006564Y-133844943D01*
X118009428Y-133841002D01*
X118011359Y-133842405D01*
X118055808Y-133802078D01*
X118124721Y-133790558D01*
X118188923Y-133818125D01*
G37*
%TD.AperFunction*%
%TA.AperFunction,NonConductor*%
G36*
X115648923Y-133818125D02*
G01*
X115669359Y-133841709D01*
X115670334Y-133841002D01*
X115673197Y-133844943D01*
X115673198Y-133844944D01*
X115799404Y-134018651D01*
X115799406Y-134018653D01*
X115818572Y-134037819D01*
X115852057Y-134099142D01*
X115847073Y-134168834D01*
X115805201Y-134224767D01*
X115739737Y-134249184D01*
X115730891Y-134249500D01*
X115408871Y-134249500D01*
X115341832Y-134229815D01*
X115296077Y-134177011D01*
X115286133Y-134107853D01*
X115315158Y-134044297D01*
X115321190Y-134037819D01*
X115340358Y-134018651D01*
X115466564Y-133844944D01*
X115466564Y-133844943D01*
X115469428Y-133841002D01*
X115471359Y-133842405D01*
X115515808Y-133802078D01*
X115584721Y-133790558D01*
X115648923Y-133818125D01*
G37*
%TD.AperFunction*%
%TA.AperFunction,NonConductor*%
G36*
X113108923Y-133818125D02*
G01*
X113129359Y-133841709D01*
X113130334Y-133841002D01*
X113133197Y-133844943D01*
X113133198Y-133844944D01*
X113259404Y-134018651D01*
X113259406Y-134018653D01*
X113278572Y-134037819D01*
X113312057Y-134099142D01*
X113307073Y-134168834D01*
X113265201Y-134224767D01*
X113199737Y-134249184D01*
X113190891Y-134249500D01*
X112868871Y-134249500D01*
X112801832Y-134229815D01*
X112756077Y-134177011D01*
X112746133Y-134107853D01*
X112775158Y-134044297D01*
X112781190Y-134037819D01*
X112800358Y-134018651D01*
X112926564Y-133844944D01*
X112926564Y-133844943D01*
X112929428Y-133841002D01*
X112931359Y-133842405D01*
X112975808Y-133802078D01*
X113044721Y-133790558D01*
X113108923Y-133818125D01*
G37*
%TD.AperFunction*%
%TA.AperFunction,NonConductor*%
G36*
X122975458Y-134041356D02*
G01*
X123035846Y-134045675D01*
X123091780Y-134087546D01*
X123108695Y-134118524D01*
X123152483Y-134235928D01*
X123152487Y-134235935D01*
X123238733Y-134351144D01*
X123238736Y-134351147D01*
X123353945Y-134437393D01*
X123353952Y-134437397D01*
X123363237Y-134440860D01*
X123488798Y-134487691D01*
X123548408Y-134494100D01*
X123735381Y-134494099D01*
X123802420Y-134513783D01*
X123848175Y-134566587D01*
X123859381Y-134618099D01*
X123859381Y-138275500D01*
X123839696Y-138342539D01*
X123786892Y-138388294D01*
X123735381Y-138399500D01*
X122528189Y-138399500D01*
X122461150Y-138379815D01*
X122415395Y-138327011D01*
X122405451Y-138257853D01*
X122420801Y-138213501D01*
X122425801Y-138204839D01*
X122479458Y-138111903D01*
X122520381Y-137959176D01*
X122520381Y-134430982D01*
X122540066Y-134363943D01*
X122588087Y-134320497D01*
X122634823Y-134296684D01*
X122634822Y-134296684D01*
X122634825Y-134296683D01*
X122808532Y-134170477D01*
X122904836Y-134074172D01*
X122926047Y-134062591D01*
X122966154Y-134040691D01*
X122966156Y-134040691D01*
X122975458Y-134041356D01*
G37*
%TD.AperFunction*%
%TA.AperFunction,NonConductor*%
G36*
X88717942Y-139220185D02*
G01*
X88763697Y-139272989D01*
X88773641Y-139342147D01*
X88744616Y-139405703D01*
X88738584Y-139412181D01*
X85984522Y-142166241D01*
X85923199Y-142199726D01*
X85858523Y-142196491D01*
X85816245Y-142182754D01*
X85676272Y-142160584D01*
X85606287Y-142149500D01*
X85393713Y-142149500D01*
X85345042Y-142157208D01*
X85183760Y-142182753D01*
X84981585Y-142248444D01*
X84792175Y-142344953D01*
X84789279Y-142346728D01*
X84788030Y-142347065D01*
X84787843Y-142347161D01*
X84787822Y-142347121D01*
X84721831Y-142364965D01*
X84655231Y-142343842D01*
X84610623Y-142290066D01*
X84600500Y-142240994D01*
X84600500Y-140900097D01*
X84620185Y-140833058D01*
X84636819Y-140812416D01*
X86212416Y-139236819D01*
X86273739Y-139203334D01*
X86300097Y-139200500D01*
X88650903Y-139200500D01*
X88717942Y-139220185D01*
G37*
%TD.AperFunction*%
%TA.AperFunction,NonConductor*%
G36*
X125265584Y-135137533D02*
G01*
X125291769Y-135169247D01*
X125319479Y-135217243D01*
X125319481Y-135217246D01*
X125438349Y-135336114D01*
X125438355Y-135336119D01*
X125963181Y-135860945D01*
X125996666Y-135922268D01*
X125999500Y-135948626D01*
X125999500Y-142049012D01*
X125979815Y-142116051D01*
X125927011Y-142161806D01*
X125894900Y-142171485D01*
X125823758Y-142182753D01*
X125621585Y-142248444D01*
X125432184Y-142344948D01*
X125257266Y-142472033D01*
X125191459Y-142495512D01*
X125123405Y-142479686D01*
X125074711Y-142429580D01*
X125060381Y-142371714D01*
X125060381Y-135231246D01*
X125080066Y-135164207D01*
X125132870Y-135118452D01*
X125202028Y-135108508D01*
X125265584Y-135137533D01*
G37*
%TD.AperFunction*%
%TA.AperFunction,NonConductor*%
G36*
X127978477Y-134964079D02*
G01*
X128004799Y-134984153D01*
X133123181Y-140102535D01*
X133156666Y-140163858D01*
X133159500Y-140190216D01*
X133159500Y-142025500D01*
X133139815Y-142092539D01*
X133087011Y-142138294D01*
X133035501Y-142149500D01*
X132862130Y-142149500D01*
X132862123Y-142149501D01*
X132802516Y-142155908D01*
X132667671Y-142206202D01*
X132667664Y-142206206D01*
X132552455Y-142292452D01*
X132552452Y-142292455D01*
X132466206Y-142407664D01*
X132466203Y-142407669D01*
X132417189Y-142539083D01*
X132375317Y-142595016D01*
X132309853Y-142619433D01*
X132241580Y-142604581D01*
X132213326Y-142583430D01*
X132099786Y-142469890D01*
X131927820Y-142344951D01*
X131738414Y-142248444D01*
X131738413Y-142248443D01*
X131738412Y-142248443D01*
X131536243Y-142182754D01*
X131536241Y-142182753D01*
X131536240Y-142182753D01*
X131374957Y-142157208D01*
X131326287Y-142149500D01*
X131113713Y-142149500D01*
X131085006Y-142154046D01*
X130903757Y-142182753D01*
X130861473Y-142196492D01*
X130791632Y-142198486D01*
X130735476Y-142166241D01*
X127636819Y-139067584D01*
X127603334Y-139006261D01*
X127600500Y-138979903D01*
X127600500Y-135779765D01*
X127620185Y-135712726D01*
X127621398Y-135710874D01*
X127709390Y-135579185D01*
X127709390Y-135579184D01*
X127709394Y-135579179D01*
X127769737Y-135433497D01*
X127800500Y-135278842D01*
X127800500Y-135121158D01*
X127795501Y-135096026D01*
X127801728Y-135026435D01*
X127844590Y-134971257D01*
X127910479Y-134948012D01*
X127978477Y-134964079D01*
G37*
%TD.AperFunction*%
%TA.AperFunction,NonConductor*%
G36*
X127405703Y-140535384D02*
G01*
X127412181Y-140541416D01*
X128808584Y-141937819D01*
X128842069Y-141999142D01*
X128837085Y-142068834D01*
X128795213Y-142124767D01*
X128729749Y-142149184D01*
X128720903Y-142149500D01*
X128573713Y-142149500D01*
X128525042Y-142157208D01*
X128363760Y-142182753D01*
X128161585Y-142248444D01*
X127972179Y-142344951D01*
X127800213Y-142469890D01*
X127649890Y-142620213D01*
X127524949Y-142792182D01*
X127520484Y-142800946D01*
X127517699Y-142803893D01*
X127516701Y-142807823D01*
X127493909Y-142829082D01*
X127472509Y-142851742D01*
X127468573Y-142852716D01*
X127465609Y-142855482D01*
X127434939Y-142861045D01*
X127404688Y-142868536D01*
X127400850Y-142867228D01*
X127396861Y-142867952D01*
X127368054Y-142856051D01*
X127338553Y-142845998D01*
X127334955Y-142842378D01*
X127332285Y-142841275D01*
X127325228Y-142832590D01*
X127308210Y-142815466D01*
X127303366Y-142808503D01*
X127295051Y-142792184D01*
X127223445Y-142693625D01*
X127222710Y-142692569D01*
X127212027Y-142660572D01*
X127200702Y-142628830D01*
X127200634Y-142626447D01*
X127200583Y-142626295D01*
X127200624Y-142626130D01*
X127200500Y-142621753D01*
X127200500Y-140629097D01*
X127220185Y-140562058D01*
X127272989Y-140516303D01*
X127342147Y-140506359D01*
X127405703Y-140535384D01*
G37*
%TD.AperFunction*%
%TA.AperFunction,NonConductor*%
G36*
X123802420Y-139620185D02*
G01*
X123848175Y-139672989D01*
X123859381Y-139724500D01*
X123859381Y-142028562D01*
X123839696Y-142095601D01*
X123786892Y-142141356D01*
X123717734Y-142151300D01*
X123715983Y-142151035D01*
X123706291Y-142149500D01*
X123706287Y-142149500D01*
X123493713Y-142149500D01*
X123445042Y-142157208D01*
X123283760Y-142182753D01*
X123081585Y-142248444D01*
X122892179Y-142344951D01*
X122720213Y-142469890D01*
X122569890Y-142620213D01*
X122444949Y-142792182D01*
X122440484Y-142800946D01*
X122392509Y-142851742D01*
X122324688Y-142868536D01*
X122258553Y-142845998D01*
X122219516Y-142800946D01*
X122215050Y-142792182D01*
X122090109Y-142620213D01*
X121939786Y-142469890D01*
X121767820Y-142344951D01*
X121578414Y-142248444D01*
X121578413Y-142248443D01*
X121578412Y-142248443D01*
X121376243Y-142182754D01*
X121376241Y-142182753D01*
X121376240Y-142182753D01*
X121214957Y-142157208D01*
X121166287Y-142149500D01*
X120953713Y-142149500D01*
X120905042Y-142157208D01*
X120743760Y-142182753D01*
X120541585Y-142248444D01*
X120352179Y-142344951D01*
X120180213Y-142469890D01*
X120029890Y-142620213D01*
X119904949Y-142792182D01*
X119900484Y-142800946D01*
X119852509Y-142851742D01*
X119784688Y-142868536D01*
X119718553Y-142845998D01*
X119679516Y-142800946D01*
X119675050Y-142792182D01*
X119550109Y-142620213D01*
X119399786Y-142469890D01*
X119227820Y-142344951D01*
X119038414Y-142248444D01*
X119038413Y-142248443D01*
X119038412Y-142248443D01*
X118836243Y-142182754D01*
X118836241Y-142182753D01*
X118836240Y-142182753D01*
X118674957Y-142157208D01*
X118626287Y-142149500D01*
X118413713Y-142149500D01*
X118365042Y-142157208D01*
X118203760Y-142182753D01*
X118001585Y-142248444D01*
X117812179Y-142344951D01*
X117640213Y-142469890D01*
X117489890Y-142620213D01*
X117364949Y-142792182D01*
X117360484Y-142800946D01*
X117312509Y-142851742D01*
X117244688Y-142868536D01*
X117178553Y-142845998D01*
X117139516Y-142800946D01*
X117135050Y-142792182D01*
X117010109Y-142620213D01*
X116859786Y-142469890D01*
X116687820Y-142344951D01*
X116498414Y-142248444D01*
X116498413Y-142248443D01*
X116498412Y-142248443D01*
X116296243Y-142182754D01*
X116296241Y-142182753D01*
X116296240Y-142182753D01*
X116134957Y-142157208D01*
X116086287Y-142149500D01*
X115873713Y-142149500D01*
X115825042Y-142157208D01*
X115663760Y-142182753D01*
X115461585Y-142248444D01*
X115272179Y-142344951D01*
X115100213Y-142469890D01*
X114949890Y-142620213D01*
X114824949Y-142792182D01*
X114820484Y-142800946D01*
X114772509Y-142851742D01*
X114704688Y-142868536D01*
X114638553Y-142845998D01*
X114599516Y-142800946D01*
X114595050Y-142792182D01*
X114470109Y-142620213D01*
X114319786Y-142469890D01*
X114147820Y-142344951D01*
X113958414Y-142248444D01*
X113958413Y-142248443D01*
X113958412Y-142248443D01*
X113756243Y-142182754D01*
X113756241Y-142182753D01*
X113756240Y-142182753D01*
X113594957Y-142157208D01*
X113546287Y-142149500D01*
X113333713Y-142149500D01*
X113285042Y-142157208D01*
X113123760Y-142182753D01*
X112921585Y-142248444D01*
X112732179Y-142344951D01*
X112560213Y-142469890D01*
X112409890Y-142620213D01*
X112284949Y-142792182D01*
X112280484Y-142800946D01*
X112232509Y-142851742D01*
X112164688Y-142868536D01*
X112098553Y-142845998D01*
X112059516Y-142800946D01*
X112055050Y-142792182D01*
X111930109Y-142620213D01*
X111779786Y-142469890D01*
X111607820Y-142344951D01*
X111418414Y-142248444D01*
X111418413Y-142248443D01*
X111418412Y-142248443D01*
X111216243Y-142182754D01*
X111216241Y-142182753D01*
X111216240Y-142182753D01*
X111054957Y-142157208D01*
X111006287Y-142149500D01*
X110793713Y-142149500D01*
X110745042Y-142157208D01*
X110583760Y-142182753D01*
X110381585Y-142248444D01*
X110192179Y-142344951D01*
X110020213Y-142469890D01*
X109869890Y-142620213D01*
X109744949Y-142792182D01*
X109740484Y-142800946D01*
X109692509Y-142851742D01*
X109624688Y-142868536D01*
X109558553Y-142845998D01*
X109519516Y-142800946D01*
X109515050Y-142792182D01*
X109390109Y-142620213D01*
X109239786Y-142469890D01*
X109067820Y-142344951D01*
X108878414Y-142248444D01*
X108878413Y-142248443D01*
X108878412Y-142248443D01*
X108676243Y-142182754D01*
X108676241Y-142182753D01*
X108676240Y-142182753D01*
X108514957Y-142157208D01*
X108466287Y-142149500D01*
X108253713Y-142149500D01*
X108205042Y-142157208D01*
X108043760Y-142182753D01*
X107841585Y-142248444D01*
X107652179Y-142344951D01*
X107480213Y-142469890D01*
X107329890Y-142620213D01*
X107204949Y-142792182D01*
X107200484Y-142800946D01*
X107152509Y-142851742D01*
X107084688Y-142868536D01*
X107018553Y-142845998D01*
X106979516Y-142800946D01*
X106975050Y-142792182D01*
X106850109Y-142620213D01*
X106699786Y-142469890D01*
X106527820Y-142344951D01*
X106338414Y-142248444D01*
X106338413Y-142248443D01*
X106338412Y-142248443D01*
X106136243Y-142182754D01*
X106136241Y-142182753D01*
X106136240Y-142182753D01*
X105974957Y-142157208D01*
X105926287Y-142149500D01*
X105713713Y-142149500D01*
X105665042Y-142157208D01*
X105503760Y-142182753D01*
X105301585Y-142248444D01*
X105112179Y-142344951D01*
X104940213Y-142469890D01*
X104789890Y-142620213D01*
X104664949Y-142792182D01*
X104660484Y-142800946D01*
X104612509Y-142851742D01*
X104544688Y-142868536D01*
X104478553Y-142845998D01*
X104439516Y-142800946D01*
X104435050Y-142792182D01*
X104310109Y-142620213D01*
X104159786Y-142469890D01*
X103987820Y-142344951D01*
X103798414Y-142248444D01*
X103798413Y-142248443D01*
X103798412Y-142248443D01*
X103596243Y-142182754D01*
X103596241Y-142182753D01*
X103596240Y-142182753D01*
X103434957Y-142157208D01*
X103386287Y-142149500D01*
X103173713Y-142149500D01*
X103125042Y-142157208D01*
X102963760Y-142182753D01*
X102761585Y-142248444D01*
X102572179Y-142344951D01*
X102400213Y-142469890D01*
X102249890Y-142620213D01*
X102124949Y-142792182D01*
X102120484Y-142800946D01*
X102072509Y-142851742D01*
X102004688Y-142868536D01*
X101938553Y-142845998D01*
X101899516Y-142800946D01*
X101895050Y-142792182D01*
X101770109Y-142620213D01*
X101619786Y-142469890D01*
X101447820Y-142344951D01*
X101258414Y-142248444D01*
X101258413Y-142248443D01*
X101258412Y-142248443D01*
X101056243Y-142182754D01*
X101056241Y-142182753D01*
X101056240Y-142182753D01*
X100894957Y-142157208D01*
X100846287Y-142149500D01*
X100633713Y-142149500D01*
X100585042Y-142157208D01*
X100423760Y-142182753D01*
X100221585Y-142248444D01*
X100032179Y-142344951D01*
X99860213Y-142469890D01*
X99709890Y-142620213D01*
X99584949Y-142792182D01*
X99580484Y-142800946D01*
X99532509Y-142851742D01*
X99464688Y-142868536D01*
X99398553Y-142845998D01*
X99359516Y-142800946D01*
X99355050Y-142792182D01*
X99230109Y-142620213D01*
X99079786Y-142469890D01*
X98907820Y-142344951D01*
X98718414Y-142248444D01*
X98718413Y-142248443D01*
X98718412Y-142248443D01*
X98516243Y-142182754D01*
X98516241Y-142182753D01*
X98516240Y-142182753D01*
X98354957Y-142157208D01*
X98306287Y-142149500D01*
X98093713Y-142149500D01*
X98045042Y-142157208D01*
X97883760Y-142182753D01*
X97681585Y-142248444D01*
X97492179Y-142344951D01*
X97320213Y-142469890D01*
X97169890Y-142620213D01*
X97044949Y-142792182D01*
X97040484Y-142800946D01*
X96992509Y-142851742D01*
X96924688Y-142868536D01*
X96858553Y-142845998D01*
X96819516Y-142800946D01*
X96815050Y-142792182D01*
X96690109Y-142620213D01*
X96539786Y-142469890D01*
X96367820Y-142344951D01*
X96178414Y-142248444D01*
X96178413Y-142248443D01*
X96178412Y-142248443D01*
X95976243Y-142182754D01*
X95976241Y-142182753D01*
X95976240Y-142182753D01*
X95814957Y-142157208D01*
X95766287Y-142149500D01*
X95553713Y-142149500D01*
X95505042Y-142157208D01*
X95343760Y-142182753D01*
X95141585Y-142248444D01*
X94952179Y-142344951D01*
X94780213Y-142469890D01*
X94629890Y-142620213D01*
X94504949Y-142792182D01*
X94500484Y-142800946D01*
X94452509Y-142851742D01*
X94384688Y-142868536D01*
X94318553Y-142845998D01*
X94279516Y-142800946D01*
X94275050Y-142792182D01*
X94150109Y-142620213D01*
X93999786Y-142469890D01*
X93827820Y-142344951D01*
X93638414Y-142248444D01*
X93638413Y-142248443D01*
X93638412Y-142248443D01*
X93436243Y-142182754D01*
X93436241Y-142182753D01*
X93436240Y-142182753D01*
X93274957Y-142157208D01*
X93226287Y-142149500D01*
X93013713Y-142149500D01*
X92965042Y-142157208D01*
X92803760Y-142182753D01*
X92601585Y-142248444D01*
X92412179Y-142344951D01*
X92240213Y-142469890D01*
X92089890Y-142620213D01*
X91964949Y-142792182D01*
X91960484Y-142800946D01*
X91912509Y-142851742D01*
X91844688Y-142868536D01*
X91778553Y-142845998D01*
X91739516Y-142800946D01*
X91735050Y-142792182D01*
X91610109Y-142620213D01*
X91459786Y-142469890D01*
X91287820Y-142344951D01*
X91098414Y-142248444D01*
X91098413Y-142248443D01*
X91098412Y-142248443D01*
X90896243Y-142182754D01*
X90896241Y-142182753D01*
X90896240Y-142182753D01*
X90734957Y-142157208D01*
X90686287Y-142149500D01*
X90473713Y-142149500D01*
X90425042Y-142157208D01*
X90263760Y-142182753D01*
X90061585Y-142248444D01*
X89872179Y-142344951D01*
X89700213Y-142469890D01*
X89549890Y-142620213D01*
X89424949Y-142792182D01*
X89420484Y-142800946D01*
X89372509Y-142851742D01*
X89304688Y-142868536D01*
X89238553Y-142845998D01*
X89199516Y-142800946D01*
X89195050Y-142792182D01*
X89070109Y-142620213D01*
X88919786Y-142469890D01*
X88747820Y-142344951D01*
X88558414Y-142248444D01*
X88558413Y-142248443D01*
X88558412Y-142248443D01*
X88356243Y-142182754D01*
X88356241Y-142182753D01*
X88356240Y-142182753D01*
X88194957Y-142157208D01*
X88146287Y-142149500D01*
X87999096Y-142149500D01*
X87932057Y-142129815D01*
X87886302Y-142077011D01*
X87876358Y-142007853D01*
X87905383Y-141944297D01*
X87911415Y-141937819D01*
X88949138Y-140900097D01*
X90212416Y-139636819D01*
X90273739Y-139603334D01*
X90300097Y-139600500D01*
X123735381Y-139600500D01*
X123802420Y-139620185D01*
G37*
%TD.AperFunction*%
%TA.AperFunction,NonConductor*%
G36*
X111717941Y-80820185D02*
G01*
X111763696Y-80872989D01*
X111773640Y-80942147D01*
X111744615Y-81005703D01*
X111738583Y-81012181D01*
X111385339Y-81365425D01*
X111324016Y-81398910D01*
X111321850Y-81399361D01*
X111166508Y-81430261D01*
X111166498Y-81430264D01*
X111020827Y-81490602D01*
X111020814Y-81490609D01*
X110889711Y-81578210D01*
X110889707Y-81578213D01*
X110778213Y-81689707D01*
X110778210Y-81689711D01*
X110690609Y-81820814D01*
X110690602Y-81820827D01*
X110630264Y-81966498D01*
X110630261Y-81966510D01*
X110599500Y-82121153D01*
X110599500Y-82278846D01*
X110630261Y-82433489D01*
X110630264Y-82433501D01*
X110690602Y-82579172D01*
X110690609Y-82579185D01*
X110778210Y-82710288D01*
X110778213Y-82710292D01*
X110889707Y-82821786D01*
X110889711Y-82821789D01*
X111020814Y-82909390D01*
X111020827Y-82909397D01*
X111166498Y-82969735D01*
X111166503Y-82969737D01*
X111289637Y-82994230D01*
X111321153Y-83000499D01*
X111321156Y-83000500D01*
X111321158Y-83000500D01*
X111478844Y-83000500D01*
X111478845Y-83000499D01*
X111633497Y-82969737D01*
X111779179Y-82909394D01*
X111910289Y-82821789D01*
X112021789Y-82710289D01*
X112109394Y-82579179D01*
X112169737Y-82433497D01*
X112189113Y-82336085D01*
X112200638Y-82278150D01*
X112233023Y-82216239D01*
X112234516Y-82214718D01*
X113212417Y-81236819D01*
X113273740Y-81203334D01*
X113300098Y-81200500D01*
X149899903Y-81200500D01*
X149966942Y-81220185D01*
X149987584Y-81236819D01*
X151915139Y-83164374D01*
X151915149Y-83164385D01*
X151919479Y-83168715D01*
X151919480Y-83168716D01*
X152031284Y-83280520D01*
X152031286Y-83280521D01*
X152031290Y-83280524D01*
X152113632Y-83328064D01*
X152113633Y-83328064D01*
X152168215Y-83359577D01*
X152320943Y-83400501D01*
X152320946Y-83400501D01*
X152486653Y-83400501D01*
X152486669Y-83400500D01*
X161834217Y-83400500D01*
X161901256Y-83420185D01*
X161921898Y-83436819D01*
X162363181Y-83878102D01*
X162396666Y-83939425D01*
X162399500Y-83965783D01*
X162399500Y-127369902D01*
X162390855Y-127399342D01*
X162384332Y-127429329D01*
X162380577Y-127434344D01*
X162379815Y-127436941D01*
X162363181Y-127457583D01*
X162362181Y-127458583D01*
X162300858Y-127492068D01*
X162231166Y-127487084D01*
X162175233Y-127445212D01*
X162150816Y-127379748D01*
X162150500Y-127370902D01*
X162150500Y-127223713D01*
X162148711Y-127212416D01*
X162117246Y-127013757D01*
X162051557Y-126811588D01*
X161955051Y-126622184D01*
X161955049Y-126622181D01*
X161955048Y-126622179D01*
X161830109Y-126450213D01*
X161716569Y-126336673D01*
X161683084Y-126275350D01*
X161688068Y-126205658D01*
X161729940Y-126149725D01*
X161760915Y-126132810D01*
X161892331Y-126083796D01*
X162007546Y-125997546D01*
X162093796Y-125882331D01*
X162144091Y-125747483D01*
X162150500Y-125687873D01*
X162150499Y-123892128D01*
X162144091Y-123832517D01*
X162136934Y-123813329D01*
X162093797Y-123697671D01*
X162093793Y-123697664D01*
X162007547Y-123582455D01*
X162007544Y-123582452D01*
X161892335Y-123496206D01*
X161892328Y-123496202D01*
X161757482Y-123445908D01*
X161757483Y-123445908D01*
X161697883Y-123439501D01*
X161697881Y-123439500D01*
X161697873Y-123439500D01*
X161697865Y-123439500D01*
X161524500Y-123439500D01*
X161457461Y-123419815D01*
X161411706Y-123367011D01*
X161400500Y-123315500D01*
X161400500Y-121172179D01*
X161400501Y-121172166D01*
X161400501Y-121004063D01*
X161359576Y-120851333D01*
X161359573Y-120851328D01*
X161280524Y-120714409D01*
X161280518Y-120714401D01*
X151387299Y-110821182D01*
X151353814Y-110759859D01*
X151350980Y-110733501D01*
X151350980Y-109358529D01*
X151350979Y-109358523D01*
X151344572Y-109298916D01*
X151294278Y-109164071D01*
X151294274Y-109164064D01*
X151208028Y-109048855D01*
X151208025Y-109048852D01*
X151092816Y-108962606D01*
X151092809Y-108962602D01*
X150975405Y-108918814D01*
X150919471Y-108876943D01*
X150895054Y-108811479D01*
X150909905Y-108743206D01*
X150931051Y-108714957D01*
X151027358Y-108618651D01*
X151153564Y-108444944D01*
X151251042Y-108253633D01*
X151317392Y-108049427D01*
X151350981Y-107837357D01*
X151350981Y-107622643D01*
X151317392Y-107410573D01*
X151251042Y-107206367D01*
X151251042Y-107206366D01*
X151167147Y-107041715D01*
X151153564Y-107015056D01*
X151027358Y-106841349D01*
X150875532Y-106689523D01*
X150701825Y-106563317D01*
X150701824Y-106563316D01*
X150697883Y-106560453D01*
X150699286Y-106558521D01*
X150658959Y-106514073D01*
X150647439Y-106445160D01*
X150675006Y-106380958D01*
X150698590Y-106360521D01*
X150697883Y-106359547D01*
X150701825Y-106356683D01*
X150875532Y-106230477D01*
X151027358Y-106078651D01*
X151153564Y-105904944D01*
X151251042Y-105713633D01*
X151317392Y-105509427D01*
X151350981Y-105297357D01*
X151350981Y-105082643D01*
X151317392Y-104870573D01*
X151251042Y-104666367D01*
X151251042Y-104666366D01*
X151167147Y-104501715D01*
X151153564Y-104475056D01*
X151027358Y-104301349D01*
X150875532Y-104149523D01*
X150701825Y-104023317D01*
X150510514Y-103925838D01*
X150510511Y-103925837D01*
X150306309Y-103859489D01*
X150200273Y-103842694D01*
X150094238Y-103825900D01*
X149879524Y-103825900D01*
X149808834Y-103837096D01*
X149667452Y-103859489D01*
X149463250Y-103925837D01*
X149463247Y-103925838D01*
X149271936Y-104023317D01*
X149172830Y-104095322D01*
X149098230Y-104149523D01*
X149098228Y-104149525D01*
X149098227Y-104149525D01*
X148946406Y-104301346D01*
X148946406Y-104301347D01*
X148946404Y-104301349D01*
X148820199Y-104475055D01*
X148817334Y-104478998D01*
X148815443Y-104477624D01*
X148770729Y-104518030D01*
X148701792Y-104529411D01*
X148637646Y-104501715D01*
X148617369Y-104478314D01*
X148616428Y-104478998D01*
X148613563Y-104475055D01*
X148487358Y-104301349D01*
X148335532Y-104149523D01*
X148161825Y-104023317D01*
X147970514Y-103925838D01*
X147970511Y-103925837D01*
X147766309Y-103859489D01*
X147660273Y-103842694D01*
X147554238Y-103825900D01*
X147339524Y-103825900D01*
X147268834Y-103837096D01*
X147127452Y-103859489D01*
X146923250Y-103925837D01*
X146923247Y-103925838D01*
X146731936Y-104023317D01*
X146632830Y-104095322D01*
X146558230Y-104149523D01*
X146558228Y-104149525D01*
X146558227Y-104149525D01*
X146406406Y-104301346D01*
X146406406Y-104301347D01*
X146406404Y-104301349D01*
X146352203Y-104375949D01*
X146280198Y-104475055D01*
X146182719Y-104666366D01*
X146182718Y-104666369D01*
X146116370Y-104870571D01*
X146082781Y-105082643D01*
X146082781Y-105297356D01*
X146116370Y-105509428D01*
X146182718Y-105713630D01*
X146182719Y-105713633D01*
X146266533Y-105878125D01*
X146280198Y-105904944D01*
X146406404Y-106078651D01*
X146558230Y-106230477D01*
X146731937Y-106356683D01*
X146735879Y-106359547D01*
X146734505Y-106361437D01*
X146774911Y-106406152D01*
X146786292Y-106475089D01*
X146758596Y-106539235D01*
X146735195Y-106559511D01*
X146735879Y-106560453D01*
X146731937Y-106563316D01*
X146731937Y-106563317D01*
X146558230Y-106689523D01*
X146558228Y-106689525D01*
X146558227Y-106689525D01*
X146406406Y-106841346D01*
X146406406Y-106841347D01*
X146406404Y-106841349D01*
X146352203Y-106915949D01*
X146280198Y-107015055D01*
X146182719Y-107206366D01*
X146182718Y-107206369D01*
X146116370Y-107410571D01*
X146082781Y-107622643D01*
X146082781Y-107837356D01*
X146116370Y-108049428D01*
X146182718Y-108253630D01*
X146182719Y-108253633D01*
X146260058Y-108405417D01*
X146280198Y-108444944D01*
X146406404Y-108618651D01*
X146558230Y-108770477D01*
X146716586Y-108885530D01*
X146735879Y-108899547D01*
X146734505Y-108901437D01*
X146774911Y-108946152D01*
X146786292Y-109015089D01*
X146758596Y-109079235D01*
X146735195Y-109099511D01*
X146735879Y-109100453D01*
X146731937Y-109103316D01*
X146731937Y-109103317D01*
X146558230Y-109229523D01*
X146558228Y-109229525D01*
X146558227Y-109229525D01*
X146406406Y-109381346D01*
X146406406Y-109381347D01*
X146406404Y-109381349D01*
X146352203Y-109455949D01*
X146280198Y-109555055D01*
X146182719Y-109746366D01*
X146182718Y-109746369D01*
X146116370Y-109950571D01*
X146082781Y-110162643D01*
X146082781Y-110377356D01*
X146116370Y-110589428D01*
X146182718Y-110793630D01*
X146182719Y-110793633D01*
X146270980Y-110966852D01*
X146280198Y-110984944D01*
X146406404Y-111158651D01*
X146558230Y-111310477D01*
X146731937Y-111436683D01*
X146825769Y-111484492D01*
X146923247Y-111534161D01*
X146923250Y-111534162D01*
X147025351Y-111567336D01*
X147127454Y-111600511D01*
X147339524Y-111634100D01*
X147339525Y-111634100D01*
X147554237Y-111634100D01*
X147554238Y-111634100D01*
X147766308Y-111600511D01*
X147970514Y-111534161D01*
X148161825Y-111436683D01*
X148335532Y-111310477D01*
X148431835Y-111214173D01*
X148493154Y-111180691D01*
X148562846Y-111185675D01*
X148618780Y-111227546D01*
X148635695Y-111258524D01*
X148679483Y-111375928D01*
X148679487Y-111375935D01*
X148765733Y-111491144D01*
X148765736Y-111491147D01*
X148880945Y-111577393D01*
X148880952Y-111577397D01*
X149015798Y-111627691D01*
X149015797Y-111627691D01*
X149022725Y-111628435D01*
X149075408Y-111634100D01*
X150450383Y-111634099D01*
X150517422Y-111653784D01*
X150538064Y-111670418D01*
X160163181Y-121295535D01*
X160196666Y-121356858D01*
X160199500Y-121383216D01*
X160199500Y-123315500D01*
X160179815Y-123382539D01*
X160127011Y-123428294D01*
X160075501Y-123439500D01*
X159902130Y-123439500D01*
X159902123Y-123439501D01*
X159842516Y-123445908D01*
X159707671Y-123496202D01*
X159707664Y-123496206D01*
X159592455Y-123582452D01*
X159592452Y-123582455D01*
X159506206Y-123697664D01*
X159506202Y-123697671D01*
X159455908Y-123832517D01*
X159450099Y-123886555D01*
X159449501Y-123892123D01*
X159449500Y-123892135D01*
X159449500Y-124065500D01*
X159429815Y-124132539D01*
X159377011Y-124178294D01*
X159325500Y-124189500D01*
X157096669Y-124189500D01*
X157096653Y-124189499D01*
X157089057Y-124189499D01*
X156930943Y-124189499D01*
X156823587Y-124218265D01*
X156778210Y-124230424D01*
X156778209Y-124230425D01*
X156728096Y-124259359D01*
X156728095Y-124259360D01*
X156684689Y-124284420D01*
X156641285Y-124309479D01*
X156641282Y-124309481D01*
X154319481Y-126631282D01*
X154319480Y-126631284D01*
X154284300Y-126692218D01*
X154240423Y-126768215D01*
X154199499Y-126920943D01*
X154199499Y-126920945D01*
X154199499Y-127089046D01*
X154199500Y-127089059D01*
X154199500Y-138699903D01*
X154179815Y-138766942D01*
X154163181Y-138787584D01*
X150087584Y-142863181D01*
X150026261Y-142896666D01*
X149999903Y-142899500D01*
X135234499Y-142899500D01*
X135167460Y-142879815D01*
X135121705Y-142827011D01*
X135110499Y-142775500D01*
X135110499Y-142602129D01*
X135110498Y-142602123D01*
X135106084Y-142561062D01*
X135104091Y-142542517D01*
X135102810Y-142539083D01*
X135053797Y-142407671D01*
X135053793Y-142407664D01*
X134967547Y-142292455D01*
X134967544Y-142292452D01*
X134852335Y-142206206D01*
X134852328Y-142206202D01*
X134717482Y-142155908D01*
X134717483Y-142155908D01*
X134657883Y-142149501D01*
X134657881Y-142149500D01*
X134657873Y-142149500D01*
X134657865Y-142149500D01*
X134484500Y-142149500D01*
X134417461Y-142129815D01*
X134371706Y-142077011D01*
X134360500Y-142025500D01*
X134360500Y-139979178D01*
X134360501Y-139979165D01*
X134360501Y-139811064D01*
X134360501Y-139811062D01*
X134319577Y-139658334D01*
X134286186Y-139600500D01*
X134286186Y-139600499D01*
X134240522Y-139521406D01*
X134240521Y-139521405D01*
X134240520Y-139521403D01*
X134128716Y-139409599D01*
X134128715Y-139409598D01*
X134124385Y-139405268D01*
X134124374Y-139405258D01*
X129424897Y-134705781D01*
X129391412Y-134644458D01*
X129396396Y-134574766D01*
X129438268Y-134518833D01*
X129503732Y-134494416D01*
X129512578Y-134494100D01*
X129647237Y-134494100D01*
X129647238Y-134494100D01*
X129859308Y-134460511D01*
X130063514Y-134394161D01*
X130254825Y-134296683D01*
X130428532Y-134170477D01*
X130580358Y-134018651D01*
X130706564Y-133844944D01*
X130804042Y-133653633D01*
X130870392Y-133449427D01*
X130903981Y-133237357D01*
X130903981Y-133022643D01*
X130870392Y-132810573D01*
X130830701Y-132688415D01*
X130804043Y-132606369D01*
X130804042Y-132606366D01*
X130720147Y-132441715D01*
X130706564Y-132415056D01*
X130580358Y-132241349D01*
X130428532Y-132089523D01*
X130254825Y-131963317D01*
X130254821Y-131963315D01*
X130063514Y-131865838D01*
X130063511Y-131865837D01*
X129859309Y-131799489D01*
X129687702Y-131772309D01*
X129647238Y-131765900D01*
X129432524Y-131765900D01*
X129392066Y-131772308D01*
X129220452Y-131799489D01*
X129016250Y-131865837D01*
X129016247Y-131865838D01*
X128824936Y-131963317D01*
X128651231Y-132089522D01*
X128554929Y-132185824D01*
X128493605Y-132219308D01*
X128423914Y-132214324D01*
X128367981Y-132172452D01*
X128351066Y-132141474D01*
X128307279Y-132024073D01*
X128307274Y-132024064D01*
X128221028Y-131908855D01*
X128221025Y-131908852D01*
X128105816Y-131822606D01*
X128105809Y-131822602D01*
X127970963Y-131772308D01*
X127970964Y-131772308D01*
X127911364Y-131765901D01*
X127911362Y-131765900D01*
X127911354Y-131765900D01*
X127911346Y-131765900D01*
X126524500Y-131765900D01*
X126457461Y-131746215D01*
X126411706Y-131693411D01*
X126400500Y-131641900D01*
X126400500Y-131100097D01*
X126409143Y-131070660D01*
X126415667Y-131040671D01*
X126419422Y-131035653D01*
X126420185Y-131033058D01*
X126436813Y-131012421D01*
X126515497Y-130933737D01*
X126576816Y-130900255D01*
X126646508Y-130905239D01*
X126702442Y-130947110D01*
X126717736Y-130973967D01*
X126740606Y-131029178D01*
X126740609Y-131029185D01*
X126828210Y-131160288D01*
X126828213Y-131160292D01*
X126939707Y-131271786D01*
X126939711Y-131271789D01*
X127070814Y-131359390D01*
X127070827Y-131359397D01*
X127216498Y-131419735D01*
X127216503Y-131419737D01*
X127371153Y-131450499D01*
X127371156Y-131450500D01*
X127371158Y-131450500D01*
X127528844Y-131450500D01*
X127528845Y-131450499D01*
X127683497Y-131419737D01*
X127829179Y-131359394D01*
X127829185Y-131359390D01*
X127960875Y-131271398D01*
X128027553Y-131250520D01*
X128029766Y-131250500D01*
X131839784Y-131250500D01*
X131906823Y-131270185D01*
X131927465Y-131286819D01*
X133275329Y-132634683D01*
X133308814Y-132696006D01*
X133305580Y-132760680D01*
X133289369Y-132810573D01*
X133257988Y-133008711D01*
X133255781Y-133022643D01*
X133255781Y-133237357D01*
X133264085Y-133289786D01*
X133289370Y-133449428D01*
X133355718Y-133653630D01*
X133355719Y-133653633D01*
X133439533Y-133818125D01*
X133453198Y-133844944D01*
X133579404Y-134018651D01*
X133731230Y-134170477D01*
X133904937Y-134296683D01*
X133951675Y-134320497D01*
X134096247Y-134394161D01*
X134096250Y-134394162D01*
X134198351Y-134427336D01*
X134300454Y-134460511D01*
X134512524Y-134494100D01*
X134512525Y-134494100D01*
X134727237Y-134494100D01*
X134727238Y-134494100D01*
X134939308Y-134460511D01*
X135143514Y-134394161D01*
X135334825Y-134296683D01*
X135508532Y-134170477D01*
X135660358Y-134018651D01*
X135786564Y-133844944D01*
X135786564Y-133844943D01*
X135789428Y-133841002D01*
X135791359Y-133842405D01*
X135835808Y-133802078D01*
X135904721Y-133790558D01*
X135968923Y-133818125D01*
X135989359Y-133841709D01*
X135990334Y-133841002D01*
X135993197Y-133844943D01*
X135993198Y-133844944D01*
X136119404Y-134018651D01*
X136271230Y-134170477D01*
X136444937Y-134296683D01*
X136491675Y-134320497D01*
X136636247Y-134394161D01*
X136636250Y-134394162D01*
X136738351Y-134427336D01*
X136840454Y-134460511D01*
X137052524Y-134494100D01*
X137052525Y-134494100D01*
X137267237Y-134494100D01*
X137267238Y-134494100D01*
X137479308Y-134460511D01*
X137683514Y-134394161D01*
X137874825Y-134296683D01*
X138048532Y-134170477D01*
X138200358Y-134018651D01*
X138326564Y-133844944D01*
X138326564Y-133844943D01*
X138329428Y-133841002D01*
X138331359Y-133842405D01*
X138375808Y-133802078D01*
X138444721Y-133790558D01*
X138508923Y-133818125D01*
X138529359Y-133841709D01*
X138530334Y-133841002D01*
X138533197Y-133844943D01*
X138533198Y-133844944D01*
X138659404Y-134018651D01*
X138811230Y-134170477D01*
X138984937Y-134296683D01*
X139031675Y-134320497D01*
X139176247Y-134394161D01*
X139176250Y-134394162D01*
X139278351Y-134427336D01*
X139380454Y-134460511D01*
X139592524Y-134494100D01*
X139592525Y-134494100D01*
X139807237Y-134494100D01*
X139807238Y-134494100D01*
X140019308Y-134460511D01*
X140223514Y-134394161D01*
X140414825Y-134296683D01*
X140588532Y-134170477D01*
X140740358Y-134018651D01*
X140866564Y-133844944D01*
X140866564Y-133844943D01*
X140869428Y-133841002D01*
X140871359Y-133842405D01*
X140915808Y-133802078D01*
X140984721Y-133790558D01*
X141048923Y-133818125D01*
X141069359Y-133841709D01*
X141070334Y-133841002D01*
X141073197Y-133844943D01*
X141073198Y-133844944D01*
X141199404Y-134018651D01*
X141351230Y-134170477D01*
X141524937Y-134296683D01*
X141571675Y-134320497D01*
X141716247Y-134394161D01*
X141716250Y-134394162D01*
X141818351Y-134427336D01*
X141920454Y-134460511D01*
X142132524Y-134494100D01*
X142132525Y-134494100D01*
X142347237Y-134494100D01*
X142347238Y-134494100D01*
X142559308Y-134460511D01*
X142763514Y-134394161D01*
X142954825Y-134296683D01*
X143128532Y-134170477D01*
X143280358Y-134018651D01*
X143406564Y-133844944D01*
X143406564Y-133844943D01*
X143409428Y-133841002D01*
X143411359Y-133842405D01*
X143455808Y-133802078D01*
X143524721Y-133790558D01*
X143588923Y-133818125D01*
X143609359Y-133841709D01*
X143610334Y-133841002D01*
X143613197Y-133844943D01*
X143613198Y-133844944D01*
X143739404Y-134018651D01*
X143891230Y-134170477D01*
X144064937Y-134296683D01*
X144111675Y-134320497D01*
X144256247Y-134394161D01*
X144256250Y-134394162D01*
X144358351Y-134427336D01*
X144460454Y-134460511D01*
X144672524Y-134494100D01*
X144672525Y-134494100D01*
X144887237Y-134494100D01*
X144887238Y-134494100D01*
X145099308Y-134460511D01*
X145303514Y-134394161D01*
X145494825Y-134296683D01*
X145668532Y-134170477D01*
X145820358Y-134018651D01*
X145946564Y-133844944D01*
X145946564Y-133844943D01*
X145949428Y-133841002D01*
X145951359Y-133842405D01*
X145995808Y-133802078D01*
X146064721Y-133790558D01*
X146128923Y-133818125D01*
X146149359Y-133841709D01*
X146150334Y-133841002D01*
X146153197Y-133844943D01*
X146153198Y-133844944D01*
X146279404Y-134018651D01*
X146431230Y-134170477D01*
X146604937Y-134296683D01*
X146651675Y-134320497D01*
X146796247Y-134394161D01*
X146796250Y-134394162D01*
X146898351Y-134427336D01*
X147000454Y-134460511D01*
X147212524Y-134494100D01*
X147212525Y-134494100D01*
X147427237Y-134494100D01*
X147427238Y-134494100D01*
X147639308Y-134460511D01*
X147843514Y-134394161D01*
X148034825Y-134296683D01*
X148208532Y-134170477D01*
X148360358Y-134018651D01*
X148486564Y-133844944D01*
X148584042Y-133653633D01*
X148650392Y-133449427D01*
X148683981Y-133237357D01*
X148683981Y-133022643D01*
X148650392Y-132810573D01*
X148610701Y-132688415D01*
X148584043Y-132606369D01*
X148584042Y-132606366D01*
X148500147Y-132441715D01*
X148486564Y-132415056D01*
X148360358Y-132241349D01*
X148208532Y-132089523D01*
X148034825Y-131963317D01*
X148034821Y-131963315D01*
X147843514Y-131865838D01*
X147843511Y-131865837D01*
X147639309Y-131799489D01*
X147467702Y-131772309D01*
X147427238Y-131765900D01*
X147212524Y-131765900D01*
X147172066Y-131772308D01*
X147000452Y-131799489D01*
X146796250Y-131865837D01*
X146796247Y-131865838D01*
X146604936Y-131963317D01*
X146521314Y-132024073D01*
X146431230Y-132089523D01*
X146431228Y-132089525D01*
X146431227Y-132089525D01*
X146279406Y-132241346D01*
X146279406Y-132241347D01*
X146279404Y-132241349D01*
X146234094Y-132303713D01*
X146150334Y-132418998D01*
X146148443Y-132417624D01*
X146103729Y-132458030D01*
X146034792Y-132469411D01*
X145970646Y-132441715D01*
X145950369Y-132418314D01*
X145949428Y-132418998D01*
X145946563Y-132415055D01*
X145820358Y-132241349D01*
X145668532Y-132089523D01*
X145494825Y-131963317D01*
X145494821Y-131963315D01*
X145303514Y-131865838D01*
X145303511Y-131865837D01*
X145099309Y-131799489D01*
X144927702Y-131772309D01*
X144887238Y-131765900D01*
X144672524Y-131765900D01*
X144632066Y-131772308D01*
X144460452Y-131799489D01*
X144256250Y-131865837D01*
X144256247Y-131865838D01*
X144064936Y-131963317D01*
X143981314Y-132024073D01*
X143891230Y-132089523D01*
X143891228Y-132089525D01*
X143891227Y-132089525D01*
X143739406Y-132241346D01*
X143739406Y-132241347D01*
X143739404Y-132241349D01*
X143694094Y-132303713D01*
X143610334Y-132418998D01*
X143608443Y-132417624D01*
X143563729Y-132458030D01*
X143494792Y-132469411D01*
X143430646Y-132441715D01*
X143410369Y-132418314D01*
X143409428Y-132418998D01*
X143406563Y-132415055D01*
X143280358Y-132241349D01*
X143128532Y-132089523D01*
X142954825Y-131963317D01*
X142954821Y-131963315D01*
X142763514Y-131865838D01*
X142763511Y-131865837D01*
X142559309Y-131799489D01*
X142387702Y-131772309D01*
X142347238Y-131765900D01*
X142132524Y-131765900D01*
X142092066Y-131772308D01*
X141920452Y-131799489D01*
X141716250Y-131865837D01*
X141716247Y-131865838D01*
X141524936Y-131963317D01*
X141441314Y-132024073D01*
X141351230Y-132089523D01*
X141351228Y-132089525D01*
X141351227Y-132089525D01*
X141199406Y-132241346D01*
X141199406Y-132241347D01*
X141199404Y-132241349D01*
X141154094Y-132303713D01*
X141070334Y-132418998D01*
X141068443Y-132417624D01*
X141023729Y-132458030D01*
X140954792Y-132469411D01*
X140890646Y-132441715D01*
X140870369Y-132418314D01*
X140869428Y-132418998D01*
X140866563Y-132415055D01*
X140740358Y-132241349D01*
X140588532Y-132089523D01*
X140414825Y-131963317D01*
X140414821Y-131963315D01*
X140223514Y-131865838D01*
X140223511Y-131865837D01*
X140019309Y-131799489D01*
X139847702Y-131772309D01*
X139807238Y-131765900D01*
X139592524Y-131765900D01*
X139552066Y-131772308D01*
X139380452Y-131799489D01*
X139176250Y-131865837D01*
X139176247Y-131865838D01*
X138984936Y-131963317D01*
X138901314Y-132024073D01*
X138811230Y-132089523D01*
X138811228Y-132089525D01*
X138811227Y-132089525D01*
X138659406Y-132241346D01*
X138659406Y-132241347D01*
X138659404Y-132241349D01*
X138614094Y-132303713D01*
X138530334Y-132418998D01*
X138528443Y-132417624D01*
X138483729Y-132458030D01*
X138414792Y-132469411D01*
X138350646Y-132441715D01*
X138330369Y-132418314D01*
X138329428Y-132418998D01*
X138326563Y-132415055D01*
X138200358Y-132241349D01*
X138048532Y-132089523D01*
X137874825Y-131963317D01*
X137874821Y-131963315D01*
X137683514Y-131865838D01*
X137683511Y-131865837D01*
X137479309Y-131799489D01*
X137307702Y-131772309D01*
X137267238Y-131765900D01*
X137052524Y-131765900D01*
X137012066Y-131772308D01*
X136840452Y-131799489D01*
X136636250Y-131865837D01*
X136636247Y-131865838D01*
X136444936Y-131963317D01*
X136361314Y-132024073D01*
X136271230Y-132089523D01*
X136271228Y-132089525D01*
X136271227Y-132089525D01*
X136119406Y-132241346D01*
X136119406Y-132241347D01*
X136119404Y-132241349D01*
X136074094Y-132303713D01*
X135990334Y-132418998D01*
X135988443Y-132417624D01*
X135943729Y-132458030D01*
X135874792Y-132469411D01*
X135810646Y-132441715D01*
X135790369Y-132418314D01*
X135789428Y-132418998D01*
X135786563Y-132415055D01*
X135660358Y-132241349D01*
X135508532Y-132089523D01*
X135334825Y-131963317D01*
X135334821Y-131963315D01*
X135143514Y-131865838D01*
X135143511Y-131865837D01*
X134939309Y-131799489D01*
X134767702Y-131772309D01*
X134727238Y-131765900D01*
X134512524Y-131765900D01*
X134483528Y-131770492D01*
X134300454Y-131799488D01*
X134250561Y-131815699D01*
X134180719Y-131817693D01*
X134124564Y-131785448D01*
X132627471Y-130288355D01*
X132627469Y-130288352D01*
X132508598Y-130169481D01*
X132508590Y-130169475D01*
X132391346Y-130101785D01*
X132391346Y-130101784D01*
X132391341Y-130101783D01*
X132384475Y-130097818D01*
X132371667Y-130090423D01*
X132333484Y-130080192D01*
X132218938Y-130049499D01*
X132060824Y-130049499D01*
X132053228Y-130049499D01*
X132053212Y-130049500D01*
X128029766Y-130049500D01*
X128013986Y-130045210D01*
X127999653Y-130045788D01*
X127973536Y-130034213D01*
X127966984Y-130032432D01*
X127960991Y-130028913D01*
X127960289Y-130028211D01*
X127829179Y-129940606D01*
X127766039Y-129914452D01*
X127758639Y-129910108D01*
X127740354Y-129890648D01*
X127719565Y-129873896D01*
X127716796Y-129865578D01*
X127710794Y-129859190D01*
X127705932Y-129832937D01*
X127697500Y-129807602D01*
X127699668Y-129799107D01*
X127698072Y-129790489D01*
X127708175Y-129765774D01*
X127714779Y-129739903D01*
X127723167Y-129729104D01*
X127724512Y-129725815D01*
X127727170Y-129723950D01*
X127733734Y-129715500D01*
X127880520Y-129568716D01*
X127959577Y-129431784D01*
X128000501Y-129279057D01*
X128000501Y-129120942D01*
X128000501Y-129113347D01*
X128000500Y-129113329D01*
X128000500Y-127928711D01*
X148009381Y-127928711D01*
X148009381Y-128171288D01*
X148041042Y-128411785D01*
X148103828Y-128646104D01*
X148196654Y-128870205D01*
X148196658Y-128870214D01*
X148218855Y-128908661D01*
X148317945Y-129080289D01*
X148317947Y-129080292D01*
X148317948Y-129080293D01*
X148465614Y-129272736D01*
X148465620Y-129272743D01*
X148637137Y-129444260D01*
X148637143Y-129444265D01*
X148829592Y-129591936D01*
X149039669Y-129713224D01*
X149263781Y-129806054D01*
X149498092Y-129868838D01*
X149675145Y-129892147D01*
X149738592Y-129900500D01*
X149738593Y-129900500D01*
X149981170Y-129900500D01*
X150044617Y-129892147D01*
X150221670Y-129868838D01*
X150455981Y-129806054D01*
X150680093Y-129713224D01*
X150890170Y-129591936D01*
X151082619Y-129444265D01*
X151254146Y-129272738D01*
X151401817Y-129080289D01*
X151523105Y-128870212D01*
X151615935Y-128646100D01*
X151678719Y-128411789D01*
X151710381Y-128171288D01*
X151710381Y-127928712D01*
X151678719Y-127688211D01*
X151615935Y-127453900D01*
X151608639Y-127436287D01*
X151523107Y-127229794D01*
X151523105Y-127229788D01*
X151401817Y-127019711D01*
X151254146Y-126827262D01*
X151254141Y-126827256D01*
X151082624Y-126655739D01*
X151082617Y-126655733D01*
X150890174Y-126508067D01*
X150890173Y-126508066D01*
X150890170Y-126508064D01*
X150680093Y-126386776D01*
X150680086Y-126386773D01*
X150455985Y-126293947D01*
X150221666Y-126231161D01*
X149981170Y-126199500D01*
X149981169Y-126199500D01*
X149738593Y-126199500D01*
X149738592Y-126199500D01*
X149498095Y-126231161D01*
X149263776Y-126293947D01*
X149039675Y-126386773D01*
X149039666Y-126386777D01*
X148829587Y-126508067D01*
X148637144Y-126655733D01*
X148637137Y-126655739D01*
X148465620Y-126827256D01*
X148465614Y-126827263D01*
X148317948Y-127019706D01*
X148196658Y-127229785D01*
X148196654Y-127229794D01*
X148103828Y-127453895D01*
X148041042Y-127688214D01*
X148009381Y-127928711D01*
X128000500Y-127928711D01*
X128000500Y-110545134D01*
X128020185Y-110478095D01*
X128072989Y-110432340D01*
X128142147Y-110422396D01*
X128171950Y-110430572D01*
X128266503Y-110469737D01*
X128421153Y-110500499D01*
X128421156Y-110500500D01*
X128421158Y-110500500D01*
X128578844Y-110500500D01*
X128578845Y-110500499D01*
X128733497Y-110469737D01*
X128879179Y-110409394D01*
X129010289Y-110321789D01*
X129121789Y-110210289D01*
X129209394Y-110079179D01*
X129269737Y-109933497D01*
X129300500Y-109778842D01*
X129300638Y-109778150D01*
X129333023Y-109716239D01*
X129334518Y-109714716D01*
X139060523Y-99988711D01*
X148009381Y-99988711D01*
X148009381Y-100231288D01*
X148041042Y-100471785D01*
X148103828Y-100706104D01*
X148196654Y-100930205D01*
X148196657Y-100930212D01*
X148317945Y-101140289D01*
X148317947Y-101140292D01*
X148317948Y-101140293D01*
X148465614Y-101332736D01*
X148465620Y-101332743D01*
X148637137Y-101504260D01*
X148637143Y-101504265D01*
X148829592Y-101651936D01*
X149039669Y-101773224D01*
X149263781Y-101866054D01*
X149498092Y-101928838D01*
X149678467Y-101952584D01*
X149738592Y-101960500D01*
X149738593Y-101960500D01*
X149981170Y-101960500D01*
X150029269Y-101954167D01*
X150221670Y-101928838D01*
X150455981Y-101866054D01*
X150680093Y-101773224D01*
X150890170Y-101651936D01*
X151082619Y-101504265D01*
X151254146Y-101332738D01*
X151401817Y-101140289D01*
X151523105Y-100930212D01*
X151615935Y-100706100D01*
X151678719Y-100471789D01*
X151710381Y-100231288D01*
X151710381Y-99988712D01*
X151678719Y-99748211D01*
X151615935Y-99513900D01*
X151523105Y-99289788D01*
X151401817Y-99079711D01*
X151254146Y-98887262D01*
X151254141Y-98887256D01*
X151082624Y-98715739D01*
X151082617Y-98715733D01*
X150890174Y-98568067D01*
X150890173Y-98568066D01*
X150890170Y-98568064D01*
X150680093Y-98446776D01*
X150680086Y-98446773D01*
X150455985Y-98353947D01*
X150221666Y-98291161D01*
X149981170Y-98259500D01*
X149981169Y-98259500D01*
X149738593Y-98259500D01*
X149738592Y-98259500D01*
X149498095Y-98291161D01*
X149263776Y-98353947D01*
X149039675Y-98446773D01*
X149039666Y-98446777D01*
X148829587Y-98568067D01*
X148637144Y-98715733D01*
X148637137Y-98715739D01*
X148465620Y-98887256D01*
X148465614Y-98887263D01*
X148317948Y-99079706D01*
X148196658Y-99289785D01*
X148196654Y-99289794D01*
X148103828Y-99513895D01*
X148041042Y-99748214D01*
X148009381Y-99988711D01*
X139060523Y-99988711D01*
X147750019Y-91299216D01*
X156219500Y-91299216D01*
X156219500Y-91500783D01*
X156251030Y-91699852D01*
X156313312Y-91891539D01*
X156351439Y-91966367D01*
X156404818Y-92071129D01*
X156523289Y-92234190D01*
X156665810Y-92376711D01*
X156828871Y-92495182D01*
X157002136Y-92583465D01*
X157008460Y-92586687D01*
X157104303Y-92617828D01*
X157200149Y-92648970D01*
X157292348Y-92663572D01*
X157399217Y-92680500D01*
X157399222Y-92680500D01*
X157600783Y-92680500D01*
X157697289Y-92665214D01*
X157799851Y-92648970D01*
X157991542Y-92586686D01*
X158171129Y-92495182D01*
X158334190Y-92376711D01*
X158476711Y-92234190D01*
X158595182Y-92071129D01*
X158686686Y-91891542D01*
X158748970Y-91699851D01*
X158765214Y-91597289D01*
X158780500Y-91500783D01*
X158780500Y-91299216D01*
X158760326Y-91171847D01*
X158748970Y-91100149D01*
X158686686Y-90908458D01*
X158595182Y-90728871D01*
X158476711Y-90565810D01*
X158334190Y-90423289D01*
X158171129Y-90304818D01*
X157991539Y-90213312D01*
X157799852Y-90151030D01*
X157600783Y-90119500D01*
X157600778Y-90119500D01*
X157399222Y-90119500D01*
X157399217Y-90119500D01*
X157200147Y-90151030D01*
X157008460Y-90213312D01*
X156828870Y-90304818D01*
X156735838Y-90372410D01*
X156665810Y-90423289D01*
X156665808Y-90423291D01*
X156665807Y-90423291D01*
X156523291Y-90565807D01*
X156523291Y-90565808D01*
X156523289Y-90565810D01*
X156472410Y-90635838D01*
X156404818Y-90728870D01*
X156313312Y-90908460D01*
X156251030Y-91100147D01*
X156219500Y-91299216D01*
X147750019Y-91299216D01*
X153812416Y-85236819D01*
X153873739Y-85203334D01*
X153900097Y-85200500D01*
X154090820Y-85200500D01*
X154157859Y-85220185D01*
X154203614Y-85272989D01*
X154213558Y-85342147D01*
X154184533Y-85405703D01*
X154169210Y-85419767D01*
X154169515Y-85420125D01*
X154165807Y-85423291D01*
X154023291Y-85565807D01*
X154023291Y-85565808D01*
X154023289Y-85565810D01*
X153972410Y-85635838D01*
X153904818Y-85728870D01*
X153813312Y-85908460D01*
X153751030Y-86100147D01*
X153719500Y-86299216D01*
X153719500Y-86500783D01*
X153751030Y-86699852D01*
X153813312Y-86891539D01*
X153813314Y-86891542D01*
X153904818Y-87071129D01*
X154023289Y-87234190D01*
X154165810Y-87376711D01*
X154328871Y-87495182D01*
X154508458Y-87586686D01*
X154508460Y-87586687D01*
X154604303Y-87617828D01*
X154700149Y-87648970D01*
X154792348Y-87663572D01*
X154899217Y-87680500D01*
X154899222Y-87680500D01*
X155100783Y-87680500D01*
X155197289Y-87665214D01*
X155299851Y-87648970D01*
X155491542Y-87586686D01*
X155671129Y-87495182D01*
X155834190Y-87376711D01*
X155976711Y-87234190D01*
X156095182Y-87071129D01*
X156186686Y-86891542D01*
X156248970Y-86699851D01*
X156275361Y-86533226D01*
X156280500Y-86500783D01*
X156280500Y-86299216D01*
X156254357Y-86134161D01*
X156248970Y-86100149D01*
X156206271Y-85968735D01*
X156186687Y-85908460D01*
X156132744Y-85802591D01*
X156095182Y-85728871D01*
X155976711Y-85565810D01*
X155834190Y-85423289D01*
X155834187Y-85423287D01*
X155830485Y-85420125D01*
X155831633Y-85418779D01*
X155793623Y-85369474D01*
X155787653Y-85299860D01*
X155820266Y-85238069D01*
X155881109Y-85203719D01*
X155909180Y-85200500D01*
X157899903Y-85200500D01*
X157966942Y-85220185D01*
X157987584Y-85236819D01*
X158683181Y-85932416D01*
X158716666Y-85993739D01*
X158719500Y-86020097D01*
X158719500Y-87227870D01*
X158719501Y-87227876D01*
X158725908Y-87287483D01*
X158776202Y-87422328D01*
X158776206Y-87422335D01*
X158862452Y-87537544D01*
X158862455Y-87537547D01*
X158977664Y-87623793D01*
X158977671Y-87623797D01*
X159112517Y-87674091D01*
X159112516Y-87674091D01*
X159119444Y-87674835D01*
X159172127Y-87680500D01*
X160827872Y-87680499D01*
X160887483Y-87674091D01*
X161022331Y-87623796D01*
X161137546Y-87537546D01*
X161223796Y-87422331D01*
X161274091Y-87287483D01*
X161280500Y-87227873D01*
X161280499Y-85572128D01*
X161274091Y-85512517D01*
X161223796Y-85377669D01*
X161223795Y-85377668D01*
X161223793Y-85377664D01*
X161137547Y-85262455D01*
X161137544Y-85262452D01*
X161022335Y-85176206D01*
X161022328Y-85176202D01*
X160887482Y-85125908D01*
X160887483Y-85125908D01*
X160827883Y-85119501D01*
X160827881Y-85119500D01*
X160827873Y-85119500D01*
X160827865Y-85119500D01*
X159620097Y-85119500D01*
X159553058Y-85099815D01*
X159532416Y-85083181D01*
X158687590Y-84238355D01*
X158687588Y-84238352D01*
X158568717Y-84119481D01*
X158568709Y-84119475D01*
X158448006Y-84049788D01*
X158448003Y-84049787D01*
X158431785Y-84040423D01*
X158279057Y-83999499D01*
X158120943Y-83999499D01*
X158113347Y-83999499D01*
X158113331Y-83999500D01*
X153520940Y-83999500D01*
X153480019Y-84010464D01*
X153480019Y-84010465D01*
X153442751Y-84020451D01*
X153368214Y-84040423D01*
X153368209Y-84040426D01*
X153231290Y-84119475D01*
X153231282Y-84119481D01*
X128485339Y-108865425D01*
X128424016Y-108898910D01*
X128421850Y-108899361D01*
X128266508Y-108930261D01*
X128266507Y-108930261D01*
X128171952Y-108969427D01*
X128102482Y-108976895D01*
X128040003Y-108945619D01*
X128004351Y-108885530D01*
X128000500Y-108854865D01*
X128000500Y-99720945D01*
X128000500Y-99720943D01*
X127959577Y-99568216D01*
X127959577Y-99568215D01*
X127928218Y-99513900D01*
X127880520Y-99431284D01*
X127768716Y-99319480D01*
X127768715Y-99319479D01*
X127764385Y-99315149D01*
X127764374Y-99315139D01*
X121032700Y-92583465D01*
X120999215Y-92522142D01*
X120996381Y-92495784D01*
X120996381Y-86170982D01*
X121016066Y-86103943D01*
X121064087Y-86060497D01*
X121110823Y-86036684D01*
X121110822Y-86036684D01*
X121110825Y-86036683D01*
X121284532Y-85910477D01*
X121436358Y-85758651D01*
X121562564Y-85584944D01*
X121562564Y-85584943D01*
X121565428Y-85581002D01*
X121567359Y-85582405D01*
X121611808Y-85542078D01*
X121680721Y-85530558D01*
X121744923Y-85558125D01*
X121765359Y-85581709D01*
X121766334Y-85581002D01*
X121769197Y-85584943D01*
X121769198Y-85584944D01*
X121895404Y-85758651D01*
X122047230Y-85910477D01*
X122220937Y-86036683D01*
X122267675Y-86060497D01*
X122412247Y-86134161D01*
X122412250Y-86134162D01*
X122514351Y-86167336D01*
X122616454Y-86200511D01*
X122828524Y-86234100D01*
X122828525Y-86234100D01*
X123043237Y-86234100D01*
X123043238Y-86234100D01*
X123255308Y-86200511D01*
X123459514Y-86134161D01*
X123650825Y-86036683D01*
X123824532Y-85910477D01*
X123976358Y-85758651D01*
X124102564Y-85584944D01*
X124102564Y-85584943D01*
X124105428Y-85581002D01*
X124107359Y-85582405D01*
X124151808Y-85542078D01*
X124220721Y-85530558D01*
X124284923Y-85558125D01*
X124305359Y-85581709D01*
X124306334Y-85581002D01*
X124309197Y-85584943D01*
X124309198Y-85584944D01*
X124435404Y-85758651D01*
X124587230Y-85910477D01*
X124760937Y-86036683D01*
X124807675Y-86060497D01*
X124952247Y-86134161D01*
X124952250Y-86134162D01*
X125054351Y-86167336D01*
X125156454Y-86200511D01*
X125368524Y-86234100D01*
X125368525Y-86234100D01*
X125583237Y-86234100D01*
X125583238Y-86234100D01*
X125795308Y-86200511D01*
X125999514Y-86134161D01*
X126190825Y-86036683D01*
X126364532Y-85910477D01*
X126516358Y-85758651D01*
X126642564Y-85584944D01*
X126740042Y-85393633D01*
X126806392Y-85189427D01*
X126839981Y-84977357D01*
X126839981Y-84762643D01*
X128175781Y-84762643D01*
X128175781Y-84977357D01*
X128192542Y-85083181D01*
X128209370Y-85189428D01*
X128275718Y-85393630D01*
X128275719Y-85393633D01*
X128359533Y-85558125D01*
X128373198Y-85584944D01*
X128499404Y-85758651D01*
X128651230Y-85910477D01*
X128824937Y-86036683D01*
X128871675Y-86060497D01*
X129016247Y-86134161D01*
X129016250Y-86134162D01*
X129118351Y-86167336D01*
X129220454Y-86200511D01*
X129432524Y-86234100D01*
X129432525Y-86234100D01*
X129647237Y-86234100D01*
X129647238Y-86234100D01*
X129859308Y-86200511D01*
X130063514Y-86134161D01*
X130254825Y-86036683D01*
X130428532Y-85910477D01*
X130580358Y-85758651D01*
X130706564Y-85584944D01*
X130706564Y-85584943D01*
X130709428Y-85581002D01*
X130711359Y-85582405D01*
X130755808Y-85542078D01*
X130824721Y-85530558D01*
X130888923Y-85558125D01*
X130909359Y-85581709D01*
X130910334Y-85581002D01*
X130913197Y-85584943D01*
X130913198Y-85584944D01*
X131039404Y-85758651D01*
X131191230Y-85910477D01*
X131364937Y-86036683D01*
X131411675Y-86060497D01*
X131556247Y-86134161D01*
X131556250Y-86134162D01*
X131658351Y-86167336D01*
X131760454Y-86200511D01*
X131972524Y-86234100D01*
X131972525Y-86234100D01*
X132187237Y-86234100D01*
X132187238Y-86234100D01*
X132399308Y-86200511D01*
X132603514Y-86134161D01*
X132794825Y-86036683D01*
X132968532Y-85910477D01*
X133120358Y-85758651D01*
X133246564Y-85584944D01*
X133246564Y-85584943D01*
X133249428Y-85581002D01*
X133251359Y-85582405D01*
X133295808Y-85542078D01*
X133364721Y-85530558D01*
X133428923Y-85558125D01*
X133449359Y-85581709D01*
X133450334Y-85581002D01*
X133453197Y-85584943D01*
X133453198Y-85584944D01*
X133579404Y-85758651D01*
X133731230Y-85910477D01*
X133904937Y-86036683D01*
X133951675Y-86060497D01*
X134096247Y-86134161D01*
X134096250Y-86134162D01*
X134198351Y-86167336D01*
X134300454Y-86200511D01*
X134512524Y-86234100D01*
X134512525Y-86234100D01*
X134727237Y-86234100D01*
X134727238Y-86234100D01*
X134939308Y-86200511D01*
X135143514Y-86134161D01*
X135334825Y-86036683D01*
X135508532Y-85910477D01*
X135660358Y-85758651D01*
X135786564Y-85584944D01*
X135786564Y-85584943D01*
X135789428Y-85581002D01*
X135791359Y-85582405D01*
X135835808Y-85542078D01*
X135904721Y-85530558D01*
X135968923Y-85558125D01*
X135989359Y-85581709D01*
X135990334Y-85581002D01*
X135993197Y-85584943D01*
X135993198Y-85584944D01*
X136119404Y-85758651D01*
X136271230Y-85910477D01*
X136444937Y-86036683D01*
X136491675Y-86060497D01*
X136636247Y-86134161D01*
X136636250Y-86134162D01*
X136738351Y-86167336D01*
X136840454Y-86200511D01*
X137052524Y-86234100D01*
X137052525Y-86234100D01*
X137267237Y-86234100D01*
X137267238Y-86234100D01*
X137479308Y-86200511D01*
X137683514Y-86134161D01*
X137874825Y-86036683D01*
X138048532Y-85910477D01*
X138200358Y-85758651D01*
X138326564Y-85584944D01*
X138326564Y-85584943D01*
X138329428Y-85581002D01*
X138331359Y-85582405D01*
X138375808Y-85542078D01*
X138444721Y-85530558D01*
X138508923Y-85558125D01*
X138529359Y-85581709D01*
X138530334Y-85581002D01*
X138533197Y-85584943D01*
X138533198Y-85584944D01*
X138659404Y-85758651D01*
X138811230Y-85910477D01*
X138984937Y-86036683D01*
X139031675Y-86060497D01*
X139176247Y-86134161D01*
X139176250Y-86134162D01*
X139278351Y-86167336D01*
X139380454Y-86200511D01*
X139592524Y-86234100D01*
X139592525Y-86234100D01*
X139807237Y-86234100D01*
X139807238Y-86234100D01*
X140019308Y-86200511D01*
X140223514Y-86134161D01*
X140414825Y-86036683D01*
X140588532Y-85910477D01*
X140740358Y-85758651D01*
X140866564Y-85584944D01*
X140866564Y-85584943D01*
X140869428Y-85581002D01*
X140871359Y-85582405D01*
X140915808Y-85542078D01*
X140984721Y-85530558D01*
X141048923Y-85558125D01*
X141069359Y-85581709D01*
X141070334Y-85581002D01*
X141073197Y-85584943D01*
X141073198Y-85584944D01*
X141199404Y-85758651D01*
X141351230Y-85910477D01*
X141524937Y-86036683D01*
X141571675Y-86060497D01*
X141716247Y-86134161D01*
X141716250Y-86134162D01*
X141818351Y-86167336D01*
X141920454Y-86200511D01*
X142132524Y-86234100D01*
X142132525Y-86234100D01*
X142347237Y-86234100D01*
X142347238Y-86234100D01*
X142559308Y-86200511D01*
X142763514Y-86134161D01*
X142954825Y-86036683D01*
X143128532Y-85910477D01*
X143280358Y-85758651D01*
X143406564Y-85584944D01*
X143406564Y-85584943D01*
X143409428Y-85581002D01*
X143411359Y-85582405D01*
X143455808Y-85542078D01*
X143524721Y-85530558D01*
X143588923Y-85558125D01*
X143609359Y-85581709D01*
X143610334Y-85581002D01*
X143613197Y-85584943D01*
X143613198Y-85584944D01*
X143739404Y-85758651D01*
X143891230Y-85910477D01*
X144064937Y-86036683D01*
X144111675Y-86060497D01*
X144256247Y-86134161D01*
X144256250Y-86134162D01*
X144358351Y-86167336D01*
X144460454Y-86200511D01*
X144672524Y-86234100D01*
X144672525Y-86234100D01*
X144887237Y-86234100D01*
X144887238Y-86234100D01*
X145099308Y-86200511D01*
X145303514Y-86134161D01*
X145494825Y-86036683D01*
X145668532Y-85910477D01*
X145820358Y-85758651D01*
X145946564Y-85584944D01*
X145946564Y-85584943D01*
X145949428Y-85581002D01*
X145951359Y-85582405D01*
X145995808Y-85542078D01*
X146064721Y-85530558D01*
X146128923Y-85558125D01*
X146149359Y-85581709D01*
X146150334Y-85581002D01*
X146153197Y-85584943D01*
X146153198Y-85584944D01*
X146279404Y-85758651D01*
X146431230Y-85910477D01*
X146604937Y-86036683D01*
X146651675Y-86060497D01*
X146796247Y-86134161D01*
X146796250Y-86134162D01*
X146898351Y-86167336D01*
X147000454Y-86200511D01*
X147212524Y-86234100D01*
X147212525Y-86234100D01*
X147427237Y-86234100D01*
X147427238Y-86234100D01*
X147639308Y-86200511D01*
X147843514Y-86134161D01*
X148034825Y-86036683D01*
X148208532Y-85910477D01*
X148360358Y-85758651D01*
X148486564Y-85584944D01*
X148584042Y-85393633D01*
X148650392Y-85189427D01*
X148683981Y-84977357D01*
X148683981Y-84762643D01*
X148650392Y-84550573D01*
X148584042Y-84346367D01*
X148584042Y-84346366D01*
X148529007Y-84238355D01*
X148486564Y-84155056D01*
X148360358Y-83981349D01*
X148208532Y-83829523D01*
X148034825Y-83703317D01*
X147843514Y-83605838D01*
X147843511Y-83605837D01*
X147639309Y-83539489D01*
X147467702Y-83512309D01*
X147427238Y-83505900D01*
X147212524Y-83505900D01*
X147172066Y-83512308D01*
X147000452Y-83539489D01*
X146796250Y-83605837D01*
X146796247Y-83605838D01*
X146604936Y-83703317D01*
X146521314Y-83764073D01*
X146431230Y-83829523D01*
X146431228Y-83829525D01*
X146431227Y-83829525D01*
X146279406Y-83981346D01*
X146279406Y-83981347D01*
X146279404Y-83981349D01*
X146258251Y-84010464D01*
X146150334Y-84158998D01*
X146148443Y-84157624D01*
X146103729Y-84198030D01*
X146034792Y-84209411D01*
X145970646Y-84181715D01*
X145950369Y-84158314D01*
X145949428Y-84158998D01*
X145920716Y-84119480D01*
X145820358Y-83981349D01*
X145668532Y-83829523D01*
X145494825Y-83703317D01*
X145303514Y-83605838D01*
X145303511Y-83605837D01*
X145099309Y-83539489D01*
X144927702Y-83512309D01*
X144887238Y-83505900D01*
X144672524Y-83505900D01*
X144632066Y-83512308D01*
X144460452Y-83539489D01*
X144256250Y-83605837D01*
X144256247Y-83605838D01*
X144064936Y-83703317D01*
X143981314Y-83764073D01*
X143891230Y-83829523D01*
X143891228Y-83829525D01*
X143891227Y-83829525D01*
X143739406Y-83981346D01*
X143739406Y-83981347D01*
X143739404Y-83981349D01*
X143718251Y-84010464D01*
X143610334Y-84158998D01*
X143608443Y-84157624D01*
X143563729Y-84198030D01*
X143494792Y-84209411D01*
X143430646Y-84181715D01*
X143410369Y-84158314D01*
X143409428Y-84158998D01*
X143380716Y-84119480D01*
X143280358Y-83981349D01*
X143128532Y-83829523D01*
X142954825Y-83703317D01*
X142763514Y-83605838D01*
X142763511Y-83605837D01*
X142559309Y-83539489D01*
X142387702Y-83512309D01*
X142347238Y-83505900D01*
X142132524Y-83505900D01*
X142092066Y-83512308D01*
X141920452Y-83539489D01*
X141716250Y-83605837D01*
X141716247Y-83605838D01*
X141524936Y-83703317D01*
X141441314Y-83764073D01*
X141351230Y-83829523D01*
X141351228Y-83829525D01*
X141351227Y-83829525D01*
X141199406Y-83981346D01*
X141199406Y-83981347D01*
X141199404Y-83981349D01*
X141178251Y-84010464D01*
X141070334Y-84158998D01*
X141068443Y-84157624D01*
X141023729Y-84198030D01*
X140954792Y-84209411D01*
X140890646Y-84181715D01*
X140870369Y-84158314D01*
X140869428Y-84158998D01*
X140840716Y-84119480D01*
X140740358Y-83981349D01*
X140588532Y-83829523D01*
X140414825Y-83703317D01*
X140223514Y-83605838D01*
X140223511Y-83605837D01*
X140019309Y-83539489D01*
X139847702Y-83512309D01*
X139807238Y-83505900D01*
X139592524Y-83505900D01*
X139552066Y-83512308D01*
X139380452Y-83539489D01*
X139176250Y-83605837D01*
X139176247Y-83605838D01*
X138984936Y-83703317D01*
X138901314Y-83764073D01*
X138811230Y-83829523D01*
X138811228Y-83829525D01*
X138811227Y-83829525D01*
X138659406Y-83981346D01*
X138659406Y-83981347D01*
X138659404Y-83981349D01*
X138638251Y-84010464D01*
X138530334Y-84158998D01*
X138528443Y-84157624D01*
X138483729Y-84198030D01*
X138414792Y-84209411D01*
X138350646Y-84181715D01*
X138330369Y-84158314D01*
X138329428Y-84158998D01*
X138300716Y-84119480D01*
X138200358Y-83981349D01*
X138048532Y-83829523D01*
X137874825Y-83703317D01*
X137683514Y-83605838D01*
X137683511Y-83605837D01*
X137479309Y-83539489D01*
X137307702Y-83512309D01*
X137267238Y-83505900D01*
X137052524Y-83505900D01*
X137012066Y-83512308D01*
X136840452Y-83539489D01*
X136636250Y-83605837D01*
X136636247Y-83605838D01*
X136444936Y-83703317D01*
X136361314Y-83764073D01*
X136271230Y-83829523D01*
X136271228Y-83829525D01*
X136271227Y-83829525D01*
X136119406Y-83981346D01*
X136119406Y-83981347D01*
X136119404Y-83981349D01*
X136098251Y-84010464D01*
X135990334Y-84158998D01*
X135988443Y-84157624D01*
X135943729Y-84198030D01*
X135874792Y-84209411D01*
X135810646Y-84181715D01*
X135790369Y-84158314D01*
X135789428Y-84158998D01*
X135760716Y-84119480D01*
X135660358Y-83981349D01*
X135508532Y-83829523D01*
X135334825Y-83703317D01*
X135143514Y-83605838D01*
X135143511Y-83605837D01*
X134939309Y-83539489D01*
X134767702Y-83512309D01*
X134727238Y-83505900D01*
X134512524Y-83505900D01*
X134472066Y-83512308D01*
X134300452Y-83539489D01*
X134096250Y-83605837D01*
X134096247Y-83605838D01*
X133904936Y-83703317D01*
X133821314Y-83764073D01*
X133731230Y-83829523D01*
X133731228Y-83829525D01*
X133731227Y-83829525D01*
X133579406Y-83981346D01*
X133579406Y-83981347D01*
X133579404Y-83981349D01*
X133558251Y-84010464D01*
X133450334Y-84158998D01*
X133448443Y-84157624D01*
X133403729Y-84198030D01*
X133334792Y-84209411D01*
X133270646Y-84181715D01*
X133250369Y-84158314D01*
X133249428Y-84158998D01*
X133220716Y-84119480D01*
X133120358Y-83981349D01*
X132968532Y-83829523D01*
X132794825Y-83703317D01*
X132603514Y-83605838D01*
X132603511Y-83605837D01*
X132399309Y-83539489D01*
X132227702Y-83512309D01*
X132187238Y-83505900D01*
X131972524Y-83505900D01*
X131932066Y-83512308D01*
X131760452Y-83539489D01*
X131556250Y-83605837D01*
X131556247Y-83605838D01*
X131364936Y-83703317D01*
X131281314Y-83764073D01*
X131191230Y-83829523D01*
X131191228Y-83829525D01*
X131191227Y-83829525D01*
X131039406Y-83981346D01*
X131039406Y-83981347D01*
X131039404Y-83981349D01*
X131018251Y-84010464D01*
X130910334Y-84158998D01*
X130908443Y-84157624D01*
X130863729Y-84198030D01*
X130794792Y-84209411D01*
X130730646Y-84181715D01*
X130710369Y-84158314D01*
X130709428Y-84158998D01*
X130680716Y-84119480D01*
X130580358Y-83981349D01*
X130428532Y-83829523D01*
X130254825Y-83703317D01*
X130063514Y-83605838D01*
X130063511Y-83605837D01*
X129859309Y-83539489D01*
X129687702Y-83512309D01*
X129647238Y-83505900D01*
X129432524Y-83505900D01*
X129392066Y-83512308D01*
X129220452Y-83539489D01*
X129016250Y-83605837D01*
X129016247Y-83605838D01*
X128824936Y-83703317D01*
X128741314Y-83764073D01*
X128651230Y-83829523D01*
X128651228Y-83829525D01*
X128651227Y-83829525D01*
X128499406Y-83981346D01*
X128499406Y-83981347D01*
X128499404Y-83981349D01*
X128478251Y-84010464D01*
X128373198Y-84155055D01*
X128275719Y-84346366D01*
X128275718Y-84346369D01*
X128209370Y-84550571D01*
X128209370Y-84550573D01*
X128175781Y-84762643D01*
X126839981Y-84762643D01*
X126806392Y-84550573D01*
X126740042Y-84346367D01*
X126740042Y-84346366D01*
X126685007Y-84238355D01*
X126642564Y-84155056D01*
X126516358Y-83981349D01*
X126364532Y-83829523D01*
X126190825Y-83703317D01*
X125999514Y-83605838D01*
X125999511Y-83605837D01*
X125795309Y-83539489D01*
X125623702Y-83512309D01*
X125583238Y-83505900D01*
X125368524Y-83505900D01*
X125328066Y-83512308D01*
X125156452Y-83539489D01*
X124952250Y-83605837D01*
X124952247Y-83605838D01*
X124760936Y-83703317D01*
X124677314Y-83764073D01*
X124587230Y-83829523D01*
X124587228Y-83829525D01*
X124587227Y-83829525D01*
X124435406Y-83981346D01*
X124435406Y-83981347D01*
X124435404Y-83981349D01*
X124414251Y-84010464D01*
X124306334Y-84158998D01*
X124304443Y-84157624D01*
X124259729Y-84198030D01*
X124190792Y-84209411D01*
X124126646Y-84181715D01*
X124106369Y-84158314D01*
X124105428Y-84158998D01*
X124076716Y-84119480D01*
X123976358Y-83981349D01*
X123824532Y-83829523D01*
X123650825Y-83703317D01*
X123459514Y-83605838D01*
X123459511Y-83605837D01*
X123255309Y-83539489D01*
X123083702Y-83512309D01*
X123043238Y-83505900D01*
X122828524Y-83505900D01*
X122788066Y-83512308D01*
X122616452Y-83539489D01*
X122412250Y-83605837D01*
X122412247Y-83605838D01*
X122220936Y-83703317D01*
X122137314Y-83764073D01*
X122047230Y-83829523D01*
X122047228Y-83829525D01*
X122047227Y-83829525D01*
X121895406Y-83981346D01*
X121895406Y-83981347D01*
X121895404Y-83981349D01*
X121874251Y-84010464D01*
X121766334Y-84158998D01*
X121764443Y-84157624D01*
X121719729Y-84198030D01*
X121650792Y-84209411D01*
X121586646Y-84181715D01*
X121566369Y-84158314D01*
X121565428Y-84158998D01*
X121536716Y-84119480D01*
X121436358Y-83981349D01*
X121284532Y-83829523D01*
X121110825Y-83703317D01*
X120919514Y-83605838D01*
X120919511Y-83605837D01*
X120715309Y-83539489D01*
X120543702Y-83512309D01*
X120503238Y-83505900D01*
X120288524Y-83505900D01*
X120248066Y-83512308D01*
X120076452Y-83539489D01*
X119872250Y-83605837D01*
X119872247Y-83605838D01*
X119680936Y-83703317D01*
X119597314Y-83764073D01*
X119507230Y-83829523D01*
X119507228Y-83829525D01*
X119507227Y-83829525D01*
X119355406Y-83981346D01*
X119355406Y-83981347D01*
X119355404Y-83981349D01*
X119334251Y-84010464D01*
X119226334Y-84158998D01*
X119224443Y-84157624D01*
X119179729Y-84198030D01*
X119110792Y-84209411D01*
X119046646Y-84181715D01*
X119026369Y-84158314D01*
X119025428Y-84158998D01*
X118996716Y-84119480D01*
X118896358Y-83981349D01*
X118744532Y-83829523D01*
X118570825Y-83703317D01*
X118379514Y-83605838D01*
X118379511Y-83605837D01*
X118175309Y-83539489D01*
X118003702Y-83512309D01*
X117963238Y-83505900D01*
X117748524Y-83505900D01*
X117708066Y-83512308D01*
X117536452Y-83539489D01*
X117332250Y-83605837D01*
X117332247Y-83605838D01*
X117140936Y-83703317D01*
X117057314Y-83764073D01*
X116967230Y-83829523D01*
X116967228Y-83829525D01*
X116967227Y-83829525D01*
X116815406Y-83981346D01*
X116815406Y-83981347D01*
X116815404Y-83981349D01*
X116794251Y-84010464D01*
X116686334Y-84158998D01*
X116684443Y-84157624D01*
X116639729Y-84198030D01*
X116570792Y-84209411D01*
X116506646Y-84181715D01*
X116486369Y-84158314D01*
X116485428Y-84158998D01*
X116456716Y-84119480D01*
X116356358Y-83981349D01*
X116204532Y-83829523D01*
X116030825Y-83703317D01*
X115839514Y-83605838D01*
X115839511Y-83605837D01*
X115635309Y-83539489D01*
X115463702Y-83512309D01*
X115423238Y-83505900D01*
X115208524Y-83505900D01*
X115168066Y-83512308D01*
X114996452Y-83539489D01*
X114792250Y-83605837D01*
X114792247Y-83605838D01*
X114600936Y-83703317D01*
X114517314Y-83764073D01*
X114427230Y-83829523D01*
X114427228Y-83829525D01*
X114427227Y-83829525D01*
X114275406Y-83981346D01*
X114275406Y-83981347D01*
X114275404Y-83981349D01*
X114254251Y-84010464D01*
X114146334Y-84158998D01*
X114144443Y-84157624D01*
X114099729Y-84198030D01*
X114030792Y-84209411D01*
X113966646Y-84181715D01*
X113946369Y-84158314D01*
X113945428Y-84158998D01*
X113916716Y-84119480D01*
X113816358Y-83981349D01*
X113664532Y-83829523D01*
X113490825Y-83703317D01*
X113299514Y-83605838D01*
X113299511Y-83605837D01*
X113095309Y-83539489D01*
X112923702Y-83512309D01*
X112883238Y-83505900D01*
X112668524Y-83505900D01*
X112628066Y-83512308D01*
X112456452Y-83539489D01*
X112252250Y-83605837D01*
X112252247Y-83605838D01*
X112060936Y-83703317D01*
X111887231Y-83829522D01*
X111790929Y-83925824D01*
X111729605Y-83959308D01*
X111659914Y-83954324D01*
X111603981Y-83912452D01*
X111587066Y-83881474D01*
X111585808Y-83878102D01*
X111571488Y-83839706D01*
X111543279Y-83764073D01*
X111543274Y-83764064D01*
X111457028Y-83648855D01*
X111457025Y-83648852D01*
X111341816Y-83562606D01*
X111341809Y-83562602D01*
X111206963Y-83512308D01*
X111206964Y-83512308D01*
X111147364Y-83505901D01*
X111147362Y-83505900D01*
X111147354Y-83505900D01*
X111147345Y-83505900D01*
X109324410Y-83505900D01*
X109324404Y-83505901D01*
X109264797Y-83512308D01*
X109129952Y-83562602D01*
X109129945Y-83562606D01*
X109014736Y-83648852D01*
X109014733Y-83648855D01*
X108928487Y-83764064D01*
X108928483Y-83764071D01*
X108884695Y-83881475D01*
X108842824Y-83937409D01*
X108777360Y-83961826D01*
X108709087Y-83946974D01*
X108680832Y-83925823D01*
X108584534Y-83829525D01*
X108584532Y-83829523D01*
X108410825Y-83703317D01*
X108219514Y-83605838D01*
X108219511Y-83605837D01*
X108015309Y-83539489D01*
X107843702Y-83512309D01*
X107803238Y-83505900D01*
X107668577Y-83505900D01*
X107601538Y-83486215D01*
X107555783Y-83433411D01*
X107545839Y-83364253D01*
X107574864Y-83300697D01*
X107580896Y-83294219D01*
X108753958Y-82121158D01*
X110038297Y-80836819D01*
X110099620Y-80803334D01*
X110125978Y-80800500D01*
X111650902Y-80800500D01*
X111717941Y-80820185D01*
G37*
%TD.AperFunction*%
%TA.AperFunction,NonConductor*%
G36*
X159392540Y-125410185D02*
G01*
X159438295Y-125462989D01*
X159449501Y-125514500D01*
X159449501Y-125687876D01*
X159455908Y-125747483D01*
X159506202Y-125882328D01*
X159506206Y-125882335D01*
X159592452Y-125997544D01*
X159592455Y-125997547D01*
X159707664Y-126083793D01*
X159707671Y-126083797D01*
X159839082Y-126132810D01*
X159895016Y-126174681D01*
X159919433Y-126240145D01*
X159904582Y-126308418D01*
X159883431Y-126336673D01*
X159769889Y-126450215D01*
X159644951Y-126622179D01*
X159548444Y-126811585D01*
X159482753Y-127013760D01*
X159472411Y-127079057D01*
X159449500Y-127223713D01*
X159449500Y-127436287D01*
X159482754Y-127646243D01*
X159510321Y-127731086D01*
X159548444Y-127848414D01*
X159644951Y-128037820D01*
X159769890Y-128209786D01*
X159920213Y-128360109D01*
X160092182Y-128485050D01*
X160100946Y-128489516D01*
X160151742Y-128537491D01*
X160168536Y-128605312D01*
X160145998Y-128671447D01*
X160100946Y-128710484D01*
X160092182Y-128714949D01*
X159920213Y-128839890D01*
X159769890Y-128990213D01*
X159644951Y-129162179D01*
X159548444Y-129351585D01*
X159482753Y-129553760D01*
X159449500Y-129763713D01*
X159449500Y-129976286D01*
X159481561Y-130178716D01*
X159482754Y-130186243D01*
X159538918Y-130359098D01*
X159548444Y-130388414D01*
X159644951Y-130577820D01*
X159769890Y-130749786D01*
X159920213Y-130900109D01*
X160092182Y-131025050D01*
X160100946Y-131029516D01*
X160151742Y-131077491D01*
X160168536Y-131145312D01*
X160145998Y-131211447D01*
X160100946Y-131250484D01*
X160092182Y-131254949D01*
X159920213Y-131379890D01*
X159769890Y-131530213D01*
X159644951Y-131702179D01*
X159548444Y-131891585D01*
X159482753Y-132093760D01*
X159449500Y-132303713D01*
X159449500Y-132516286D01*
X159476762Y-132688415D01*
X159482754Y-132726243D01*
X159496391Y-132768214D01*
X159548444Y-132928414D01*
X159644951Y-133117820D01*
X159769890Y-133289786D01*
X159920213Y-133440109D01*
X160092179Y-133565048D01*
X160092181Y-133565049D01*
X160092184Y-133565051D01*
X160281588Y-133661557D01*
X160483757Y-133727246D01*
X160693713Y-133760500D01*
X160693714Y-133760500D01*
X160906286Y-133760500D01*
X160906287Y-133760500D01*
X161116243Y-133727246D01*
X161318412Y-133661557D01*
X161507816Y-133565051D01*
X161529789Y-133549086D01*
X161679786Y-133440109D01*
X161679788Y-133440106D01*
X161679792Y-133440104D01*
X161830104Y-133289792D01*
X161830106Y-133289788D01*
X161830109Y-133289786D01*
X161955048Y-133117820D01*
X161955047Y-133117820D01*
X161955051Y-133117816D01*
X162051557Y-132928412D01*
X162117246Y-132726243D01*
X162150500Y-132516287D01*
X162150500Y-132303713D01*
X162117246Y-132093757D01*
X162103506Y-132051473D01*
X162101512Y-131981635D01*
X162133755Y-131925478D01*
X163768713Y-130290521D01*
X163768716Y-130290520D01*
X163787825Y-130271410D01*
X163830021Y-130248372D01*
X163849142Y-130237932D01*
X163849144Y-130237932D01*
X163849148Y-130237930D01*
X163891470Y-130240959D01*
X163918834Y-130242916D01*
X163918836Y-130242917D01*
X163918840Y-130242918D01*
X163949828Y-130266118D01*
X163974767Y-130284788D01*
X163974768Y-130284790D01*
X163974771Y-130284793D01*
X163990224Y-130326232D01*
X163999184Y-130350252D01*
X163999184Y-130350255D01*
X163999185Y-130350258D01*
X163999184Y-130350261D01*
X163999500Y-130359098D01*
X163999500Y-140999275D01*
X163979815Y-141066314D01*
X163927011Y-141112069D01*
X163857853Y-141122013D01*
X163798188Y-141096223D01*
X163760682Y-141066314D01*
X163739039Y-141049054D01*
X163501977Y-140900097D01*
X163453683Y-140869752D01*
X163150054Y-140723532D01*
X162831965Y-140612227D01*
X162831953Y-140612223D01*
X162503397Y-140537233D01*
X162503381Y-140537231D01*
X162168508Y-140499500D01*
X162168504Y-140499500D01*
X161831496Y-140499500D01*
X161831491Y-140499500D01*
X161496618Y-140537231D01*
X161496602Y-140537233D01*
X161168046Y-140612223D01*
X161168034Y-140612227D01*
X160849945Y-140723532D01*
X160546316Y-140869752D01*
X160260962Y-141049053D01*
X159997477Y-141259174D01*
X159759174Y-141497477D01*
X159549053Y-141760962D01*
X159369752Y-142046316D01*
X159223532Y-142349945D01*
X159112227Y-142668034D01*
X159112223Y-142668046D01*
X159037233Y-142996602D01*
X159037231Y-142996618D01*
X158999500Y-143331491D01*
X158999500Y-143668508D01*
X159037231Y-144003381D01*
X159037233Y-144003397D01*
X159112223Y-144331953D01*
X159112227Y-144331965D01*
X159223532Y-144650054D01*
X159369752Y-144953683D01*
X159369754Y-144953686D01*
X159549054Y-145239039D01*
X159582134Y-145280520D01*
X159596223Y-145298187D01*
X159622632Y-145362874D01*
X159609875Y-145431569D01*
X159562005Y-145482463D01*
X159499276Y-145499500D01*
X87189097Y-145499500D01*
X87122058Y-145479815D01*
X87076303Y-145427011D01*
X87066359Y-145357853D01*
X87095384Y-145294297D01*
X87101416Y-145287819D01*
X87199006Y-145190227D01*
X87555478Y-144833755D01*
X87616799Y-144800272D01*
X87681473Y-144803506D01*
X87723757Y-144817246D01*
X87933713Y-144850500D01*
X87933714Y-144850500D01*
X88146286Y-144850500D01*
X88146287Y-144850500D01*
X88356243Y-144817246D01*
X88558412Y-144751557D01*
X88747816Y-144655051D01*
X88834138Y-144592335D01*
X88919786Y-144530109D01*
X88919788Y-144530106D01*
X88919792Y-144530104D01*
X89070104Y-144379792D01*
X89070106Y-144379788D01*
X89070109Y-144379786D01*
X89195048Y-144207820D01*
X89195047Y-144207820D01*
X89195051Y-144207816D01*
X89199514Y-144199054D01*
X89247488Y-144148259D01*
X89315308Y-144131463D01*
X89381444Y-144153999D01*
X89420486Y-144199056D01*
X89424951Y-144207820D01*
X89549890Y-144379786D01*
X89700213Y-144530109D01*
X89872179Y-144655048D01*
X89872181Y-144655049D01*
X89872184Y-144655051D01*
X90061588Y-144751557D01*
X90263757Y-144817246D01*
X90473713Y-144850500D01*
X90473714Y-144850500D01*
X90686286Y-144850500D01*
X90686287Y-144850500D01*
X90896243Y-144817246D01*
X91098412Y-144751557D01*
X91287816Y-144655051D01*
X91374138Y-144592335D01*
X91459786Y-144530109D01*
X91459788Y-144530106D01*
X91459792Y-144530104D01*
X91610104Y-144379792D01*
X91610106Y-144379788D01*
X91610109Y-144379786D01*
X91735048Y-144207820D01*
X91735047Y-144207820D01*
X91735051Y-144207816D01*
X91739514Y-144199054D01*
X91787488Y-144148259D01*
X91855308Y-144131463D01*
X91921444Y-144153999D01*
X91960486Y-144199056D01*
X91964951Y-144207820D01*
X92089890Y-144379786D01*
X92240213Y-144530109D01*
X92412179Y-144655048D01*
X92412181Y-144655049D01*
X92412184Y-144655051D01*
X92601588Y-144751557D01*
X92803757Y-144817246D01*
X93013713Y-144850500D01*
X93013714Y-144850500D01*
X93226286Y-144850500D01*
X93226287Y-144850500D01*
X93436243Y-144817246D01*
X93638412Y-144751557D01*
X93827816Y-144655051D01*
X93914138Y-144592335D01*
X93999786Y-144530109D01*
X93999788Y-144530106D01*
X93999792Y-144530104D01*
X94150104Y-144379792D01*
X94150106Y-144379788D01*
X94150109Y-144379786D01*
X94275048Y-144207820D01*
X94275047Y-144207820D01*
X94275051Y-144207816D01*
X94279514Y-144199054D01*
X94327488Y-144148259D01*
X94395308Y-144131463D01*
X94461444Y-144153999D01*
X94500486Y-144199056D01*
X94504951Y-144207820D01*
X94629890Y-144379786D01*
X94780213Y-144530109D01*
X94952179Y-144655048D01*
X94952181Y-144655049D01*
X94952184Y-144655051D01*
X95141588Y-144751557D01*
X95343757Y-144817246D01*
X95553713Y-144850500D01*
X95553714Y-144850500D01*
X95766286Y-144850500D01*
X95766287Y-144850500D01*
X95976243Y-144817246D01*
X96178412Y-144751557D01*
X96367816Y-144655051D01*
X96454138Y-144592335D01*
X96539786Y-144530109D01*
X96539788Y-144530106D01*
X96539792Y-144530104D01*
X96690104Y-144379792D01*
X96690106Y-144379788D01*
X96690109Y-144379786D01*
X96815048Y-144207820D01*
X96815047Y-144207820D01*
X96815051Y-144207816D01*
X96819514Y-144199054D01*
X96867488Y-144148259D01*
X96935308Y-144131463D01*
X97001444Y-144153999D01*
X97040486Y-144199056D01*
X97044951Y-144207820D01*
X97169890Y-144379786D01*
X97320213Y-144530109D01*
X97492179Y-144655048D01*
X97492181Y-144655049D01*
X97492184Y-144655051D01*
X97681588Y-144751557D01*
X97883757Y-144817246D01*
X98093713Y-144850500D01*
X98093714Y-144850500D01*
X98306286Y-144850500D01*
X98306287Y-144850500D01*
X98516243Y-144817246D01*
X98718412Y-144751557D01*
X98907816Y-144655051D01*
X98994138Y-144592335D01*
X99079786Y-144530109D01*
X99079788Y-144530106D01*
X99079792Y-144530104D01*
X99230104Y-144379792D01*
X99230106Y-144379788D01*
X99230109Y-144379786D01*
X99355048Y-144207820D01*
X99355047Y-144207820D01*
X99355051Y-144207816D01*
X99359514Y-144199054D01*
X99407488Y-144148259D01*
X99475308Y-144131463D01*
X99541444Y-144153999D01*
X99580486Y-144199056D01*
X99584951Y-144207820D01*
X99709890Y-144379786D01*
X99860213Y-144530109D01*
X100032179Y-144655048D01*
X100032181Y-144655049D01*
X100032184Y-144655051D01*
X100221588Y-144751557D01*
X100423757Y-144817246D01*
X100633713Y-144850500D01*
X100633714Y-144850500D01*
X100846286Y-144850500D01*
X100846287Y-144850500D01*
X101056243Y-144817246D01*
X101258412Y-144751557D01*
X101447816Y-144655051D01*
X101534138Y-144592335D01*
X101619786Y-144530109D01*
X101619788Y-144530106D01*
X101619792Y-144530104D01*
X101770104Y-144379792D01*
X101770106Y-144379788D01*
X101770109Y-144379786D01*
X101895048Y-144207820D01*
X101895047Y-144207820D01*
X101895051Y-144207816D01*
X101899514Y-144199054D01*
X101947488Y-144148259D01*
X102015308Y-144131463D01*
X102081444Y-144153999D01*
X102120486Y-144199056D01*
X102124951Y-144207820D01*
X102249890Y-144379786D01*
X102400213Y-144530109D01*
X102572179Y-144655048D01*
X102572181Y-144655049D01*
X102572184Y-144655051D01*
X102761588Y-144751557D01*
X102963757Y-144817246D01*
X103173713Y-144850500D01*
X103173714Y-144850500D01*
X103386286Y-144850500D01*
X103386287Y-144850500D01*
X103596243Y-144817246D01*
X103798412Y-144751557D01*
X103987816Y-144655051D01*
X104074138Y-144592335D01*
X104159786Y-144530109D01*
X104159788Y-144530106D01*
X104159792Y-144530104D01*
X104310104Y-144379792D01*
X104310106Y-144379788D01*
X104310109Y-144379786D01*
X104435048Y-144207820D01*
X104435047Y-144207820D01*
X104435051Y-144207816D01*
X104439514Y-144199054D01*
X104487488Y-144148259D01*
X104555308Y-144131463D01*
X104621444Y-144153999D01*
X104660486Y-144199056D01*
X104664951Y-144207820D01*
X104789890Y-144379786D01*
X104940213Y-144530109D01*
X105112179Y-144655048D01*
X105112181Y-144655049D01*
X105112184Y-144655051D01*
X105301588Y-144751557D01*
X105503757Y-144817246D01*
X105713713Y-144850500D01*
X105713714Y-144850500D01*
X105926286Y-144850500D01*
X105926287Y-144850500D01*
X106136243Y-144817246D01*
X106338412Y-144751557D01*
X106527816Y-144655051D01*
X106614138Y-144592335D01*
X106699786Y-144530109D01*
X106699788Y-144530106D01*
X106699792Y-144530104D01*
X106850104Y-144379792D01*
X106850106Y-144379788D01*
X106850109Y-144379786D01*
X106975048Y-144207820D01*
X106975047Y-144207820D01*
X106975051Y-144207816D01*
X106979514Y-144199054D01*
X107027488Y-144148259D01*
X107095308Y-144131463D01*
X107161444Y-144153999D01*
X107200486Y-144199056D01*
X107204951Y-144207820D01*
X107329890Y-144379786D01*
X107480213Y-144530109D01*
X107652179Y-144655048D01*
X107652181Y-144655049D01*
X107652184Y-144655051D01*
X107841588Y-144751557D01*
X108043757Y-144817246D01*
X108253713Y-144850500D01*
X108253714Y-144850500D01*
X108466286Y-144850500D01*
X108466287Y-144850500D01*
X108676243Y-144817246D01*
X108878412Y-144751557D01*
X109067816Y-144655051D01*
X109154138Y-144592335D01*
X109239786Y-144530109D01*
X109239788Y-144530106D01*
X109239792Y-144530104D01*
X109390104Y-144379792D01*
X109390106Y-144379788D01*
X109390109Y-144379786D01*
X109515048Y-144207820D01*
X109515047Y-144207820D01*
X109515051Y-144207816D01*
X109519514Y-144199054D01*
X109567488Y-144148259D01*
X109635308Y-144131463D01*
X109701444Y-144153999D01*
X109740486Y-144199056D01*
X109744951Y-144207820D01*
X109869890Y-144379786D01*
X110020213Y-144530109D01*
X110192179Y-144655048D01*
X110192181Y-144655049D01*
X110192184Y-144655051D01*
X110381588Y-144751557D01*
X110583757Y-144817246D01*
X110793713Y-144850500D01*
X110793714Y-144850500D01*
X111006286Y-144850500D01*
X111006287Y-144850500D01*
X111216243Y-144817246D01*
X111418412Y-144751557D01*
X111607816Y-144655051D01*
X111694138Y-144592335D01*
X111779786Y-144530109D01*
X111779788Y-144530106D01*
X111779792Y-144530104D01*
X111930104Y-144379792D01*
X111930106Y-144379788D01*
X111930109Y-144379786D01*
X112055048Y-144207820D01*
X112055047Y-144207820D01*
X112055051Y-144207816D01*
X112059514Y-144199054D01*
X112107488Y-144148259D01*
X112175308Y-144131463D01*
X112241444Y-144153999D01*
X112280486Y-144199056D01*
X112284951Y-144207820D01*
X112409890Y-144379786D01*
X112560213Y-144530109D01*
X112732179Y-144655048D01*
X112732181Y-144655049D01*
X112732184Y-144655051D01*
X112921588Y-144751557D01*
X113123757Y-144817246D01*
X113333713Y-144850500D01*
X113333714Y-144850500D01*
X113546286Y-144850500D01*
X113546287Y-144850500D01*
X113756243Y-144817246D01*
X113958412Y-144751557D01*
X114147816Y-144655051D01*
X114234138Y-144592335D01*
X114319786Y-144530109D01*
X114319788Y-144530106D01*
X114319792Y-144530104D01*
X114470104Y-144379792D01*
X114470106Y-144379788D01*
X114470109Y-144379786D01*
X114595048Y-144207820D01*
X114595047Y-144207820D01*
X114595051Y-144207816D01*
X114599514Y-144199054D01*
X114647488Y-144148259D01*
X114715308Y-144131463D01*
X114781444Y-144153999D01*
X114820486Y-144199056D01*
X114824951Y-144207820D01*
X114949890Y-144379786D01*
X115100213Y-144530109D01*
X115272179Y-144655048D01*
X115272181Y-144655049D01*
X115272184Y-144655051D01*
X115461588Y-144751557D01*
X115663757Y-144817246D01*
X115873713Y-144850500D01*
X115873714Y-144850500D01*
X116086286Y-144850500D01*
X116086287Y-144850500D01*
X116296243Y-144817246D01*
X116498412Y-144751557D01*
X116687816Y-144655051D01*
X116774138Y-144592335D01*
X116859786Y-144530109D01*
X116859788Y-144530106D01*
X116859792Y-144530104D01*
X117010104Y-144379792D01*
X117010106Y-144379788D01*
X117010109Y-144379786D01*
X117135048Y-144207820D01*
X117135047Y-144207820D01*
X117135051Y-144207816D01*
X117139514Y-144199054D01*
X117187488Y-144148259D01*
X117255308Y-144131463D01*
X117321444Y-144153999D01*
X117360486Y-144199056D01*
X117364951Y-144207820D01*
X117489890Y-144379786D01*
X117640213Y-144530109D01*
X117812179Y-144655048D01*
X117812181Y-144655049D01*
X117812184Y-144655051D01*
X118001588Y-144751557D01*
X118203757Y-144817246D01*
X118413713Y-144850500D01*
X118413714Y-144850500D01*
X118626286Y-144850500D01*
X118626287Y-144850500D01*
X118836243Y-144817246D01*
X119038412Y-144751557D01*
X119227816Y-144655051D01*
X119314138Y-144592335D01*
X119399786Y-144530109D01*
X119399788Y-144530106D01*
X119399792Y-144530104D01*
X119550104Y-144379792D01*
X119550106Y-144379788D01*
X119550109Y-144379786D01*
X119675048Y-144207820D01*
X119675047Y-144207820D01*
X119675051Y-144207816D01*
X119679514Y-144199054D01*
X119727488Y-144148259D01*
X119795308Y-144131463D01*
X119861444Y-144153999D01*
X119900486Y-144199056D01*
X119904951Y-144207820D01*
X120029890Y-144379786D01*
X120180213Y-144530109D01*
X120352179Y-144655048D01*
X120352181Y-144655049D01*
X120352184Y-144655051D01*
X120541588Y-144751557D01*
X120743757Y-144817246D01*
X120953713Y-144850500D01*
X120953714Y-144850500D01*
X121166286Y-144850500D01*
X121166287Y-144850500D01*
X121376243Y-144817246D01*
X121578412Y-144751557D01*
X121767816Y-144655051D01*
X121854138Y-144592335D01*
X121939786Y-144530109D01*
X121939788Y-144530106D01*
X121939792Y-144530104D01*
X122090104Y-144379792D01*
X122090106Y-144379788D01*
X122090109Y-144379786D01*
X122215048Y-144207820D01*
X122215047Y-144207820D01*
X122215051Y-144207816D01*
X122219514Y-144199054D01*
X122267488Y-144148259D01*
X122335308Y-144131463D01*
X122401444Y-144153999D01*
X122440486Y-144199056D01*
X122444951Y-144207820D01*
X122569890Y-144379786D01*
X122720213Y-144530109D01*
X122892179Y-144655048D01*
X122892181Y-144655049D01*
X122892184Y-144655051D01*
X123081588Y-144751557D01*
X123283757Y-144817246D01*
X123493713Y-144850500D01*
X123493714Y-144850500D01*
X123706286Y-144850500D01*
X123706287Y-144850500D01*
X123916243Y-144817246D01*
X124118412Y-144751557D01*
X124307816Y-144655051D01*
X124394138Y-144592335D01*
X124479786Y-144530109D01*
X124479788Y-144530106D01*
X124479792Y-144530104D01*
X124630104Y-144379792D01*
X124630106Y-144379788D01*
X124630109Y-144379786D01*
X124755048Y-144207820D01*
X124755047Y-144207820D01*
X124755051Y-144207816D01*
X124759514Y-144199054D01*
X124807488Y-144148259D01*
X124875308Y-144131463D01*
X124941444Y-144153999D01*
X124980486Y-144199056D01*
X124984951Y-144207820D01*
X125109890Y-144379786D01*
X125260213Y-144530109D01*
X125432179Y-144655048D01*
X125432181Y-144655049D01*
X125432184Y-144655051D01*
X125621588Y-144751557D01*
X125823757Y-144817246D01*
X126033713Y-144850500D01*
X126033714Y-144850500D01*
X126246286Y-144850500D01*
X126246287Y-144850500D01*
X126456243Y-144817246D01*
X126658412Y-144751557D01*
X126847816Y-144655051D01*
X126934138Y-144592335D01*
X127019786Y-144530109D01*
X127019788Y-144530106D01*
X127019792Y-144530104D01*
X127170104Y-144379792D01*
X127170106Y-144379788D01*
X127170109Y-144379786D01*
X127295048Y-144207820D01*
X127295047Y-144207820D01*
X127295051Y-144207816D01*
X127299514Y-144199054D01*
X127347488Y-144148259D01*
X127415308Y-144131463D01*
X127481444Y-144153999D01*
X127520486Y-144199056D01*
X127524951Y-144207820D01*
X127649890Y-144379786D01*
X127800213Y-144530109D01*
X127972179Y-144655048D01*
X127972181Y-144655049D01*
X127972184Y-144655051D01*
X128161588Y-144751557D01*
X128363757Y-144817246D01*
X128573713Y-144850500D01*
X128573714Y-144850500D01*
X128786286Y-144850500D01*
X128786287Y-144850500D01*
X128996243Y-144817246D01*
X129198412Y-144751557D01*
X129387816Y-144655051D01*
X129474138Y-144592335D01*
X129559786Y-144530109D01*
X129559788Y-144530106D01*
X129559792Y-144530104D01*
X129710104Y-144379792D01*
X129710106Y-144379788D01*
X129710109Y-144379786D01*
X129835048Y-144207820D01*
X129835047Y-144207820D01*
X129835051Y-144207816D01*
X129839514Y-144199054D01*
X129887488Y-144148259D01*
X129955308Y-144131463D01*
X130021444Y-144153999D01*
X130060486Y-144199056D01*
X130064951Y-144207820D01*
X130189890Y-144379786D01*
X130340213Y-144530109D01*
X130512179Y-144655048D01*
X130512181Y-144655049D01*
X130512184Y-144655051D01*
X130701588Y-144751557D01*
X130903757Y-144817246D01*
X131113713Y-144850500D01*
X131113714Y-144850500D01*
X131326286Y-144850500D01*
X131326287Y-144850500D01*
X131536243Y-144817246D01*
X131738412Y-144751557D01*
X131927816Y-144655051D01*
X132099792Y-144530104D01*
X132213329Y-144416566D01*
X132274648Y-144383084D01*
X132344340Y-144388068D01*
X132400274Y-144429939D01*
X132417189Y-144460917D01*
X132466202Y-144592328D01*
X132466206Y-144592335D01*
X132552452Y-144707544D01*
X132552455Y-144707547D01*
X132667664Y-144793793D01*
X132667671Y-144793797D01*
X132802517Y-144844091D01*
X132802516Y-144844091D01*
X132809444Y-144844835D01*
X132862127Y-144850500D01*
X134657872Y-144850499D01*
X134717483Y-144844091D01*
X134852331Y-144793796D01*
X134967546Y-144707546D01*
X135053796Y-144592331D01*
X135104091Y-144457483D01*
X135110500Y-144397873D01*
X135110500Y-144224500D01*
X135130185Y-144157461D01*
X135182989Y-144111706D01*
X135234500Y-144100500D01*
X150213331Y-144100500D01*
X150213347Y-144100501D01*
X150220943Y-144100501D01*
X150379054Y-144100501D01*
X150379057Y-144100501D01*
X150531785Y-144059577D01*
X150581904Y-144030639D01*
X150668716Y-143980520D01*
X150780520Y-143868716D01*
X150780520Y-143868714D01*
X150790728Y-143858507D01*
X150790730Y-143858504D01*
X155168713Y-139480521D01*
X155168716Y-139480520D01*
X155280520Y-139368716D01*
X155330639Y-139281904D01*
X155359577Y-139231785D01*
X155400501Y-139079057D01*
X155400501Y-138920943D01*
X155400501Y-138913348D01*
X155400500Y-138913330D01*
X155400500Y-127300097D01*
X155420185Y-127233058D01*
X155436819Y-127212416D01*
X157222416Y-125426819D01*
X157283739Y-125393334D01*
X157310097Y-125390500D01*
X159325501Y-125390500D01*
X159392540Y-125410185D01*
G37*
%TD.AperFunction*%
%TA.AperFunction,NonConductor*%
G36*
X159566315Y-76520185D02*
G01*
X159612070Y-76572989D01*
X159622014Y-76642147D01*
X159596223Y-76701813D01*
X159549053Y-76760962D01*
X159369752Y-77046316D01*
X159223532Y-77349945D01*
X159112227Y-77668034D01*
X159112223Y-77668046D01*
X159037233Y-77996602D01*
X159037231Y-77996618D01*
X158999500Y-78331491D01*
X158999500Y-78668508D01*
X159037231Y-79003381D01*
X159037233Y-79003397D01*
X159112223Y-79331953D01*
X159112227Y-79331965D01*
X159223532Y-79650054D01*
X159369752Y-79953683D01*
X159369754Y-79953686D01*
X159549054Y-80239039D01*
X159759175Y-80502523D01*
X159997477Y-80740825D01*
X160260961Y-80950946D01*
X160546314Y-81130246D01*
X160849949Y-81276469D01*
X161088848Y-81360063D01*
X161168034Y-81387772D01*
X161168046Y-81387776D01*
X161496606Y-81462767D01*
X161831492Y-81500499D01*
X161831493Y-81500500D01*
X161831496Y-81500500D01*
X162168507Y-81500500D01*
X162168507Y-81500499D01*
X162503394Y-81462767D01*
X162831954Y-81387776D01*
X163150051Y-81276469D01*
X163453686Y-81130246D01*
X163739039Y-80950946D01*
X163798187Y-80903776D01*
X163862873Y-80877368D01*
X163931568Y-80890123D01*
X163982463Y-80937993D01*
X163999500Y-81000723D01*
X163999500Y-82950901D01*
X163993262Y-82972143D01*
X163991684Y-82994230D01*
X163983609Y-83005016D01*
X163979815Y-83017940D01*
X163963085Y-83032436D01*
X163949815Y-83050165D01*
X163937190Y-83054874D01*
X163927011Y-83063695D01*
X163905097Y-83066845D01*
X163884351Y-83074585D01*
X163871186Y-83071721D01*
X163857853Y-83073639D01*
X163837713Y-83064441D01*
X163816078Y-83059736D01*
X163798348Y-83046464D01*
X163794297Y-83044614D01*
X163787822Y-83038586D01*
X163768716Y-83019480D01*
X163768713Y-83019478D01*
X162787590Y-82038355D01*
X162787588Y-82038352D01*
X162668717Y-81919481D01*
X162668716Y-81919480D01*
X162581904Y-81869360D01*
X162581904Y-81869359D01*
X162581900Y-81869358D01*
X162531785Y-81840423D01*
X162379057Y-81799499D01*
X162220943Y-81799499D01*
X162213347Y-81799499D01*
X162213331Y-81799500D01*
X152900097Y-81799500D01*
X152833058Y-81779815D01*
X152812416Y-81763181D01*
X150887590Y-79838355D01*
X150887588Y-79838352D01*
X150768717Y-79719481D01*
X150768716Y-79719480D01*
X150681904Y-79669360D01*
X150681904Y-79669359D01*
X150681900Y-79669358D01*
X150631785Y-79640423D01*
X150479057Y-79599499D01*
X150320943Y-79599499D01*
X150313347Y-79599499D01*
X150313331Y-79599500D01*
X109746821Y-79599500D01*
X109705900Y-79610464D01*
X109705900Y-79610465D01*
X109668632Y-79620451D01*
X109594095Y-79640423D01*
X109594090Y-79640426D01*
X109457171Y-79719475D01*
X109457163Y-79719481D01*
X109345359Y-79831286D01*
X105651196Y-83525448D01*
X105589873Y-83558933D01*
X105525198Y-83555698D01*
X105475311Y-83539489D01*
X105303696Y-83512308D01*
X105263238Y-83505900D01*
X105048524Y-83505900D01*
X105008066Y-83512308D01*
X104836452Y-83539489D01*
X104632250Y-83605837D01*
X104632247Y-83605838D01*
X104440936Y-83703317D01*
X104357314Y-83764073D01*
X104267230Y-83829523D01*
X104267228Y-83829525D01*
X104267227Y-83829525D01*
X104115406Y-83981346D01*
X104115406Y-83981347D01*
X104115404Y-83981349D01*
X104094251Y-84010464D01*
X103986334Y-84158998D01*
X103984443Y-84157624D01*
X103939729Y-84198030D01*
X103870792Y-84209411D01*
X103806646Y-84181715D01*
X103786369Y-84158314D01*
X103785428Y-84158998D01*
X103756716Y-84119480D01*
X103656358Y-83981349D01*
X103504532Y-83829523D01*
X103330825Y-83703317D01*
X103139514Y-83605838D01*
X103139511Y-83605837D01*
X102935309Y-83539489D01*
X102763702Y-83512309D01*
X102723238Y-83505900D01*
X102508524Y-83505900D01*
X102468066Y-83512308D01*
X102296452Y-83539489D01*
X102092250Y-83605837D01*
X102092247Y-83605838D01*
X101900936Y-83703317D01*
X101817314Y-83764073D01*
X101727230Y-83829523D01*
X101727228Y-83829525D01*
X101727227Y-83829525D01*
X101575406Y-83981346D01*
X101575406Y-83981347D01*
X101575404Y-83981349D01*
X101554251Y-84010464D01*
X101449198Y-84155055D01*
X101351719Y-84346366D01*
X101351718Y-84346369D01*
X101285370Y-84550571D01*
X101285370Y-84550573D01*
X101251781Y-84762643D01*
X101251781Y-84977357D01*
X101268542Y-85083181D01*
X101285370Y-85189428D01*
X101351718Y-85393630D01*
X101351719Y-85393633D01*
X101435533Y-85558125D01*
X101449198Y-85584944D01*
X101575404Y-85758651D01*
X101727230Y-85910477D01*
X101900937Y-86036683D01*
X101947675Y-86060497D01*
X102092247Y-86134161D01*
X102092250Y-86134162D01*
X102194351Y-86167336D01*
X102296454Y-86200511D01*
X102508524Y-86234100D01*
X102508525Y-86234100D01*
X102723237Y-86234100D01*
X102723238Y-86234100D01*
X102935308Y-86200511D01*
X103139514Y-86134161D01*
X103330825Y-86036683D01*
X103504532Y-85910477D01*
X103656358Y-85758651D01*
X103782564Y-85584944D01*
X103782564Y-85584943D01*
X103785428Y-85581002D01*
X103787359Y-85582405D01*
X103831808Y-85542078D01*
X103900721Y-85530558D01*
X103964923Y-85558125D01*
X103985359Y-85581709D01*
X103986334Y-85581002D01*
X103989197Y-85584943D01*
X103989198Y-85584944D01*
X104115404Y-85758651D01*
X104267230Y-85910477D01*
X104440937Y-86036683D01*
X104487675Y-86060497D01*
X104632247Y-86134161D01*
X104632250Y-86134162D01*
X104734351Y-86167336D01*
X104836454Y-86200511D01*
X105048524Y-86234100D01*
X105048525Y-86234100D01*
X105263237Y-86234100D01*
X105263238Y-86234100D01*
X105475308Y-86200511D01*
X105679514Y-86134161D01*
X105870825Y-86036683D01*
X106044532Y-85910477D01*
X106196358Y-85758651D01*
X106322564Y-85584944D01*
X106322564Y-85584943D01*
X106325428Y-85581002D01*
X106327359Y-85582405D01*
X106371808Y-85542078D01*
X106440721Y-85530558D01*
X106504923Y-85558125D01*
X106525359Y-85581709D01*
X106526334Y-85581002D01*
X106529197Y-85584943D01*
X106529198Y-85584944D01*
X106655404Y-85758651D01*
X106807230Y-85910477D01*
X106980937Y-86036683D01*
X107027675Y-86060497D01*
X107172247Y-86134161D01*
X107172250Y-86134162D01*
X107274351Y-86167336D01*
X107376454Y-86200511D01*
X107588524Y-86234100D01*
X107588525Y-86234100D01*
X107803237Y-86234100D01*
X107803238Y-86234100D01*
X108015308Y-86200511D01*
X108219514Y-86134161D01*
X108410825Y-86036683D01*
X108584532Y-85910477D01*
X108680835Y-85814173D01*
X108742154Y-85780691D01*
X108811846Y-85785675D01*
X108867780Y-85827546D01*
X108884695Y-85858524D01*
X108928483Y-85975928D01*
X108928487Y-85975935D01*
X109014733Y-86091144D01*
X109014736Y-86091147D01*
X109129945Y-86177393D01*
X109129952Y-86177397D01*
X109264798Y-86227691D01*
X109264797Y-86227691D01*
X109271725Y-86228435D01*
X109324408Y-86234100D01*
X111147353Y-86234099D01*
X111206964Y-86227691D01*
X111341812Y-86177396D01*
X111457027Y-86091146D01*
X111543277Y-85975931D01*
X111587067Y-85858523D01*
X111628936Y-85802591D01*
X111694400Y-85778173D01*
X111762673Y-85793024D01*
X111790929Y-85814176D01*
X111887230Y-85910477D01*
X112060937Y-86036683D01*
X112107675Y-86060497D01*
X112252247Y-86134161D01*
X112252250Y-86134162D01*
X112354351Y-86167336D01*
X112456454Y-86200511D01*
X112668524Y-86234100D01*
X112668525Y-86234100D01*
X112883237Y-86234100D01*
X112883238Y-86234100D01*
X113095308Y-86200511D01*
X113299514Y-86134161D01*
X113490825Y-86036683D01*
X113664532Y-85910477D01*
X113816358Y-85758651D01*
X113942564Y-85584944D01*
X113942564Y-85584943D01*
X113945428Y-85581002D01*
X113947359Y-85582405D01*
X113991808Y-85542078D01*
X114060721Y-85530558D01*
X114124923Y-85558125D01*
X114145359Y-85581709D01*
X114146334Y-85581002D01*
X114149197Y-85584943D01*
X114149198Y-85584944D01*
X114275404Y-85758651D01*
X114427230Y-85910477D01*
X114600937Y-86036683D01*
X114647675Y-86060497D01*
X114792247Y-86134161D01*
X114792250Y-86134162D01*
X114894351Y-86167336D01*
X114996454Y-86200511D01*
X115208524Y-86234100D01*
X115208525Y-86234100D01*
X115423237Y-86234100D01*
X115423238Y-86234100D01*
X115635308Y-86200511D01*
X115839514Y-86134161D01*
X116030825Y-86036683D01*
X116204532Y-85910477D01*
X116356358Y-85758651D01*
X116482564Y-85584944D01*
X116482564Y-85584943D01*
X116485428Y-85581002D01*
X116487359Y-85582405D01*
X116531808Y-85542078D01*
X116600721Y-85530558D01*
X116664923Y-85558125D01*
X116685359Y-85581709D01*
X116686334Y-85581002D01*
X116689197Y-85584943D01*
X116689198Y-85584944D01*
X116815404Y-85758651D01*
X116967230Y-85910477D01*
X117140937Y-86036683D01*
X117187675Y-86060497D01*
X117332247Y-86134161D01*
X117332250Y-86134162D01*
X117434351Y-86167336D01*
X117536454Y-86200511D01*
X117748524Y-86234100D01*
X117748525Y-86234100D01*
X117963237Y-86234100D01*
X117963238Y-86234100D01*
X118175308Y-86200511D01*
X118379514Y-86134161D01*
X118570825Y-86036683D01*
X118744532Y-85910477D01*
X118896358Y-85758651D01*
X119022564Y-85584944D01*
X119022564Y-85584943D01*
X119025428Y-85581002D01*
X119027359Y-85582405D01*
X119071808Y-85542078D01*
X119140721Y-85530558D01*
X119204923Y-85558125D01*
X119225359Y-85581709D01*
X119226334Y-85581002D01*
X119229197Y-85584943D01*
X119229198Y-85584944D01*
X119355404Y-85758651D01*
X119507230Y-85910477D01*
X119597325Y-85975935D01*
X119680938Y-86036684D01*
X119727675Y-86060497D01*
X119778471Y-86108471D01*
X119795381Y-86170982D01*
X119795381Y-92709211D01*
X119795380Y-92709229D01*
X119795380Y-92874935D01*
X119795379Y-92874935D01*
X119836304Y-93027666D01*
X119865239Y-93077781D01*
X119865240Y-93077785D01*
X119865241Y-93077785D01*
X119909071Y-93153703D01*
X119915360Y-93164595D01*
X119915362Y-93164598D01*
X120034230Y-93283466D01*
X120034236Y-93283471D01*
X126763181Y-100012416D01*
X126796666Y-100073739D01*
X126799500Y-100100097D01*
X126799500Y-122113444D01*
X126779815Y-122180483D01*
X126727011Y-122226238D01*
X126657853Y-122236182D01*
X126639575Y-122231202D01*
X126639324Y-122232031D01*
X126633500Y-122230264D01*
X126633497Y-122230263D01*
X126633492Y-122230262D01*
X126633489Y-122230261D01*
X126478845Y-122199500D01*
X126478842Y-122199500D01*
X126321158Y-122199500D01*
X126321155Y-122199500D01*
X126166510Y-122230261D01*
X126166498Y-122230264D01*
X126020827Y-122290602D01*
X126020814Y-122290609D01*
X125889711Y-122378210D01*
X125889707Y-122378213D01*
X125778213Y-122489707D01*
X125778210Y-122489711D01*
X125690609Y-122620814D01*
X125690602Y-122620827D01*
X125630264Y-122766498D01*
X125630261Y-122766508D01*
X125599362Y-122921848D01*
X125566977Y-122983759D01*
X125565426Y-122985337D01*
X120387584Y-128163181D01*
X120326261Y-128196666D01*
X120299903Y-128199500D01*
X96486670Y-128199500D01*
X96486654Y-128199499D01*
X96479058Y-128199499D01*
X96320943Y-128199499D01*
X96244579Y-128219961D01*
X96168214Y-128240423D01*
X96168209Y-128240426D01*
X96031290Y-128319475D01*
X96031282Y-128319481D01*
X90585339Y-133765425D01*
X90524016Y-133798910D01*
X90521850Y-133799361D01*
X90366508Y-133830261D01*
X90366498Y-133830264D01*
X90220827Y-133890602D01*
X90220814Y-133890609D01*
X90089711Y-133978210D01*
X90089707Y-133978213D01*
X89978213Y-134089707D01*
X89978210Y-134089711D01*
X89890609Y-134220814D01*
X89890602Y-134220827D01*
X89830264Y-134366498D01*
X89830261Y-134366510D01*
X89799500Y-134521153D01*
X89799500Y-134678846D01*
X89830261Y-134833489D01*
X89830264Y-134833501D01*
X89890602Y-134979172D01*
X89890609Y-134979185D01*
X89978210Y-135110288D01*
X89978213Y-135110292D01*
X90089707Y-135221786D01*
X90089711Y-135221789D01*
X90220814Y-135309390D01*
X90220827Y-135309397D01*
X90366498Y-135369735D01*
X90366503Y-135369737D01*
X90521153Y-135400499D01*
X90521156Y-135400500D01*
X90521158Y-135400500D01*
X90678844Y-135400500D01*
X90678845Y-135400499D01*
X90833497Y-135369737D01*
X90979179Y-135309394D01*
X91110289Y-135221789D01*
X91221789Y-135110289D01*
X91309394Y-134979179D01*
X91369737Y-134833497D01*
X91389113Y-134736085D01*
X91400638Y-134678150D01*
X91433023Y-134616239D01*
X91434518Y-134614716D01*
X93040524Y-133008711D01*
X95939381Y-133008711D01*
X95939381Y-133251288D01*
X95971042Y-133491785D01*
X96033828Y-133726104D01*
X96126654Y-133950205D01*
X96126657Y-133950212D01*
X96247945Y-134160289D01*
X96247947Y-134160292D01*
X96247948Y-134160293D01*
X96395614Y-134352736D01*
X96395620Y-134352743D01*
X96567137Y-134524260D01*
X96567144Y-134524266D01*
X96680202Y-134611018D01*
X96759592Y-134671936D01*
X96969669Y-134793224D01*
X97193781Y-134886054D01*
X97428092Y-134948838D01*
X97598384Y-134971257D01*
X97668592Y-134980500D01*
X97668593Y-134980500D01*
X97911170Y-134980500D01*
X97959269Y-134974167D01*
X98151670Y-134948838D01*
X98385981Y-134886054D01*
X98610093Y-134793224D01*
X98820170Y-134671936D01*
X99012619Y-134524265D01*
X99184146Y-134352738D01*
X99331817Y-134160289D01*
X99453105Y-133950212D01*
X99545935Y-133726100D01*
X99608719Y-133491789D01*
X99640381Y-133251288D01*
X99640381Y-133022643D01*
X100235781Y-133022643D01*
X100235781Y-133237357D01*
X100244085Y-133289786D01*
X100269370Y-133449428D01*
X100335718Y-133653630D01*
X100335719Y-133653633D01*
X100419533Y-133818125D01*
X100433198Y-133844944D01*
X100559404Y-134018651D01*
X100711230Y-134170477D01*
X100884937Y-134296683D01*
X100931675Y-134320497D01*
X101076247Y-134394161D01*
X101076250Y-134394162D01*
X101178351Y-134427336D01*
X101280454Y-134460511D01*
X101492524Y-134494100D01*
X101492525Y-134494100D01*
X101707237Y-134494100D01*
X101707238Y-134494100D01*
X101919308Y-134460511D01*
X102123514Y-134394161D01*
X102314825Y-134296683D01*
X102488532Y-134170477D01*
X102584835Y-134074173D01*
X102646154Y-134040691D01*
X102715846Y-134045675D01*
X102771780Y-134087546D01*
X102788695Y-134118524D01*
X102832483Y-134235928D01*
X102832487Y-134235935D01*
X102918733Y-134351144D01*
X102918736Y-134351147D01*
X103033945Y-134437393D01*
X103033952Y-134437397D01*
X103168798Y-134487691D01*
X103168797Y-134487691D01*
X103175725Y-134488435D01*
X103228408Y-134494100D01*
X105051353Y-134494099D01*
X105110964Y-134487691D01*
X105245812Y-134437396D01*
X105361027Y-134351146D01*
X105447277Y-134235931D01*
X105491067Y-134118523D01*
X105532936Y-134062591D01*
X105598400Y-134038173D01*
X105666673Y-134053024D01*
X105694928Y-134074175D01*
X105791230Y-134170477D01*
X105964937Y-134296683D01*
X106011675Y-134320497D01*
X106156247Y-134394161D01*
X106156250Y-134394162D01*
X106258351Y-134427336D01*
X106360454Y-134460511D01*
X106572524Y-134494100D01*
X106572525Y-134494100D01*
X106787237Y-134494100D01*
X106787238Y-134494100D01*
X106999308Y-134460511D01*
X107203514Y-134394161D01*
X107394825Y-134296683D01*
X107568532Y-134170477D01*
X107720358Y-134018651D01*
X107846564Y-133844944D01*
X107944042Y-133653633D01*
X108010392Y-133449427D01*
X108043981Y-133237357D01*
X108043981Y-133022643D01*
X108010392Y-132810573D01*
X107970701Y-132688415D01*
X107944043Y-132606369D01*
X107944042Y-132606366D01*
X107860147Y-132441715D01*
X107846564Y-132415056D01*
X107720358Y-132241349D01*
X107568532Y-132089523D01*
X107394825Y-131963317D01*
X107394821Y-131963315D01*
X107203514Y-131865838D01*
X107203511Y-131865837D01*
X106999309Y-131799489D01*
X106827702Y-131772309D01*
X106787238Y-131765900D01*
X106572524Y-131765900D01*
X106532066Y-131772308D01*
X106360452Y-131799489D01*
X106156250Y-131865837D01*
X106156247Y-131865838D01*
X105964936Y-131963317D01*
X105791231Y-132089522D01*
X105694929Y-132185824D01*
X105633605Y-132219308D01*
X105563914Y-132214324D01*
X105507981Y-132172452D01*
X105491066Y-132141474D01*
X105447279Y-132024073D01*
X105447274Y-132024064D01*
X105361028Y-131908855D01*
X105361025Y-131908852D01*
X105245816Y-131822606D01*
X105245809Y-131822602D01*
X105110963Y-131772308D01*
X105110964Y-131772308D01*
X105051364Y-131765901D01*
X105051362Y-131765900D01*
X105051354Y-131765900D01*
X105051345Y-131765900D01*
X103228410Y-131765900D01*
X103228404Y-131765901D01*
X103168797Y-131772308D01*
X103033952Y-131822602D01*
X103033945Y-131822606D01*
X102918736Y-131908852D01*
X102918733Y-131908855D01*
X102832487Y-132024064D01*
X102832483Y-132024071D01*
X102788695Y-132141475D01*
X102746824Y-132197409D01*
X102681360Y-132221826D01*
X102613087Y-132206974D01*
X102584832Y-132185823D01*
X102488534Y-132089525D01*
X102488532Y-132089523D01*
X102314825Y-131963317D01*
X102314821Y-131963315D01*
X102123514Y-131865838D01*
X102123511Y-131865837D01*
X101919309Y-131799489D01*
X101747702Y-131772309D01*
X101707238Y-131765900D01*
X101492524Y-131765900D01*
X101452066Y-131772308D01*
X101280452Y-131799489D01*
X101076250Y-131865837D01*
X101076247Y-131865838D01*
X100884936Y-131963317D01*
X100801314Y-132024073D01*
X100711230Y-132089523D01*
X100711228Y-132089525D01*
X100711227Y-132089525D01*
X100559406Y-132241346D01*
X100559406Y-132241347D01*
X100559404Y-132241349D01*
X100514094Y-132303713D01*
X100433198Y-132415055D01*
X100335719Y-132606366D01*
X100335718Y-132606369D01*
X100269370Y-132810571D01*
X100237988Y-133008711D01*
X100235781Y-133022643D01*
X99640381Y-133022643D01*
X99640381Y-133008712D01*
X99608719Y-132768211D01*
X99545935Y-132533900D01*
X99538639Y-132516287D01*
X99453107Y-132309794D01*
X99453105Y-132309788D01*
X99331817Y-132099711D01*
X99239352Y-131979208D01*
X99184147Y-131907263D01*
X99184141Y-131907256D01*
X99012624Y-131735739D01*
X99012617Y-131735733D01*
X98820174Y-131588067D01*
X98820173Y-131588066D01*
X98820170Y-131588064D01*
X98610093Y-131466776D01*
X98610086Y-131466773D01*
X98385985Y-131373947D01*
X98151666Y-131311161D01*
X97911170Y-131279500D01*
X97911169Y-131279500D01*
X97668593Y-131279500D01*
X97668592Y-131279500D01*
X97428095Y-131311161D01*
X97193776Y-131373947D01*
X96969675Y-131466773D01*
X96969666Y-131466777D01*
X96759587Y-131588067D01*
X96567144Y-131735733D01*
X96567137Y-131735739D01*
X96395620Y-131907256D01*
X96395614Y-131907263D01*
X96247948Y-132099706D01*
X96126658Y-132309785D01*
X96126654Y-132309794D01*
X96033828Y-132533895D01*
X95971042Y-132768214D01*
X95939381Y-133008711D01*
X93040524Y-133008711D01*
X96612417Y-129436819D01*
X96673740Y-129403334D01*
X96700098Y-129400500D01*
X120513331Y-129400500D01*
X120513347Y-129400501D01*
X120520943Y-129400501D01*
X120679054Y-129400501D01*
X120679057Y-129400501D01*
X120831785Y-129359577D01*
X120902558Y-129318716D01*
X120968716Y-129280520D01*
X121080520Y-129168716D01*
X121080520Y-129168714D01*
X121090724Y-129158511D01*
X121090727Y-129158506D01*
X126414664Y-123834571D01*
X126430888Y-123825712D01*
X126444104Y-123812782D01*
X126474284Y-123802016D01*
X126475985Y-123801088D01*
X126477305Y-123800808D01*
X126478799Y-123800500D01*
X126478842Y-123800500D01*
X126633497Y-123769737D01*
X126638930Y-123767486D01*
X126650462Y-123765109D01*
X126673939Y-123767045D01*
X126697359Y-123764497D01*
X126708115Y-123769863D01*
X126720095Y-123770852D01*
X126738799Y-123785173D01*
X126759878Y-123795691D01*
X126766024Y-123806020D01*
X126775570Y-123813329D01*
X126783563Y-123835492D01*
X126795608Y-123855734D01*
X126798164Y-123875982D01*
X126799273Y-123879055D01*
X126798808Y-123881082D01*
X126799500Y-123886555D01*
X126799500Y-128899901D01*
X126779815Y-128966940D01*
X126763181Y-128987582D01*
X126762181Y-128988582D01*
X126700858Y-129022067D01*
X126631166Y-129017083D01*
X126575233Y-128975211D01*
X126550816Y-128909747D01*
X126550500Y-128900901D01*
X126550500Y-128871155D01*
X126550499Y-128871153D01*
X126550310Y-128870205D01*
X126519737Y-128716503D01*
X126517244Y-128710484D01*
X126459397Y-128570827D01*
X126459390Y-128570814D01*
X126371789Y-128439711D01*
X126371786Y-128439707D01*
X126260292Y-128328213D01*
X126260288Y-128328210D01*
X126129185Y-128240609D01*
X126129172Y-128240602D01*
X125983501Y-128180264D01*
X125983489Y-128180261D01*
X125828845Y-128149500D01*
X125828842Y-128149500D01*
X125671158Y-128149500D01*
X125671155Y-128149500D01*
X125516510Y-128180261D01*
X125516498Y-128180264D01*
X125370827Y-128240602D01*
X125370814Y-128240609D01*
X125239125Y-128328602D01*
X125172447Y-128349480D01*
X125170234Y-128349500D01*
X124375241Y-128349500D01*
X124335669Y-128360103D01*
X124335670Y-128360104D01*
X124222516Y-128390423D01*
X124222511Y-128390426D01*
X124085592Y-128469475D01*
X124085584Y-128469481D01*
X123973780Y-128581286D01*
X120454718Y-132100347D01*
X120393395Y-132133832D01*
X120323703Y-132128848D01*
X120279356Y-132100347D01*
X120268534Y-132089525D01*
X120268532Y-132089523D01*
X120094825Y-131963317D01*
X120094821Y-131963315D01*
X119903514Y-131865838D01*
X119903511Y-131865837D01*
X119699309Y-131799489D01*
X119527702Y-131772309D01*
X119487238Y-131765900D01*
X119272524Y-131765900D01*
X119232066Y-131772308D01*
X119060452Y-131799489D01*
X118856250Y-131865837D01*
X118856247Y-131865838D01*
X118664936Y-131963317D01*
X118581314Y-132024073D01*
X118491230Y-132089523D01*
X118491228Y-132089525D01*
X118491227Y-132089525D01*
X118339406Y-132241346D01*
X118339406Y-132241347D01*
X118339404Y-132241349D01*
X118294094Y-132303713D01*
X118210334Y-132418998D01*
X118208443Y-132417624D01*
X118163729Y-132458030D01*
X118094792Y-132469411D01*
X118030646Y-132441715D01*
X118010369Y-132418314D01*
X118009428Y-132418998D01*
X118006563Y-132415055D01*
X117880358Y-132241349D01*
X117728532Y-132089523D01*
X117554825Y-131963317D01*
X117554821Y-131963315D01*
X117363514Y-131865838D01*
X117363511Y-131865837D01*
X117159309Y-131799489D01*
X116987702Y-131772309D01*
X116947238Y-131765900D01*
X116732524Y-131765900D01*
X116692066Y-131772308D01*
X116520452Y-131799489D01*
X116316250Y-131865837D01*
X116316247Y-131865838D01*
X116124936Y-131963317D01*
X116041314Y-132024073D01*
X115951230Y-132089523D01*
X115951228Y-132089525D01*
X115951227Y-132089525D01*
X115799406Y-132241346D01*
X115799406Y-132241347D01*
X115799404Y-132241349D01*
X115754094Y-132303713D01*
X115670334Y-132418998D01*
X115668443Y-132417624D01*
X115623729Y-132458030D01*
X115554792Y-132469411D01*
X115490646Y-132441715D01*
X115470369Y-132418314D01*
X115469428Y-132418998D01*
X115466563Y-132415055D01*
X115340358Y-132241349D01*
X115188532Y-132089523D01*
X115014825Y-131963317D01*
X115014821Y-131963315D01*
X114823514Y-131865838D01*
X114823511Y-131865837D01*
X114619309Y-131799489D01*
X114447702Y-131772309D01*
X114407238Y-131765900D01*
X114192524Y-131765900D01*
X114152066Y-131772308D01*
X113980452Y-131799489D01*
X113776250Y-131865837D01*
X113776247Y-131865838D01*
X113584936Y-131963317D01*
X113501314Y-132024073D01*
X113411230Y-132089523D01*
X113411228Y-132089525D01*
X113411227Y-132089525D01*
X113259406Y-132241346D01*
X113259406Y-132241347D01*
X113259404Y-132241349D01*
X113214094Y-132303713D01*
X113130334Y-132418998D01*
X113128443Y-132417624D01*
X113083729Y-132458030D01*
X113014792Y-132469411D01*
X112950646Y-132441715D01*
X112930369Y-132418314D01*
X112929428Y-132418998D01*
X112926563Y-132415055D01*
X112800358Y-132241349D01*
X112648532Y-132089523D01*
X112474825Y-131963317D01*
X112474821Y-131963315D01*
X112283514Y-131865838D01*
X112283511Y-131865837D01*
X112079309Y-131799489D01*
X111907702Y-131772309D01*
X111867238Y-131765900D01*
X111652524Y-131765900D01*
X111612066Y-131772308D01*
X111440452Y-131799489D01*
X111236250Y-131865837D01*
X111236247Y-131865838D01*
X111044936Y-131963317D01*
X110961314Y-132024073D01*
X110871230Y-132089523D01*
X110871228Y-132089525D01*
X110871227Y-132089525D01*
X110719406Y-132241346D01*
X110719406Y-132241347D01*
X110719404Y-132241349D01*
X110674094Y-132303713D01*
X110593198Y-132415055D01*
X110495719Y-132606366D01*
X110495718Y-132606369D01*
X110429370Y-132810571D01*
X110397988Y-133008711D01*
X110395781Y-133022643D01*
X110395781Y-133237357D01*
X110404085Y-133289786D01*
X110429370Y-133449428D01*
X110495718Y-133653630D01*
X110495719Y-133653633D01*
X110579533Y-133818125D01*
X110593198Y-133844944D01*
X110719404Y-134018651D01*
X110719406Y-134018653D01*
X110738572Y-134037819D01*
X110772057Y-134099142D01*
X110767073Y-134168834D01*
X110725201Y-134224767D01*
X110659737Y-134249184D01*
X110650891Y-134249500D01*
X109029766Y-134249500D01*
X108962727Y-134229815D01*
X108960875Y-134228602D01*
X108829185Y-134140609D01*
X108829172Y-134140602D01*
X108683501Y-134080264D01*
X108683489Y-134080261D01*
X108528845Y-134049500D01*
X108528842Y-134049500D01*
X108371158Y-134049500D01*
X108371155Y-134049500D01*
X108216510Y-134080261D01*
X108216498Y-134080264D01*
X108070827Y-134140602D01*
X108070814Y-134140609D01*
X107939711Y-134228210D01*
X107939707Y-134228213D01*
X107828213Y-134339707D01*
X107828210Y-134339711D01*
X107740609Y-134470814D01*
X107740602Y-134470827D01*
X107680264Y-134616498D01*
X107680261Y-134616510D01*
X107649500Y-134771153D01*
X107649500Y-134928846D01*
X107680261Y-135083489D01*
X107680264Y-135083501D01*
X107740602Y-135229172D01*
X107740609Y-135229185D01*
X107828210Y-135360288D01*
X107828213Y-135360292D01*
X107939707Y-135471786D01*
X107939711Y-135471789D01*
X108070814Y-135559390D01*
X108070827Y-135559397D01*
X108216498Y-135619735D01*
X108216503Y-135619737D01*
X108371153Y-135650499D01*
X108371156Y-135650500D01*
X108371158Y-135650500D01*
X108528844Y-135650500D01*
X108528845Y-135650499D01*
X108683497Y-135619737D01*
X108829179Y-135559394D01*
X108829185Y-135559390D01*
X108960875Y-135471398D01*
X109027553Y-135450520D01*
X109029766Y-135450500D01*
X119431591Y-135450500D01*
X119431607Y-135450501D01*
X119439203Y-135450501D01*
X119597314Y-135450501D01*
X119597317Y-135450501D01*
X119750045Y-135409577D01*
X119800164Y-135380639D01*
X119886976Y-135330520D01*
X119998780Y-135218716D01*
X119998780Y-135218714D01*
X120008988Y-135208507D01*
X120008990Y-135208504D01*
X120965488Y-134252005D01*
X120992392Y-134237315D01*
X121018172Y-134220729D01*
X121022771Y-134220726D01*
X121026809Y-134218522D01*
X121057387Y-134220708D01*
X121088042Y-134220693D01*
X121093301Y-134223277D01*
X121096501Y-134223506D01*
X121120154Y-134235339D01*
X121123167Y-134237273D01*
X121204937Y-134296683D01*
X121257176Y-134323300D01*
X121262368Y-134326633D01*
X121281378Y-134348550D01*
X121302471Y-134368471D01*
X121304199Y-134374860D01*
X121308149Y-134379414D01*
X121311256Y-134400947D01*
X121319381Y-134430982D01*
X121319381Y-137580022D01*
X121299696Y-137647061D01*
X121283062Y-137667703D01*
X120987584Y-137963181D01*
X120926261Y-137996666D01*
X120899903Y-137999500D01*
X86079057Y-137999500D01*
X85920943Y-137999500D01*
X85768215Y-138040423D01*
X85768214Y-138040423D01*
X85768212Y-138040424D01*
X85768209Y-138040425D01*
X85718096Y-138069359D01*
X85718095Y-138069360D01*
X85674689Y-138094420D01*
X85631285Y-138119479D01*
X85631282Y-138119481D01*
X83633756Y-140117007D01*
X83633747Y-140117016D01*
X83631286Y-140119478D01*
X83631284Y-140119480D01*
X83519480Y-140231284D01*
X83503574Y-140258835D01*
X83497183Y-140269903D01*
X83497183Y-140269904D01*
X83440424Y-140368213D01*
X83440423Y-140368215D01*
X83399499Y-140520943D01*
X83399499Y-140520945D01*
X83399499Y-140689046D01*
X83399500Y-140689059D01*
X83399500Y-144713330D01*
X83399499Y-144713348D01*
X83399499Y-144879054D01*
X83399498Y-144879054D01*
X83440423Y-145031786D01*
X83440424Y-145031787D01*
X83464417Y-145073344D01*
X83519481Y-145168717D01*
X83638349Y-145287585D01*
X83638355Y-145287590D01*
X83638584Y-145287819D01*
X83672069Y-145349142D01*
X83667085Y-145418834D01*
X83625213Y-145474767D01*
X83559749Y-145499184D01*
X83550903Y-145499500D01*
X76500724Y-145499500D01*
X76433685Y-145479815D01*
X76387930Y-145427011D01*
X76377986Y-145357853D01*
X76403777Y-145298187D01*
X76417865Y-145280521D01*
X76450946Y-145239039D01*
X76630246Y-144953686D01*
X76776469Y-144650051D01*
X76887776Y-144331954D01*
X76962767Y-144003394D01*
X77000500Y-143668504D01*
X77000500Y-143331496D01*
X76962767Y-142996606D01*
X76887776Y-142668046D01*
X76776469Y-142349949D01*
X76630246Y-142046314D01*
X76450946Y-141760961D01*
X76240825Y-141497477D01*
X76002523Y-141259175D01*
X75739039Y-141049054D01*
X75453686Y-140869754D01*
X75453683Y-140869752D01*
X75150054Y-140723532D01*
X74831965Y-140612227D01*
X74831953Y-140612223D01*
X74503397Y-140537233D01*
X74503381Y-140537231D01*
X74168508Y-140499500D01*
X74168504Y-140499500D01*
X73831496Y-140499500D01*
X73831491Y-140499500D01*
X73496618Y-140537231D01*
X73496602Y-140537233D01*
X73168046Y-140612223D01*
X73168034Y-140612227D01*
X72849945Y-140723532D01*
X72546316Y-140869752D01*
X72260963Y-141049052D01*
X72201812Y-141096223D01*
X72137125Y-141122631D01*
X72068429Y-141109874D01*
X72017536Y-141062003D01*
X72000500Y-140999275D01*
X72000500Y-92328653D01*
X98711781Y-92328653D01*
X98711781Y-92543366D01*
X98745370Y-92755438D01*
X98811718Y-92959640D01*
X98811719Y-92959643D01*
X98897032Y-93127077D01*
X98909198Y-93150954D01*
X99035404Y-93324661D01*
X99035406Y-93324663D01*
X99131704Y-93420961D01*
X99165189Y-93482284D01*
X99160205Y-93551976D01*
X99118333Y-93607909D01*
X99087356Y-93624824D01*
X98969952Y-93668612D01*
X98969945Y-93668616D01*
X98854736Y-93754862D01*
X98854733Y-93754865D01*
X98768487Y-93870074D01*
X98768483Y-93870081D01*
X98718189Y-94004927D01*
X98711782Y-94064526D01*
X98711781Y-94064545D01*
X98711781Y-95887480D01*
X98711782Y-95887486D01*
X98718189Y-95947093D01*
X98768483Y-96081938D01*
X98768487Y-96081945D01*
X98854733Y-96197154D01*
X98854736Y-96197157D01*
X98969945Y-96283403D01*
X98969952Y-96283407D01*
X99104798Y-96333701D01*
X99104797Y-96333701D01*
X99111725Y-96334445D01*
X99164408Y-96340110D01*
X100987353Y-96340109D01*
X101046964Y-96333701D01*
X101181812Y-96283406D01*
X101297027Y-96197156D01*
X101383277Y-96081941D01*
X101427067Y-95964533D01*
X101468936Y-95908601D01*
X101534400Y-95884183D01*
X101602673Y-95899034D01*
X101630929Y-95920186D01*
X101727230Y-96016487D01*
X101900937Y-96142693D01*
X101994769Y-96190502D01*
X102092247Y-96240171D01*
X102092250Y-96240172D01*
X102194351Y-96273346D01*
X102296454Y-96306521D01*
X102508524Y-96340110D01*
X102508525Y-96340110D01*
X102723237Y-96340110D01*
X102723238Y-96340110D01*
X102935308Y-96306521D01*
X103139514Y-96240171D01*
X103330825Y-96142693D01*
X103504532Y-96016487D01*
X103656358Y-95864661D01*
X103782564Y-95690954D01*
X103782564Y-95690953D01*
X103785428Y-95687012D01*
X103787359Y-95688415D01*
X103831808Y-95648088D01*
X103900721Y-95636568D01*
X103964923Y-95664135D01*
X103985359Y-95687719D01*
X103986334Y-95687012D01*
X103989197Y-95690953D01*
X103989198Y-95690954D01*
X104115404Y-95864661D01*
X104267230Y-96016487D01*
X104440937Y-96142693D01*
X104534769Y-96190502D01*
X104632247Y-96240171D01*
X104632250Y-96240172D01*
X104734351Y-96273346D01*
X104836454Y-96306521D01*
X105048524Y-96340110D01*
X105048525Y-96340110D01*
X105263237Y-96340110D01*
X105263238Y-96340110D01*
X105475308Y-96306521D01*
X105679514Y-96240171D01*
X105870825Y-96142693D01*
X106044532Y-96016487D01*
X106196358Y-95864661D01*
X106322564Y-95690954D01*
X106420042Y-95499643D01*
X106486392Y-95295437D01*
X106519981Y-95083367D01*
X106519981Y-94868653D01*
X106486392Y-94656583D01*
X106420042Y-94452377D01*
X106420042Y-94452376D01*
X106336147Y-94287725D01*
X106322564Y-94261066D01*
X106196358Y-94087359D01*
X106044532Y-93935533D01*
X105903851Y-93833322D01*
X105861187Y-93777993D01*
X105855208Y-93708379D01*
X105887814Y-93646584D01*
X105903849Y-93632689D01*
X106044532Y-93530477D01*
X106196358Y-93378651D01*
X106322564Y-93204944D01*
X106420042Y-93013633D01*
X106486392Y-92809427D01*
X106519981Y-92597357D01*
X106519981Y-92382643D01*
X106486392Y-92170573D01*
X106420042Y-91966367D01*
X106420042Y-91966366D01*
X106334729Y-91798932D01*
X106322564Y-91775056D01*
X106196358Y-91601349D01*
X106044532Y-91449523D01*
X105870825Y-91323317D01*
X105823536Y-91299222D01*
X105679514Y-91225838D01*
X105679511Y-91225837D01*
X105475309Y-91159489D01*
X105369273Y-91142694D01*
X105263238Y-91125900D01*
X105048524Y-91125900D01*
X104977834Y-91137096D01*
X104836452Y-91159489D01*
X104632250Y-91225837D01*
X104632247Y-91225838D01*
X104440936Y-91323317D01*
X104341830Y-91395322D01*
X104267230Y-91449523D01*
X104267228Y-91449525D01*
X104267227Y-91449525D01*
X104115406Y-91601346D01*
X104115406Y-91601347D01*
X104115404Y-91601349D01*
X104014904Y-91739675D01*
X103986334Y-91778998D01*
X103984443Y-91777624D01*
X103939729Y-91818030D01*
X103870792Y-91829411D01*
X103806646Y-91801715D01*
X103786369Y-91778314D01*
X103785428Y-91778998D01*
X103756858Y-91739675D01*
X103656358Y-91601349D01*
X103504532Y-91449523D01*
X103330825Y-91323317D01*
X103283536Y-91299222D01*
X103139514Y-91225838D01*
X103139511Y-91225837D01*
X102935309Y-91159489D01*
X102829273Y-91142694D01*
X102723238Y-91125900D01*
X102508524Y-91125900D01*
X102437834Y-91137096D01*
X102296452Y-91159489D01*
X102092250Y-91225837D01*
X102092247Y-91225838D01*
X101900936Y-91323317D01*
X101801830Y-91395322D01*
X101727230Y-91449523D01*
X101727228Y-91449525D01*
X101727227Y-91449525D01*
X101575406Y-91601346D01*
X101575406Y-91601347D01*
X101575404Y-91601349D01*
X101474904Y-91739675D01*
X101462849Y-91756267D01*
X101407519Y-91798932D01*
X101337905Y-91804911D01*
X101276110Y-91772305D01*
X101252046Y-91739675D01*
X101242565Y-91721067D01*
X101223605Y-91694972D01*
X101116358Y-91547359D01*
X100964532Y-91395533D01*
X100790825Y-91269327D01*
X100599514Y-91171848D01*
X100599511Y-91171847D01*
X100395309Y-91105499D01*
X100289273Y-91088704D01*
X100183238Y-91071910D01*
X99968524Y-91071910D01*
X99897834Y-91083106D01*
X99756452Y-91105499D01*
X99552250Y-91171847D01*
X99552247Y-91171848D01*
X99360936Y-91269327D01*
X99319798Y-91299216D01*
X99187230Y-91395533D01*
X99187228Y-91395535D01*
X99187227Y-91395535D01*
X99035406Y-91547356D01*
X99035406Y-91547357D01*
X99035404Y-91547359D01*
X98996180Y-91601346D01*
X98909198Y-91721065D01*
X98811719Y-91912376D01*
X98811718Y-91912379D01*
X98745370Y-92116581D01*
X98711781Y-92328653D01*
X72000500Y-92328653D01*
X72000500Y-84748711D01*
X97209381Y-84748711D01*
X97209381Y-84991288D01*
X97241042Y-85231785D01*
X97303828Y-85466104D01*
X97396654Y-85690205D01*
X97396657Y-85690212D01*
X97517945Y-85900289D01*
X97517947Y-85900292D01*
X97517948Y-85900293D01*
X97665614Y-86092736D01*
X97665620Y-86092743D01*
X97837137Y-86264260D01*
X97837143Y-86264265D01*
X98029592Y-86411936D01*
X98239669Y-86533224D01*
X98463781Y-86626054D01*
X98698092Y-86688838D01*
X98878467Y-86712584D01*
X98938592Y-86720500D01*
X98938593Y-86720500D01*
X99181170Y-86720500D01*
X99229269Y-86714167D01*
X99421670Y-86688838D01*
X99655981Y-86626054D01*
X99880093Y-86533224D01*
X100090170Y-86411936D01*
X100282619Y-86264265D01*
X100454146Y-86092738D01*
X100601817Y-85900289D01*
X100723105Y-85690212D01*
X100815935Y-85466100D01*
X100878719Y-85231789D01*
X100910381Y-84991288D01*
X100910381Y-84748712D01*
X100878719Y-84508211D01*
X100815935Y-84273900D01*
X100723105Y-84049788D01*
X100601817Y-83839711D01*
X100540899Y-83760321D01*
X100454147Y-83647263D01*
X100454141Y-83647256D01*
X100282624Y-83475739D01*
X100282617Y-83475733D01*
X100090174Y-83328067D01*
X100090173Y-83328066D01*
X100090170Y-83328064D01*
X99880093Y-83206776D01*
X99880086Y-83206773D01*
X99655985Y-83113947D01*
X99509085Y-83074585D01*
X99421670Y-83051162D01*
X99421669Y-83051161D01*
X99421666Y-83051161D01*
X99181170Y-83019500D01*
X99181169Y-83019500D01*
X98938593Y-83019500D01*
X98938592Y-83019500D01*
X98698095Y-83051161D01*
X98463776Y-83113947D01*
X98239675Y-83206773D01*
X98239666Y-83206777D01*
X98029587Y-83328067D01*
X97837144Y-83475733D01*
X97837137Y-83475739D01*
X97665620Y-83647256D01*
X97665614Y-83647263D01*
X97517948Y-83839706D01*
X97396658Y-84049785D01*
X97396657Y-84049788D01*
X97303828Y-84273895D01*
X97241042Y-84508214D01*
X97209381Y-84748711D01*
X72000500Y-84748711D01*
X72000500Y-81000723D01*
X72020185Y-80933684D01*
X72072989Y-80887929D01*
X72142147Y-80877985D01*
X72201811Y-80903776D01*
X72260961Y-80950946D01*
X72546314Y-81130246D01*
X72849949Y-81276469D01*
X73088848Y-81360063D01*
X73168034Y-81387772D01*
X73168046Y-81387776D01*
X73496606Y-81462767D01*
X73831492Y-81500499D01*
X73831493Y-81500500D01*
X73831496Y-81500500D01*
X74168507Y-81500500D01*
X74168507Y-81500499D01*
X74503394Y-81462767D01*
X74831954Y-81387776D01*
X75150051Y-81276469D01*
X75453686Y-81130246D01*
X75739039Y-80950946D01*
X76002523Y-80740825D01*
X76240825Y-80502523D01*
X76450946Y-80239039D01*
X76630246Y-79953686D01*
X76776469Y-79650051D01*
X76887776Y-79331954D01*
X76962767Y-79003394D01*
X77000500Y-78668504D01*
X77000500Y-78331496D01*
X76962767Y-77996606D01*
X76887776Y-77668046D01*
X76776469Y-77349949D01*
X76630246Y-77046314D01*
X76450946Y-76760961D01*
X76403776Y-76701812D01*
X76377368Y-76637126D01*
X76390125Y-76568431D01*
X76437995Y-76517537D01*
X76500724Y-76500500D01*
X159499276Y-76500500D01*
X159566315Y-76520185D01*
G37*
%TD.AperFunction*%
%TA.AperFunction,NonConductor*%
G36*
X101415650Y-93153703D02*
G01*
X101439714Y-93186332D01*
X101447904Y-93202405D01*
X101449198Y-93204944D01*
X101575404Y-93378651D01*
X101727230Y-93530477D01*
X101756821Y-93551976D01*
X101867909Y-93632687D01*
X101910574Y-93688018D01*
X101916553Y-93757631D01*
X101883947Y-93819426D01*
X101867909Y-93833323D01*
X101727231Y-93935532D01*
X101630929Y-94031834D01*
X101569605Y-94065318D01*
X101499914Y-94060334D01*
X101443981Y-94018462D01*
X101427066Y-93987484D01*
X101383279Y-93870083D01*
X101383274Y-93870074D01*
X101297028Y-93754865D01*
X101297025Y-93754862D01*
X101181816Y-93668616D01*
X101181809Y-93668612D01*
X101064405Y-93624824D01*
X101008471Y-93582953D01*
X100984054Y-93517489D01*
X100998905Y-93449216D01*
X101020051Y-93420967D01*
X101116358Y-93324661D01*
X101228914Y-93169741D01*
X101284242Y-93127077D01*
X101353855Y-93121098D01*
X101415650Y-93153703D01*
G37*
%TD.AperFunction*%
%TA.AperFunction,NonConductor*%
G36*
X103964923Y-93178125D02*
G01*
X103985359Y-93201709D01*
X103986334Y-93201002D01*
X103989196Y-93204941D01*
X103989198Y-93204944D01*
X104115404Y-93378651D01*
X104267230Y-93530477D01*
X104296821Y-93551976D01*
X104407909Y-93632687D01*
X104450574Y-93688018D01*
X104456553Y-93757631D01*
X104423947Y-93819426D01*
X104407909Y-93833323D01*
X104267228Y-93935534D01*
X104115406Y-94087356D01*
X104115406Y-94087357D01*
X104115404Y-94087359D01*
X103989199Y-94261065D01*
X103986334Y-94265008D01*
X103984443Y-94263634D01*
X103939729Y-94304040D01*
X103870792Y-94315421D01*
X103806646Y-94287725D01*
X103786369Y-94264324D01*
X103785428Y-94265008D01*
X103782563Y-94261065D01*
X103656358Y-94087359D01*
X103504532Y-93935533D01*
X103363851Y-93833322D01*
X103321187Y-93777993D01*
X103315208Y-93708379D01*
X103347814Y-93646584D01*
X103363849Y-93632689D01*
X103504532Y-93530477D01*
X103656358Y-93378651D01*
X103782564Y-93204944D01*
X103782566Y-93204941D01*
X103785428Y-93201002D01*
X103787359Y-93202405D01*
X103831808Y-93162078D01*
X103900721Y-93150558D01*
X103964923Y-93178125D01*
G37*
%TD.AperFunction*%
M02*
