%TF.GenerationSoftware,KiCad,Pcbnew,10.0.3*%
%TF.CreationDate,2026-07-20T23:28:53+02:00*%
%TF.ProjectId,GPU12864,47505531-3238-4363-942e-6b696361645f,rev?*%
%TF.SameCoordinates,Original*%
%TF.FileFunction,Legend,Bot*%
%TF.FilePolarity,Positive*%
%FSLAX46Y46*%
G04 Gerber Fmt 4.6, Leading zero omitted, Abs format (unit mm)*
G04 Created by KiCad (PCBNEW 10.0.3) date 2026-07-20 23:28:53*
%MOMM*%
%LPD*%
G01*
G04 APERTURE LIST*
%ADD10C,0.100000*%
%ADD11C,0.600000*%
%ADD12C,0.150000*%
%ADD13C,0.120000*%
G04 APERTURE END LIST*
D10*
X134896115Y-140672419D02*
X134896115Y-139672419D01*
X134467544Y-140672419D02*
X134467544Y-140148609D01*
X134467544Y-140148609D02*
X134515163Y-140053371D01*
X134515163Y-140053371D02*
X134610401Y-140005752D01*
X134610401Y-140005752D02*
X134753258Y-140005752D01*
X134753258Y-140005752D02*
X134848496Y-140053371D01*
X134848496Y-140053371D02*
X134896115Y-140100990D01*
X134134210Y-140005752D02*
X133753258Y-140005752D01*
X133991353Y-139672419D02*
X133991353Y-140529561D01*
X133991353Y-140529561D02*
X133943734Y-140624800D01*
X133943734Y-140624800D02*
X133848496Y-140672419D01*
X133848496Y-140672419D02*
X133753258Y-140672419D01*
X133562781Y-140005752D02*
X133181829Y-140005752D01*
X133419924Y-139672419D02*
X133419924Y-140529561D01*
X133419924Y-140529561D02*
X133372305Y-140624800D01*
X133372305Y-140624800D02*
X133277067Y-140672419D01*
X133277067Y-140672419D02*
X133181829Y-140672419D01*
X132848495Y-140005752D02*
X132848495Y-141005752D01*
X132848495Y-140053371D02*
X132753257Y-140005752D01*
X132753257Y-140005752D02*
X132562781Y-140005752D01*
X132562781Y-140005752D02*
X132467543Y-140053371D01*
X132467543Y-140053371D02*
X132419924Y-140100990D01*
X132419924Y-140100990D02*
X132372305Y-140196228D01*
X132372305Y-140196228D02*
X132372305Y-140481942D01*
X132372305Y-140481942D02*
X132419924Y-140577180D01*
X132419924Y-140577180D02*
X132467543Y-140624800D01*
X132467543Y-140624800D02*
X132562781Y-140672419D01*
X132562781Y-140672419D02*
X132753257Y-140672419D01*
X132753257Y-140672419D02*
X132848495Y-140624800D01*
X131991352Y-140624800D02*
X131896114Y-140672419D01*
X131896114Y-140672419D02*
X131705638Y-140672419D01*
X131705638Y-140672419D02*
X131610400Y-140624800D01*
X131610400Y-140624800D02*
X131562781Y-140529561D01*
X131562781Y-140529561D02*
X131562781Y-140481942D01*
X131562781Y-140481942D02*
X131610400Y-140386704D01*
X131610400Y-140386704D02*
X131705638Y-140339085D01*
X131705638Y-140339085D02*
X131848495Y-140339085D01*
X131848495Y-140339085D02*
X131943733Y-140291466D01*
X131943733Y-140291466D02*
X131991352Y-140196228D01*
X131991352Y-140196228D02*
X131991352Y-140148609D01*
X131991352Y-140148609D02*
X131943733Y-140053371D01*
X131943733Y-140053371D02*
X131848495Y-140005752D01*
X131848495Y-140005752D02*
X131705638Y-140005752D01*
X131705638Y-140005752D02*
X131610400Y-140053371D01*
X131134209Y-140577180D02*
X131086590Y-140624800D01*
X131086590Y-140624800D02*
X131134209Y-140672419D01*
X131134209Y-140672419D02*
X131181828Y-140624800D01*
X131181828Y-140624800D02*
X131134209Y-140577180D01*
X131134209Y-140577180D02*
X131134209Y-140672419D01*
X131134209Y-140053371D02*
X131086590Y-140100990D01*
X131086590Y-140100990D02*
X131134209Y-140148609D01*
X131134209Y-140148609D02*
X131181828Y-140100990D01*
X131181828Y-140100990D02*
X131134209Y-140053371D01*
X131134209Y-140053371D02*
X131134209Y-140148609D01*
X129943734Y-139624800D02*
X130800876Y-140910514D01*
X128896115Y-139624800D02*
X129753257Y-140910514D01*
X128134210Y-140005752D02*
X128134210Y-140815276D01*
X128134210Y-140815276D02*
X128181829Y-140910514D01*
X128181829Y-140910514D02*
X128229448Y-140958133D01*
X128229448Y-140958133D02*
X128324686Y-141005752D01*
X128324686Y-141005752D02*
X128467543Y-141005752D01*
X128467543Y-141005752D02*
X128562781Y-140958133D01*
X128134210Y-140624800D02*
X128229448Y-140672419D01*
X128229448Y-140672419D02*
X128419924Y-140672419D01*
X128419924Y-140672419D02*
X128515162Y-140624800D01*
X128515162Y-140624800D02*
X128562781Y-140577180D01*
X128562781Y-140577180D02*
X128610400Y-140481942D01*
X128610400Y-140481942D02*
X128610400Y-140196228D01*
X128610400Y-140196228D02*
X128562781Y-140100990D01*
X128562781Y-140100990D02*
X128515162Y-140053371D01*
X128515162Y-140053371D02*
X128419924Y-140005752D01*
X128419924Y-140005752D02*
X128229448Y-140005752D01*
X128229448Y-140005752D02*
X128134210Y-140053371D01*
X127658019Y-140672419D02*
X127658019Y-140005752D01*
X127658019Y-139672419D02*
X127705638Y-139720038D01*
X127705638Y-139720038D02*
X127658019Y-139767657D01*
X127658019Y-139767657D02*
X127610400Y-139720038D01*
X127610400Y-139720038D02*
X127658019Y-139672419D01*
X127658019Y-139672419D02*
X127658019Y-139767657D01*
X127324686Y-140005752D02*
X126943734Y-140005752D01*
X127181829Y-139672419D02*
X127181829Y-140529561D01*
X127181829Y-140529561D02*
X127134210Y-140624800D01*
X127134210Y-140624800D02*
X127038972Y-140672419D01*
X127038972Y-140672419D02*
X126943734Y-140672419D01*
X126610400Y-140672419D02*
X126610400Y-139672419D01*
X126181829Y-140672419D02*
X126181829Y-140148609D01*
X126181829Y-140148609D02*
X126229448Y-140053371D01*
X126229448Y-140053371D02*
X126324686Y-140005752D01*
X126324686Y-140005752D02*
X126467543Y-140005752D01*
X126467543Y-140005752D02*
X126562781Y-140053371D01*
X126562781Y-140053371D02*
X126610400Y-140100990D01*
X125277067Y-140005752D02*
X125277067Y-140672419D01*
X125705638Y-140005752D02*
X125705638Y-140529561D01*
X125705638Y-140529561D02*
X125658019Y-140624800D01*
X125658019Y-140624800D02*
X125562781Y-140672419D01*
X125562781Y-140672419D02*
X125419924Y-140672419D01*
X125419924Y-140672419D02*
X125324686Y-140624800D01*
X125324686Y-140624800D02*
X125277067Y-140577180D01*
X124800876Y-140672419D02*
X124800876Y-139672419D01*
X124800876Y-140053371D02*
X124705638Y-140005752D01*
X124705638Y-140005752D02*
X124515162Y-140005752D01*
X124515162Y-140005752D02*
X124419924Y-140053371D01*
X124419924Y-140053371D02*
X124372305Y-140100990D01*
X124372305Y-140100990D02*
X124324686Y-140196228D01*
X124324686Y-140196228D02*
X124324686Y-140481942D01*
X124324686Y-140481942D02*
X124372305Y-140577180D01*
X124372305Y-140577180D02*
X124419924Y-140624800D01*
X124419924Y-140624800D02*
X124515162Y-140672419D01*
X124515162Y-140672419D02*
X124705638Y-140672419D01*
X124705638Y-140672419D02*
X124800876Y-140624800D01*
X123896114Y-140577180D02*
X123848495Y-140624800D01*
X123848495Y-140624800D02*
X123896114Y-140672419D01*
X123896114Y-140672419D02*
X123943733Y-140624800D01*
X123943733Y-140624800D02*
X123896114Y-140577180D01*
X123896114Y-140577180D02*
X123896114Y-140672419D01*
X122991353Y-140624800D02*
X123086591Y-140672419D01*
X123086591Y-140672419D02*
X123277067Y-140672419D01*
X123277067Y-140672419D02*
X123372305Y-140624800D01*
X123372305Y-140624800D02*
X123419924Y-140577180D01*
X123419924Y-140577180D02*
X123467543Y-140481942D01*
X123467543Y-140481942D02*
X123467543Y-140196228D01*
X123467543Y-140196228D02*
X123419924Y-140100990D01*
X123419924Y-140100990D02*
X123372305Y-140053371D01*
X123372305Y-140053371D02*
X123277067Y-140005752D01*
X123277067Y-140005752D02*
X123086591Y-140005752D01*
X123086591Y-140005752D02*
X122991353Y-140053371D01*
X122419924Y-140672419D02*
X122515162Y-140624800D01*
X122515162Y-140624800D02*
X122562781Y-140577180D01*
X122562781Y-140577180D02*
X122610400Y-140481942D01*
X122610400Y-140481942D02*
X122610400Y-140196228D01*
X122610400Y-140196228D02*
X122562781Y-140100990D01*
X122562781Y-140100990D02*
X122515162Y-140053371D01*
X122515162Y-140053371D02*
X122419924Y-140005752D01*
X122419924Y-140005752D02*
X122277067Y-140005752D01*
X122277067Y-140005752D02*
X122181829Y-140053371D01*
X122181829Y-140053371D02*
X122134210Y-140100990D01*
X122134210Y-140100990D02*
X122086591Y-140196228D01*
X122086591Y-140196228D02*
X122086591Y-140481942D01*
X122086591Y-140481942D02*
X122134210Y-140577180D01*
X122134210Y-140577180D02*
X122181829Y-140624800D01*
X122181829Y-140624800D02*
X122277067Y-140672419D01*
X122277067Y-140672419D02*
X122419924Y-140672419D01*
X121658019Y-140672419D02*
X121658019Y-140005752D01*
X121658019Y-140100990D02*
X121610400Y-140053371D01*
X121610400Y-140053371D02*
X121515162Y-140005752D01*
X121515162Y-140005752D02*
X121372305Y-140005752D01*
X121372305Y-140005752D02*
X121277067Y-140053371D01*
X121277067Y-140053371D02*
X121229448Y-140148609D01*
X121229448Y-140148609D02*
X121229448Y-140672419D01*
X121229448Y-140148609D02*
X121181829Y-140053371D01*
X121181829Y-140053371D02*
X121086591Y-140005752D01*
X121086591Y-140005752D02*
X120943734Y-140005752D01*
X120943734Y-140005752D02*
X120848495Y-140053371D01*
X120848495Y-140053371D02*
X120800876Y-140148609D01*
X120800876Y-140148609D02*
X120800876Y-140672419D01*
X119610401Y-139624800D02*
X120467543Y-140910514D01*
X119277067Y-140672419D02*
X119277067Y-139672419D01*
X118848496Y-140672419D02*
X118848496Y-140148609D01*
X118848496Y-140148609D02*
X118896115Y-140053371D01*
X118896115Y-140053371D02*
X118991353Y-140005752D01*
X118991353Y-140005752D02*
X119134210Y-140005752D01*
X119134210Y-140005752D02*
X119229448Y-140053371D01*
X119229448Y-140053371D02*
X119277067Y-140100990D01*
X118515162Y-140005752D02*
X118134210Y-140005752D01*
X118372305Y-139672419D02*
X118372305Y-140529561D01*
X118372305Y-140529561D02*
X118324686Y-140624800D01*
X118324686Y-140624800D02*
X118229448Y-140672419D01*
X118229448Y-140672419D02*
X118134210Y-140672419D01*
X117800876Y-140672419D02*
X117800876Y-140005752D01*
X117800876Y-140100990D02*
X117753257Y-140053371D01*
X117753257Y-140053371D02*
X117658019Y-140005752D01*
X117658019Y-140005752D02*
X117515162Y-140005752D01*
X117515162Y-140005752D02*
X117419924Y-140053371D01*
X117419924Y-140053371D02*
X117372305Y-140148609D01*
X117372305Y-140148609D02*
X117372305Y-140672419D01*
X117372305Y-140148609D02*
X117324686Y-140053371D01*
X117324686Y-140053371D02*
X117229448Y-140005752D01*
X117229448Y-140005752D02*
X117086591Y-140005752D01*
X117086591Y-140005752D02*
X116991352Y-140053371D01*
X116991352Y-140053371D02*
X116943733Y-140148609D01*
X116943733Y-140148609D02*
X116943733Y-140672419D01*
X116324686Y-140672419D02*
X116419924Y-140624800D01*
X116419924Y-140624800D02*
X116467543Y-140529561D01*
X116467543Y-140529561D02*
X116467543Y-139672419D01*
X115943733Y-140291466D02*
X115181829Y-140291466D01*
X114277067Y-140624800D02*
X114372305Y-140672419D01*
X114372305Y-140672419D02*
X114562781Y-140672419D01*
X114562781Y-140672419D02*
X114658019Y-140624800D01*
X114658019Y-140624800D02*
X114705638Y-140577180D01*
X114705638Y-140577180D02*
X114753257Y-140481942D01*
X114753257Y-140481942D02*
X114753257Y-140196228D01*
X114753257Y-140196228D02*
X114705638Y-140100990D01*
X114705638Y-140100990D02*
X114658019Y-140053371D01*
X114658019Y-140053371D02*
X114562781Y-140005752D01*
X114562781Y-140005752D02*
X114372305Y-140005752D01*
X114372305Y-140005752D02*
X114277067Y-140053371D01*
X113896114Y-140624800D02*
X113800876Y-140672419D01*
X113800876Y-140672419D02*
X113610400Y-140672419D01*
X113610400Y-140672419D02*
X113515162Y-140624800D01*
X113515162Y-140624800D02*
X113467543Y-140529561D01*
X113467543Y-140529561D02*
X113467543Y-140481942D01*
X113467543Y-140481942D02*
X113515162Y-140386704D01*
X113515162Y-140386704D02*
X113610400Y-140339085D01*
X113610400Y-140339085D02*
X113753257Y-140339085D01*
X113753257Y-140339085D02*
X113848495Y-140291466D01*
X113848495Y-140291466D02*
X113896114Y-140196228D01*
X113896114Y-140196228D02*
X113896114Y-140148609D01*
X113896114Y-140148609D02*
X113848495Y-140053371D01*
X113848495Y-140053371D02*
X113753257Y-140005752D01*
X113753257Y-140005752D02*
X113610400Y-140005752D01*
X113610400Y-140005752D02*
X113515162Y-140053371D01*
X113086590Y-140624800D02*
X112991352Y-140672419D01*
X112991352Y-140672419D02*
X112800876Y-140672419D01*
X112800876Y-140672419D02*
X112705638Y-140624800D01*
X112705638Y-140624800D02*
X112658019Y-140529561D01*
X112658019Y-140529561D02*
X112658019Y-140481942D01*
X112658019Y-140481942D02*
X112705638Y-140386704D01*
X112705638Y-140386704D02*
X112800876Y-140339085D01*
X112800876Y-140339085D02*
X112943733Y-140339085D01*
X112943733Y-140339085D02*
X113038971Y-140291466D01*
X113038971Y-140291466D02*
X113086590Y-140196228D01*
X113086590Y-140196228D02*
X113086590Y-140148609D01*
X113086590Y-140148609D02*
X113038971Y-140053371D01*
X113038971Y-140053371D02*
X112943733Y-140005752D01*
X112943733Y-140005752D02*
X112800876Y-140005752D01*
X112800876Y-140005752D02*
X112705638Y-140053371D01*
X112229447Y-140291466D02*
X111467543Y-140291466D01*
X110991352Y-140005752D02*
X110991352Y-140862895D01*
X110991352Y-140862895D02*
X111038971Y-140958133D01*
X111038971Y-140958133D02*
X111134209Y-141005752D01*
X111134209Y-141005752D02*
X111181828Y-141005752D01*
X110991352Y-139672419D02*
X111038971Y-139720038D01*
X111038971Y-139720038D02*
X110991352Y-139767657D01*
X110991352Y-139767657D02*
X110943733Y-139720038D01*
X110943733Y-139720038D02*
X110991352Y-139672419D01*
X110991352Y-139672419D02*
X110991352Y-139767657D01*
X110562781Y-140624800D02*
X110467543Y-140672419D01*
X110467543Y-140672419D02*
X110277067Y-140672419D01*
X110277067Y-140672419D02*
X110181829Y-140624800D01*
X110181829Y-140624800D02*
X110134210Y-140529561D01*
X110134210Y-140529561D02*
X110134210Y-140481942D01*
X110134210Y-140481942D02*
X110181829Y-140386704D01*
X110181829Y-140386704D02*
X110277067Y-140339085D01*
X110277067Y-140339085D02*
X110419924Y-140339085D01*
X110419924Y-140339085D02*
X110515162Y-140291466D01*
X110515162Y-140291466D02*
X110562781Y-140196228D01*
X110562781Y-140196228D02*
X110562781Y-140148609D01*
X110562781Y-140148609D02*
X110515162Y-140053371D01*
X110515162Y-140053371D02*
X110419924Y-140005752D01*
X110419924Y-140005752D02*
X110277067Y-140005752D01*
X110277067Y-140005752D02*
X110181829Y-140053371D01*
X109705638Y-140291466D02*
X108943734Y-140291466D01*
X108467543Y-140005752D02*
X108467543Y-141005752D01*
X108467543Y-140053371D02*
X108372305Y-140005752D01*
X108372305Y-140005752D02*
X108181829Y-140005752D01*
X108181829Y-140005752D02*
X108086591Y-140053371D01*
X108086591Y-140053371D02*
X108038972Y-140100990D01*
X108038972Y-140100990D02*
X107991353Y-140196228D01*
X107991353Y-140196228D02*
X107991353Y-140481942D01*
X107991353Y-140481942D02*
X108038972Y-140577180D01*
X108038972Y-140577180D02*
X108086591Y-140624800D01*
X108086591Y-140624800D02*
X108181829Y-140672419D01*
X108181829Y-140672419D02*
X108372305Y-140672419D01*
X108372305Y-140672419D02*
X108467543Y-140624800D01*
X107658019Y-140005752D02*
X107419924Y-140672419D01*
X107181829Y-140005752D02*
X107419924Y-140672419D01*
X107419924Y-140672419D02*
X107515162Y-140910514D01*
X107515162Y-140910514D02*
X107562781Y-140958133D01*
X107562781Y-140958133D02*
X107658019Y-141005752D01*
X106943733Y-140005752D02*
X106562781Y-140005752D01*
X106800876Y-139672419D02*
X106800876Y-140529561D01*
X106800876Y-140529561D02*
X106753257Y-140624800D01*
X106753257Y-140624800D02*
X106658019Y-140672419D01*
X106658019Y-140672419D02*
X106562781Y-140672419D01*
X106229447Y-140672419D02*
X106229447Y-139672419D01*
X105800876Y-140672419D02*
X105800876Y-140148609D01*
X105800876Y-140148609D02*
X105848495Y-140053371D01*
X105848495Y-140053371D02*
X105943733Y-140005752D01*
X105943733Y-140005752D02*
X106086590Y-140005752D01*
X106086590Y-140005752D02*
X106181828Y-140053371D01*
X106181828Y-140053371D02*
X106229447Y-140100990D01*
X105181828Y-140672419D02*
X105277066Y-140624800D01*
X105277066Y-140624800D02*
X105324685Y-140577180D01*
X105324685Y-140577180D02*
X105372304Y-140481942D01*
X105372304Y-140481942D02*
X105372304Y-140196228D01*
X105372304Y-140196228D02*
X105324685Y-140100990D01*
X105324685Y-140100990D02*
X105277066Y-140053371D01*
X105277066Y-140053371D02*
X105181828Y-140005752D01*
X105181828Y-140005752D02*
X105038971Y-140005752D01*
X105038971Y-140005752D02*
X104943733Y-140053371D01*
X104943733Y-140053371D02*
X104896114Y-140100990D01*
X104896114Y-140100990D02*
X104848495Y-140196228D01*
X104848495Y-140196228D02*
X104848495Y-140481942D01*
X104848495Y-140481942D02*
X104896114Y-140577180D01*
X104896114Y-140577180D02*
X104943733Y-140624800D01*
X104943733Y-140624800D02*
X105038971Y-140672419D01*
X105038971Y-140672419D02*
X105181828Y-140672419D01*
X104419923Y-140005752D02*
X104419923Y-140672419D01*
X104419923Y-140100990D02*
X104372304Y-140053371D01*
X104372304Y-140053371D02*
X104277066Y-140005752D01*
X104277066Y-140005752D02*
X104134209Y-140005752D01*
X104134209Y-140005752D02*
X104038971Y-140053371D01*
X104038971Y-140053371D02*
X103991352Y-140148609D01*
X103991352Y-140148609D02*
X103991352Y-140672419D01*
X157772306Y-124320038D02*
X157867544Y-124272419D01*
X157867544Y-124272419D02*
X158010401Y-124272419D01*
X158010401Y-124272419D02*
X158153258Y-124320038D01*
X158153258Y-124320038D02*
X158248496Y-124415276D01*
X158248496Y-124415276D02*
X158296115Y-124510514D01*
X158296115Y-124510514D02*
X158343734Y-124700990D01*
X158343734Y-124700990D02*
X158343734Y-124843847D01*
X158343734Y-124843847D02*
X158296115Y-125034323D01*
X158296115Y-125034323D02*
X158248496Y-125129561D01*
X158248496Y-125129561D02*
X158153258Y-125224800D01*
X158153258Y-125224800D02*
X158010401Y-125272419D01*
X158010401Y-125272419D02*
X157915163Y-125272419D01*
X157915163Y-125272419D02*
X157772306Y-125224800D01*
X157772306Y-125224800D02*
X157724687Y-125177180D01*
X157724687Y-125177180D02*
X157724687Y-124843847D01*
X157724687Y-124843847D02*
X157915163Y-124843847D01*
X157296115Y-125272419D02*
X157296115Y-124272419D01*
X157296115Y-124272419D02*
X156724687Y-125272419D01*
X156724687Y-125272419D02*
X156724687Y-124272419D01*
X156248496Y-125272419D02*
X156248496Y-124272419D01*
X156248496Y-124272419D02*
X156010401Y-124272419D01*
X156010401Y-124272419D02*
X155867544Y-124320038D01*
X155867544Y-124320038D02*
X155772306Y-124415276D01*
X155772306Y-124415276D02*
X155724687Y-124510514D01*
X155724687Y-124510514D02*
X155677068Y-124700990D01*
X155677068Y-124700990D02*
X155677068Y-124843847D01*
X155677068Y-124843847D02*
X155724687Y-125034323D01*
X155724687Y-125034323D02*
X155772306Y-125129561D01*
X155772306Y-125129561D02*
X155867544Y-125224800D01*
X155867544Y-125224800D02*
X156010401Y-125272419D01*
X156010401Y-125272419D02*
X156248496Y-125272419D01*
X158438972Y-126872419D02*
X158105639Y-127872419D01*
X158105639Y-127872419D02*
X157772306Y-126872419D01*
X156867544Y-127777180D02*
X156915163Y-127824800D01*
X156915163Y-127824800D02*
X157058020Y-127872419D01*
X157058020Y-127872419D02*
X157153258Y-127872419D01*
X157153258Y-127872419D02*
X157296115Y-127824800D01*
X157296115Y-127824800D02*
X157391353Y-127729561D01*
X157391353Y-127729561D02*
X157438972Y-127634323D01*
X157438972Y-127634323D02*
X157486591Y-127443847D01*
X157486591Y-127443847D02*
X157486591Y-127300990D01*
X157486591Y-127300990D02*
X157438972Y-127110514D01*
X157438972Y-127110514D02*
X157391353Y-127015276D01*
X157391353Y-127015276D02*
X157296115Y-126920038D01*
X157296115Y-126920038D02*
X157153258Y-126872419D01*
X157153258Y-126872419D02*
X157058020Y-126872419D01*
X157058020Y-126872419D02*
X156915163Y-126920038D01*
X156915163Y-126920038D02*
X156867544Y-126967657D01*
X155867544Y-127777180D02*
X155915163Y-127824800D01*
X155915163Y-127824800D02*
X156058020Y-127872419D01*
X156058020Y-127872419D02*
X156153258Y-127872419D01*
X156153258Y-127872419D02*
X156296115Y-127824800D01*
X156296115Y-127824800D02*
X156391353Y-127729561D01*
X156391353Y-127729561D02*
X156438972Y-127634323D01*
X156438972Y-127634323D02*
X156486591Y-127443847D01*
X156486591Y-127443847D02*
X156486591Y-127300990D01*
X156486591Y-127300990D02*
X156438972Y-127110514D01*
X156438972Y-127110514D02*
X156391353Y-127015276D01*
X156391353Y-127015276D02*
X156296115Y-126920038D01*
X156296115Y-126920038D02*
X156153258Y-126872419D01*
X156153258Y-126872419D02*
X156058020Y-126872419D01*
X156058020Y-126872419D02*
X155915163Y-126920038D01*
X155915163Y-126920038D02*
X155867544Y-126967657D01*
X158343734Y-130424800D02*
X158200877Y-130472419D01*
X158200877Y-130472419D02*
X157962782Y-130472419D01*
X157962782Y-130472419D02*
X157867544Y-130424800D01*
X157867544Y-130424800D02*
X157819925Y-130377180D01*
X157819925Y-130377180D02*
X157772306Y-130281942D01*
X157772306Y-130281942D02*
X157772306Y-130186704D01*
X157772306Y-130186704D02*
X157819925Y-130091466D01*
X157819925Y-130091466D02*
X157867544Y-130043847D01*
X157867544Y-130043847D02*
X157962782Y-129996228D01*
X157962782Y-129996228D02*
X158153258Y-129948609D01*
X158153258Y-129948609D02*
X158248496Y-129900990D01*
X158248496Y-129900990D02*
X158296115Y-129853371D01*
X158296115Y-129853371D02*
X158343734Y-129758133D01*
X158343734Y-129758133D02*
X158343734Y-129662895D01*
X158343734Y-129662895D02*
X158296115Y-129567657D01*
X158296115Y-129567657D02*
X158248496Y-129520038D01*
X158248496Y-129520038D02*
X158153258Y-129472419D01*
X158153258Y-129472419D02*
X157915163Y-129472419D01*
X157915163Y-129472419D02*
X157772306Y-129520038D01*
X156772306Y-130377180D02*
X156819925Y-130424800D01*
X156819925Y-130424800D02*
X156962782Y-130472419D01*
X156962782Y-130472419D02*
X157058020Y-130472419D01*
X157058020Y-130472419D02*
X157200877Y-130424800D01*
X157200877Y-130424800D02*
X157296115Y-130329561D01*
X157296115Y-130329561D02*
X157343734Y-130234323D01*
X157343734Y-130234323D02*
X157391353Y-130043847D01*
X157391353Y-130043847D02*
X157391353Y-129900990D01*
X157391353Y-129900990D02*
X157343734Y-129710514D01*
X157343734Y-129710514D02*
X157296115Y-129615276D01*
X157296115Y-129615276D02*
X157200877Y-129520038D01*
X157200877Y-129520038D02*
X157058020Y-129472419D01*
X157058020Y-129472419D02*
X156962782Y-129472419D01*
X156962782Y-129472419D02*
X156819925Y-129520038D01*
X156819925Y-129520038D02*
X156772306Y-129567657D01*
X155867544Y-130472419D02*
X156343734Y-130472419D01*
X156343734Y-130472419D02*
X156343734Y-129472419D01*
X158343734Y-133024800D02*
X158200877Y-133072419D01*
X158200877Y-133072419D02*
X157962782Y-133072419D01*
X157962782Y-133072419D02*
X157867544Y-133024800D01*
X157867544Y-133024800D02*
X157819925Y-132977180D01*
X157819925Y-132977180D02*
X157772306Y-132881942D01*
X157772306Y-132881942D02*
X157772306Y-132786704D01*
X157772306Y-132786704D02*
X157819925Y-132691466D01*
X157819925Y-132691466D02*
X157867544Y-132643847D01*
X157867544Y-132643847D02*
X157962782Y-132596228D01*
X157962782Y-132596228D02*
X158153258Y-132548609D01*
X158153258Y-132548609D02*
X158248496Y-132500990D01*
X158248496Y-132500990D02*
X158296115Y-132453371D01*
X158296115Y-132453371D02*
X158343734Y-132358133D01*
X158343734Y-132358133D02*
X158343734Y-132262895D01*
X158343734Y-132262895D02*
X158296115Y-132167657D01*
X158296115Y-132167657D02*
X158248496Y-132120038D01*
X158248496Y-132120038D02*
X158153258Y-132072419D01*
X158153258Y-132072419D02*
X157915163Y-132072419D01*
X157915163Y-132072419D02*
X157772306Y-132120038D01*
X157343734Y-133072419D02*
X157343734Y-132072419D01*
X157343734Y-132072419D02*
X157105639Y-132072419D01*
X157105639Y-132072419D02*
X156962782Y-132120038D01*
X156962782Y-132120038D02*
X156867544Y-132215276D01*
X156867544Y-132215276D02*
X156819925Y-132310514D01*
X156819925Y-132310514D02*
X156772306Y-132500990D01*
X156772306Y-132500990D02*
X156772306Y-132643847D01*
X156772306Y-132643847D02*
X156819925Y-132834323D01*
X156819925Y-132834323D02*
X156867544Y-132929561D01*
X156867544Y-132929561D02*
X156962782Y-133024800D01*
X156962782Y-133024800D02*
X157105639Y-133072419D01*
X157105639Y-133072419D02*
X157343734Y-133072419D01*
X156391353Y-132786704D02*
X155915163Y-132786704D01*
X156486591Y-133072419D02*
X156153258Y-132072419D01*
X156153258Y-132072419D02*
X155819925Y-133072419D01*
X159924687Y-93577180D02*
X159972306Y-93624800D01*
X159972306Y-93624800D02*
X160115163Y-93672419D01*
X160115163Y-93672419D02*
X160210401Y-93672419D01*
X160210401Y-93672419D02*
X160353258Y-93624800D01*
X160353258Y-93624800D02*
X160448496Y-93529561D01*
X160448496Y-93529561D02*
X160496115Y-93434323D01*
X160496115Y-93434323D02*
X160543734Y-93243847D01*
X160543734Y-93243847D02*
X160543734Y-93100990D01*
X160543734Y-93100990D02*
X160496115Y-92910514D01*
X160496115Y-92910514D02*
X160448496Y-92815276D01*
X160448496Y-92815276D02*
X160353258Y-92720038D01*
X160353258Y-92720038D02*
X160210401Y-92672419D01*
X160210401Y-92672419D02*
X160115163Y-92672419D01*
X160115163Y-92672419D02*
X159972306Y-92720038D01*
X159972306Y-92720038D02*
X159924687Y-92767657D01*
X159353258Y-93672419D02*
X159448496Y-93624800D01*
X159448496Y-93624800D02*
X159496115Y-93577180D01*
X159496115Y-93577180D02*
X159543734Y-93481942D01*
X159543734Y-93481942D02*
X159543734Y-93196228D01*
X159543734Y-93196228D02*
X159496115Y-93100990D01*
X159496115Y-93100990D02*
X159448496Y-93053371D01*
X159448496Y-93053371D02*
X159353258Y-93005752D01*
X159353258Y-93005752D02*
X159210401Y-93005752D01*
X159210401Y-93005752D02*
X159115163Y-93053371D01*
X159115163Y-93053371D02*
X159067544Y-93100990D01*
X159067544Y-93100990D02*
X159019925Y-93196228D01*
X159019925Y-93196228D02*
X159019925Y-93481942D01*
X159019925Y-93481942D02*
X159067544Y-93577180D01*
X159067544Y-93577180D02*
X159115163Y-93624800D01*
X159115163Y-93624800D02*
X159210401Y-93672419D01*
X159210401Y-93672419D02*
X159353258Y-93672419D01*
X158591353Y-93005752D02*
X158591353Y-93672419D01*
X158591353Y-93100990D02*
X158543734Y-93053371D01*
X158543734Y-93053371D02*
X158448496Y-93005752D01*
X158448496Y-93005752D02*
X158305639Y-93005752D01*
X158305639Y-93005752D02*
X158210401Y-93053371D01*
X158210401Y-93053371D02*
X158162782Y-93148609D01*
X158162782Y-93148609D02*
X158162782Y-93672419D01*
X157829448Y-93005752D02*
X157448496Y-93005752D01*
X157686591Y-92672419D02*
X157686591Y-93529561D01*
X157686591Y-93529561D02*
X157638972Y-93624800D01*
X157638972Y-93624800D02*
X157543734Y-93672419D01*
X157543734Y-93672419D02*
X157448496Y-93672419D01*
X157115162Y-93672419D02*
X157115162Y-93005752D01*
X157115162Y-93196228D02*
X157067543Y-93100990D01*
X157067543Y-93100990D02*
X157019924Y-93053371D01*
X157019924Y-93053371D02*
X156924686Y-93005752D01*
X156924686Y-93005752D02*
X156829448Y-93005752D01*
X156067543Y-93672419D02*
X156067543Y-93148609D01*
X156067543Y-93148609D02*
X156115162Y-93053371D01*
X156115162Y-93053371D02*
X156210400Y-93005752D01*
X156210400Y-93005752D02*
X156400876Y-93005752D01*
X156400876Y-93005752D02*
X156496114Y-93053371D01*
X156067543Y-93624800D02*
X156162781Y-93672419D01*
X156162781Y-93672419D02*
X156400876Y-93672419D01*
X156400876Y-93672419D02*
X156496114Y-93624800D01*
X156496114Y-93624800D02*
X156543733Y-93529561D01*
X156543733Y-93529561D02*
X156543733Y-93434323D01*
X156543733Y-93434323D02*
X156496114Y-93339085D01*
X156496114Y-93339085D02*
X156400876Y-93291466D01*
X156400876Y-93291466D02*
X156162781Y-93291466D01*
X156162781Y-93291466D02*
X156067543Y-93243847D01*
X155638971Y-93624800D02*
X155543733Y-93672419D01*
X155543733Y-93672419D02*
X155353257Y-93672419D01*
X155353257Y-93672419D02*
X155258019Y-93624800D01*
X155258019Y-93624800D02*
X155210400Y-93529561D01*
X155210400Y-93529561D02*
X155210400Y-93481942D01*
X155210400Y-93481942D02*
X155258019Y-93386704D01*
X155258019Y-93386704D02*
X155353257Y-93339085D01*
X155353257Y-93339085D02*
X155496114Y-93339085D01*
X155496114Y-93339085D02*
X155591352Y-93291466D01*
X155591352Y-93291466D02*
X155638971Y-93196228D01*
X155638971Y-93196228D02*
X155638971Y-93148609D01*
X155638971Y-93148609D02*
X155591352Y-93053371D01*
X155591352Y-93053371D02*
X155496114Y-93005752D01*
X155496114Y-93005752D02*
X155353257Y-93005752D01*
X155353257Y-93005752D02*
X155258019Y-93053371D01*
X154924685Y-93005752D02*
X154543733Y-93005752D01*
X154781828Y-92672419D02*
X154781828Y-93529561D01*
X154781828Y-93529561D02*
X154734209Y-93624800D01*
X154734209Y-93624800D02*
X154638971Y-93672419D01*
X154638971Y-93672419D02*
X154543733Y-93672419D01*
D11*
X78998342Y-138919549D02*
X75998342Y-137919549D01*
X75998342Y-137919549D02*
X78998342Y-136919549D01*
X75998342Y-135919549D02*
X77998342Y-135919549D01*
X78998342Y-135919549D02*
X78855485Y-136062406D01*
X78855485Y-136062406D02*
X78712628Y-135919549D01*
X78712628Y-135919549D02*
X78855485Y-135776692D01*
X78855485Y-135776692D02*
X78998342Y-135919549D01*
X78998342Y-135919549D02*
X78712628Y-135919549D01*
X75998342Y-133205264D02*
X78998342Y-133205264D01*
X76141200Y-133205264D02*
X75998342Y-133490978D01*
X75998342Y-133490978D02*
X75998342Y-134062406D01*
X75998342Y-134062406D02*
X76141200Y-134348121D01*
X76141200Y-134348121D02*
X76284057Y-134490978D01*
X76284057Y-134490978D02*
X76569771Y-134633835D01*
X76569771Y-134633835D02*
X77426914Y-134633835D01*
X77426914Y-134633835D02*
X77712628Y-134490978D01*
X77712628Y-134490978D02*
X77855485Y-134348121D01*
X77855485Y-134348121D02*
X77998342Y-134062406D01*
X77998342Y-134062406D02*
X77998342Y-133490978D01*
X77998342Y-133490978D02*
X77855485Y-133205264D01*
X75998342Y-131776692D02*
X77998342Y-131776692D01*
X78998342Y-131776692D02*
X78855485Y-131919549D01*
X78855485Y-131919549D02*
X78712628Y-131776692D01*
X78712628Y-131776692D02*
X78855485Y-131633835D01*
X78855485Y-131633835D02*
X78998342Y-131776692D01*
X78998342Y-131776692D02*
X78712628Y-131776692D01*
X75998342Y-129062407D02*
X77569771Y-129062407D01*
X77569771Y-129062407D02*
X77855485Y-129205264D01*
X77855485Y-129205264D02*
X77998342Y-129490978D01*
X77998342Y-129490978D02*
X77998342Y-130062407D01*
X77998342Y-130062407D02*
X77855485Y-130348121D01*
X76141200Y-129062407D02*
X75998342Y-129348121D01*
X75998342Y-129348121D02*
X75998342Y-130062407D01*
X75998342Y-130062407D02*
X76141200Y-130348121D01*
X76141200Y-130348121D02*
X76426914Y-130490978D01*
X76426914Y-130490978D02*
X76712628Y-130490978D01*
X76712628Y-130490978D02*
X76998342Y-130348121D01*
X76998342Y-130348121D02*
X77141200Y-130062407D01*
X77141200Y-130062407D02*
X77141200Y-129348121D01*
X77141200Y-129348121D02*
X77284057Y-129062407D01*
X78855485Y-126062406D02*
X78998342Y-126348121D01*
X78998342Y-126348121D02*
X78998342Y-126776692D01*
X78998342Y-126776692D02*
X78855485Y-127205263D01*
X78855485Y-127205263D02*
X78569771Y-127490978D01*
X78569771Y-127490978D02*
X78284057Y-127633835D01*
X78284057Y-127633835D02*
X77712628Y-127776692D01*
X77712628Y-127776692D02*
X77284057Y-127776692D01*
X77284057Y-127776692D02*
X76712628Y-127633835D01*
X76712628Y-127633835D02*
X76426914Y-127490978D01*
X76426914Y-127490978D02*
X76141200Y-127205263D01*
X76141200Y-127205263D02*
X75998342Y-126776692D01*
X75998342Y-126776692D02*
X75998342Y-126490978D01*
X75998342Y-126490978D02*
X76141200Y-126062406D01*
X76141200Y-126062406D02*
X76284057Y-125919549D01*
X76284057Y-125919549D02*
X77284057Y-125919549D01*
X77284057Y-125919549D02*
X77284057Y-126490978D01*
X77569771Y-121348121D02*
X77569771Y-122348121D01*
X75998342Y-122348121D02*
X78998342Y-122348121D01*
X78998342Y-122348121D02*
X78998342Y-120919549D01*
X75998342Y-119348120D02*
X76141200Y-119633835D01*
X76141200Y-119633835D02*
X76284057Y-119776692D01*
X76284057Y-119776692D02*
X76569771Y-119919549D01*
X76569771Y-119919549D02*
X77426914Y-119919549D01*
X77426914Y-119919549D02*
X77712628Y-119776692D01*
X77712628Y-119776692D02*
X77855485Y-119633835D01*
X77855485Y-119633835D02*
X77998342Y-119348120D01*
X77998342Y-119348120D02*
X77998342Y-118919549D01*
X77998342Y-118919549D02*
X77855485Y-118633835D01*
X77855485Y-118633835D02*
X77712628Y-118490978D01*
X77712628Y-118490978D02*
X77426914Y-118348120D01*
X77426914Y-118348120D02*
X76569771Y-118348120D01*
X76569771Y-118348120D02*
X76284057Y-118490978D01*
X76284057Y-118490978D02*
X76141200Y-118633835D01*
X76141200Y-118633835D02*
X75998342Y-118919549D01*
X75998342Y-118919549D02*
X75998342Y-119348120D01*
X75998342Y-117062406D02*
X77998342Y-117062406D01*
X77426914Y-117062406D02*
X77712628Y-116919549D01*
X77712628Y-116919549D02*
X77855485Y-116776692D01*
X77855485Y-116776692D02*
X77998342Y-116490977D01*
X77998342Y-116490977D02*
X77998342Y-116205263D01*
X76141200Y-113919549D02*
X75998342Y-114205263D01*
X75998342Y-114205263D02*
X75998342Y-114776691D01*
X75998342Y-114776691D02*
X76141200Y-115062406D01*
X76141200Y-115062406D02*
X76284057Y-115205263D01*
X76284057Y-115205263D02*
X76569771Y-115348120D01*
X76569771Y-115348120D02*
X77426914Y-115348120D01*
X77426914Y-115348120D02*
X77712628Y-115205263D01*
X77712628Y-115205263D02*
X77855485Y-115062406D01*
X77855485Y-115062406D02*
X77998342Y-114776691D01*
X77998342Y-114776691D02*
X77998342Y-114205263D01*
X77998342Y-114205263D02*
X77855485Y-113919549D01*
X76141200Y-111490977D02*
X75998342Y-111776691D01*
X75998342Y-111776691D02*
X75998342Y-112348120D01*
X75998342Y-112348120D02*
X76141200Y-112633834D01*
X76141200Y-112633834D02*
X76426914Y-112776691D01*
X76426914Y-112776691D02*
X77569771Y-112776691D01*
X77569771Y-112776691D02*
X77855485Y-112633834D01*
X77855485Y-112633834D02*
X77998342Y-112348120D01*
X77998342Y-112348120D02*
X77998342Y-111776691D01*
X77998342Y-111776691D02*
X77855485Y-111490977D01*
X77855485Y-111490977D02*
X77569771Y-111348120D01*
X77569771Y-111348120D02*
X77284057Y-111348120D01*
X77284057Y-111348120D02*
X76998342Y-112776691D01*
X75998342Y-106062405D02*
X77426914Y-107062405D01*
X75998342Y-107776691D02*
X78998342Y-107776691D01*
X78998342Y-107776691D02*
X78998342Y-106633834D01*
X78998342Y-106633834D02*
X78855485Y-106348119D01*
X78855485Y-106348119D02*
X78712628Y-106205262D01*
X78712628Y-106205262D02*
X78426914Y-106062405D01*
X78426914Y-106062405D02*
X77998342Y-106062405D01*
X77998342Y-106062405D02*
X77712628Y-106205262D01*
X77712628Y-106205262D02*
X77569771Y-106348119D01*
X77569771Y-106348119D02*
X77426914Y-106633834D01*
X77426914Y-106633834D02*
X77426914Y-107776691D01*
X78998342Y-105205262D02*
X78998342Y-103490977D01*
X75998342Y-104348119D02*
X78998342Y-104348119D01*
X77141200Y-102490977D02*
X77141200Y-100205263D01*
X78998342Y-99062405D02*
X75998342Y-97062405D01*
X78998342Y-97062405D02*
X75998342Y-99062405D01*
X75998342Y-94348119D02*
X75998342Y-96062405D01*
X75998342Y-95205262D02*
X78998342Y-95205262D01*
X78998342Y-95205262D02*
X78569771Y-95490976D01*
X78569771Y-95490976D02*
X78284057Y-95776691D01*
X78284057Y-95776691D02*
X78141200Y-96062405D01*
X78712628Y-93205262D02*
X78855485Y-93062405D01*
X78855485Y-93062405D02*
X78998342Y-92776691D01*
X78998342Y-92776691D02*
X78998342Y-92062405D01*
X78998342Y-92062405D02*
X78855485Y-91776691D01*
X78855485Y-91776691D02*
X78712628Y-91633833D01*
X78712628Y-91633833D02*
X78426914Y-91490976D01*
X78426914Y-91490976D02*
X78141200Y-91490976D01*
X78141200Y-91490976D02*
X77712628Y-91633833D01*
X77712628Y-91633833D02*
X75998342Y-93348119D01*
X75998342Y-93348119D02*
X75998342Y-91490976D01*
X77712628Y-89776690D02*
X77855485Y-90062405D01*
X77855485Y-90062405D02*
X77998342Y-90205262D01*
X77998342Y-90205262D02*
X78284057Y-90348119D01*
X78284057Y-90348119D02*
X78426914Y-90348119D01*
X78426914Y-90348119D02*
X78712628Y-90205262D01*
X78712628Y-90205262D02*
X78855485Y-90062405D01*
X78855485Y-90062405D02*
X78998342Y-89776690D01*
X78998342Y-89776690D02*
X78998342Y-89205262D01*
X78998342Y-89205262D02*
X78855485Y-88919548D01*
X78855485Y-88919548D02*
X78712628Y-88776690D01*
X78712628Y-88776690D02*
X78426914Y-88633833D01*
X78426914Y-88633833D02*
X78284057Y-88633833D01*
X78284057Y-88633833D02*
X77998342Y-88776690D01*
X77998342Y-88776690D02*
X77855485Y-88919548D01*
X77855485Y-88919548D02*
X77712628Y-89205262D01*
X77712628Y-89205262D02*
X77712628Y-89776690D01*
X77712628Y-89776690D02*
X77569771Y-90062405D01*
X77569771Y-90062405D02*
X77426914Y-90205262D01*
X77426914Y-90205262D02*
X77141200Y-90348119D01*
X77141200Y-90348119D02*
X76569771Y-90348119D01*
X76569771Y-90348119D02*
X76284057Y-90205262D01*
X76284057Y-90205262D02*
X76141200Y-90062405D01*
X76141200Y-90062405D02*
X75998342Y-89776690D01*
X75998342Y-89776690D02*
X75998342Y-89205262D01*
X75998342Y-89205262D02*
X76141200Y-88919548D01*
X76141200Y-88919548D02*
X76284057Y-88776690D01*
X76284057Y-88776690D02*
X76569771Y-88633833D01*
X76569771Y-88633833D02*
X77141200Y-88633833D01*
X77141200Y-88633833D02*
X77426914Y-88776690D01*
X77426914Y-88776690D02*
X77569771Y-88919548D01*
X77569771Y-88919548D02*
X77712628Y-89205262D01*
X78998342Y-86062405D02*
X78998342Y-86633833D01*
X78998342Y-86633833D02*
X78855485Y-86919547D01*
X78855485Y-86919547D02*
X78712628Y-87062405D01*
X78712628Y-87062405D02*
X78284057Y-87348119D01*
X78284057Y-87348119D02*
X77712628Y-87490976D01*
X77712628Y-87490976D02*
X76569771Y-87490976D01*
X76569771Y-87490976D02*
X76284057Y-87348119D01*
X76284057Y-87348119D02*
X76141200Y-87205262D01*
X76141200Y-87205262D02*
X75998342Y-86919547D01*
X75998342Y-86919547D02*
X75998342Y-86348119D01*
X75998342Y-86348119D02*
X76141200Y-86062405D01*
X76141200Y-86062405D02*
X76284057Y-85919547D01*
X76284057Y-85919547D02*
X76569771Y-85776690D01*
X76569771Y-85776690D02*
X77284057Y-85776690D01*
X77284057Y-85776690D02*
X77569771Y-85919547D01*
X77569771Y-85919547D02*
X77712628Y-86062405D01*
X77712628Y-86062405D02*
X77855485Y-86348119D01*
X77855485Y-86348119D02*
X77855485Y-86919547D01*
X77855485Y-86919547D02*
X77712628Y-87205262D01*
X77712628Y-87205262D02*
X77569771Y-87348119D01*
X77569771Y-87348119D02*
X77284057Y-87490976D01*
X77998342Y-83205262D02*
X75998342Y-83205262D01*
X79141200Y-83919547D02*
X76998342Y-84633833D01*
X76998342Y-84633833D02*
X76998342Y-82776690D01*
D12*
X87074166Y-81483104D02*
X86597976Y-81483104D01*
X87169404Y-81768819D02*
X86836071Y-80768819D01*
X86836071Y-80768819D02*
X86502738Y-81768819D01*
X85645595Y-81768819D02*
X86217023Y-81768819D01*
X85931309Y-81768819D02*
X85931309Y-80768819D01*
X85931309Y-80768819D02*
X86026547Y-80911676D01*
X86026547Y-80911676D02*
X86121785Y-81006914D01*
X86121785Y-81006914D02*
X86217023Y-81054533D01*
X106298881Y-91274780D02*
X106346500Y-91322400D01*
X106346500Y-91322400D02*
X106298881Y-91370019D01*
X106298881Y-91370019D02*
X106251262Y-91322400D01*
X106251262Y-91322400D02*
X106298881Y-91274780D01*
X106298881Y-91274780D02*
X106298881Y-91370019D01*
X146303881Y-104025580D02*
X146351500Y-104073200D01*
X146351500Y-104073200D02*
X146303881Y-104120819D01*
X146303881Y-104120819D02*
X146256262Y-104073200D01*
X146256262Y-104073200D02*
X146303881Y-104025580D01*
X146303881Y-104025580D02*
X146303881Y-104120819D01*
X148057975Y-87229819D02*
X148057975Y-86229819D01*
X148057975Y-86229819D02*
X147819880Y-86229819D01*
X147819880Y-86229819D02*
X147677023Y-86277438D01*
X147677023Y-86277438D02*
X147581785Y-86372676D01*
X147581785Y-86372676D02*
X147534166Y-86467914D01*
X147534166Y-86467914D02*
X147486547Y-86658390D01*
X147486547Y-86658390D02*
X147486547Y-86801247D01*
X147486547Y-86801247D02*
X147534166Y-86991723D01*
X147534166Y-86991723D02*
X147581785Y-87086961D01*
X147581785Y-87086961D02*
X147677023Y-87182200D01*
X147677023Y-87182200D02*
X147819880Y-87229819D01*
X147819880Y-87229819D02*
X148057975Y-87229819D01*
X146867499Y-86229819D02*
X146772261Y-86229819D01*
X146772261Y-86229819D02*
X146677023Y-86277438D01*
X146677023Y-86277438D02*
X146629404Y-86325057D01*
X146629404Y-86325057D02*
X146581785Y-86420295D01*
X146581785Y-86420295D02*
X146534166Y-86610771D01*
X146534166Y-86610771D02*
X146534166Y-86848866D01*
X146534166Y-86848866D02*
X146581785Y-87039342D01*
X146581785Y-87039342D02*
X146629404Y-87134580D01*
X146629404Y-87134580D02*
X146677023Y-87182200D01*
X146677023Y-87182200D02*
X146772261Y-87229819D01*
X146772261Y-87229819D02*
X146867499Y-87229819D01*
X146867499Y-87229819D02*
X146962737Y-87182200D01*
X146962737Y-87182200D02*
X147010356Y-87134580D01*
X147010356Y-87134580D02*
X147057975Y-87039342D01*
X147057975Y-87039342D02*
X147105594Y-86848866D01*
X147105594Y-86848866D02*
X147105594Y-86610771D01*
X147105594Y-86610771D02*
X147057975Y-86420295D01*
X147057975Y-86420295D02*
X147010356Y-86325057D01*
X147010356Y-86325057D02*
X146962737Y-86277438D01*
X146962737Y-86277438D02*
X146867499Y-86229819D01*
%TO.C,A1*%
X83819881Y-82330000D02*
X83819881Y-135670000D01*
X83819881Y-82330000D02*
X148335881Y-82330000D01*
X83819881Y-135670000D02*
X149859881Y-135670000D01*
X148335881Y-82330000D02*
X149859881Y-83854000D01*
X149859881Y-95030000D02*
X149859881Y-83854000D01*
X149859881Y-134400000D02*
X152399881Y-131860000D01*
X149859881Y-135670000D02*
X149859881Y-134400000D01*
X152399881Y-97570000D02*
X149859881Y-95030000D01*
X152399881Y-131860000D02*
X152399881Y-97570000D01*
%TO.C,RV1*%
D13*
X154190000Y-85190000D02*
X154190000Y-85880000D01*
X154190000Y-86920000D02*
X154190000Y-90900000D01*
X154290000Y-84990000D02*
X154290000Y-85190000D01*
X154290000Y-85190000D02*
X154190000Y-85190000D01*
X155500000Y-92210000D02*
X156990000Y-92210000D01*
X155710000Y-84990000D02*
X154290000Y-84990000D01*
X155710000Y-85190000D02*
X155710000Y-84990000D01*
X158010000Y-92210000D02*
X159500000Y-92210000D01*
X159290000Y-85190000D02*
X155710000Y-85190000D01*
X159290000Y-85190000D02*
X159290000Y-84990000D01*
X160710000Y-84990000D02*
X159290000Y-84990000D01*
X160710000Y-84990000D02*
X160710000Y-85190000D01*
X160710000Y-85190000D02*
X160810000Y-85190000D01*
X160810000Y-85190000D02*
X160810000Y-85440000D01*
X160810000Y-90900000D02*
X160810000Y-87360000D01*
X155500000Y-92210000D02*
G75*
G02*
X154190000Y-90900000I0J1310000D01*
G01*
X160810000Y-90900000D02*
G75*
G02*
X159500000Y-92210000I-1310000J0D01*
G01*
%TO.C,J2*%
X159420000Y-126060000D02*
X159420000Y-133790000D01*
X162180000Y-123410000D02*
X160800000Y-123410000D01*
X162180000Y-124790000D02*
X162180000Y-123410000D01*
X162180000Y-126060000D02*
X159420000Y-126060000D01*
X162180000Y-126060000D02*
X162180000Y-133790000D01*
X162180000Y-133790000D02*
X159420000Y-133790000D01*
%TD*%
M02*
